<?xml version="1.0" encoding="UTF-8"?>
<svg version="1.1" xmlns="http://www.w3.org/2000/svg" width="264" height="252">
<path d="M0 0 C87.12 0 174.24 0 264 0 C264 83.16 264 166.32 264 252 C176.88 252 89.76 252 0 252 C0 168.84 0 85.68 0 0 Z " fill="#FDFCFC" transform="translate(0,0)"/>
<path d="M0 0 C0.625 2.375 0.625 2.375 1 5 C0.34 5.66 -0.32 6.32 -1 7 C-2.32 7 -3.64 7 -5 7 C-5 6.34 -5 5.68 -5 5 C-16.88 5 -28.76 5 -41 5 C-41.33 6.98 -41.66 8.96 -42 11 C-43.26953125 13.640625 -43.26953125 13.640625 -44.8125 16.25 C-47.71396336 21.34678744 -49.97303672 26.50335251 -52 32 C-48.03416598 30.68892658 -47.205766 30.35366031 -45 26.5625 C-44.31811197 25.04843026 -43.65323109 23.52665242 -43 22 C-42.10718188 20.01947132 -41.2112797 18.0403304 -40.3125 16.0625 C-39.68794922 14.65677734 -39.68794922 14.65677734 -39.05078125 13.22265625 C-38 11 -38 11 -37 10 C-34.19023482 9.83982834 -31.40226404 9.74049466 -28.58984375 9.68359375 C-27.32679161 9.6524221 -27.32679161 9.6524221 -26.03822327 9.62062073 C-23.33806821 9.55503188 -20.63781283 9.49619724 -17.9375 9.4375 C-16.11131759 9.39432363 -14.28514546 9.35070964 -12.45898438 9.30664062 C-7.97276008 9.19934106 -3.4864345 9.09810034 1 9 C1.04254356 10.99954746 1.04080783 13.00041636 1 15 C0 16 0 16 -3.32641602 16.11352539 C-4.80225556 16.11336629 -6.27810069 16.10767314 -7.75390625 16.09765625 C-8.52935287 16.0962413 -9.3047995 16.09482635 -10.10374451 16.09336853 C-12.59003494 16.08775345 -15.0762366 16.07519846 -17.5625 16.0625 C-19.24413933 16.05748694 -20.92578006 16.0529237 -22.60742188 16.04882812 C-26.73831566 16.03777913 -30.86914276 16.02050445 -35 16 C-35.20278564 16.54269531 -35.40557129 17.08539063 -35.61450195 17.64453125 C-36.01608521 18.71767578 -36.01608521 18.71767578 -36.42578125 19.8125 C-36.69044189 20.52019531 -36.95510254 21.22789063 -37.2277832 21.95703125 C-38.1201193 24.31778637 -39.0501228 26.66184074 -40 29 C-37.54368999 28.50452457 -37.54368999 28.50452457 -35 27 C-33.93030823 24.69778282 -32.92363097 22.36460362 -32 20 C-30.80455566 19.96241577 -30.80455566 19.96241577 -29.58496094 19.92407227 C-25.97314778 19.80801211 -22.36158898 19.68533069 -18.75 19.5625 C-17.49574219 19.52318359 -16.24148437 19.48386719 -14.94921875 19.44335938 C-13.74394531 19.40146484 -12.53867188 19.35957031 -11.296875 19.31640625 C-10.18666992 19.27974854 -9.07646484 19.24309082 -7.93261719 19.20532227 C-5.07919156 19.10650132 -5.07919156 19.10650132 -2.73144531 18.35522461 C-2.16006836 18.23800049 -1.58869141 18.12077637 -1 18 C-0.01 18.99 -0.01 18.99 1 20 C0.505 22.475 0.505 22.475 0 25 C-9.57 24.67 -19.14 24.34 -29 24 C-29.66 26.31 -30.32 28.62 -31 31 C-30.2575 31.12375 -29.515 31.2475 -28.75 31.375 C-26.19858515 31.95486701 -24.2732427 32.73708739 -22 34 C-22.62288266 37.1144133 -23.76310924 39.89364922 -25.0390625 42.79296875 C-26.71753751 46.64800282 -28.30561152 50.54112844 -29.9140625 54.42578125 C-30.56541395 55.9698122 -31.25056151 57.50112302 -32 59 C-30.02 59 -28.04 59 -26 59 C-25.88398437 58.47535156 -25.76796875 57.95070312 -25.6484375 57.41015625 C-24.82268851 54.3409567 -23.7420756 51.41298318 -22.625 48.4375 C-22.20476562 47.30183594 -21.78453125 46.16617188 -21.3515625 44.99609375 C-20.13368893 42.29635669 -19.37981997 40.7146908 -17 39 C-16.01 39 -15.02 39 -14 39 C-13.62051115 43.47136866 -14.81277615 46.18802719 -16.875 50.125 C-17.40867188 51.15882812 -17.94234375 52.19265625 -18.4921875 53.2578125 C-20 56 -20 56 -22 59 C-22.16699232 62.12521833 -22.16699232 62.12521833 -22 65 C-21.34 65 -20.68 65 -20 65 C-20 66.32 -20 67.64 -20 69 C-19.34 69 -18.68 69 -18 69 C-17.32645501 70.43429001 -16.66140299 71.87257057 -16 73.3125 C-15.62875 74.11300781 -15.2575 74.91351563 -14.875 75.73828125 C-14 78 -14 78 -14 81 C12.07 81 38.14 81 65 81 C65 82.32 65 83.64 65 85 C37.94 85 10.88 85 -17 85 C-22 72 -22 72 -22 70 C-22.66 70 -23.32 70 -24 70 C-24.66 67.36 -25.32 64.72 -26 62 C-27.918125 62.1546875 -27.918125 62.1546875 -29.875 62.3125 C-30.59429687 62.37050781 -31.31359375 62.42851563 -32.0546875 62.48828125 C-34.39519216 62.87393036 -34.39519216 62.87393036 -36 66 C-36.24055468 68.05709596 -36.24055468 68.05709596 -36.125 70.1875 C-36.08375 71.445625 -36.0425 72.70375 -36 74 C-35.34 74 -34.68 74 -34 74 C-33.20688633 75.72850345 -32.4155741 77.45783354 -31.625 79.1875 C-31.18414062 80.15042969 -30.74328125 81.11335938 -30.2890625 82.10546875 C-29.48804098 83.90412615 -28.71865195 85.71765733 -28 87.55078125 C-26.59097734 91.00178596 -24.79479127 94.22350748 -23.0234375 97.5 C-21.91810379 100.20005182 -21.80404021 102.11217159 -22 105 C-31.22471989 109.76114575 -40.78512374 110.46879951 -50.875 108 C-51.90625 107.67 -52.9375 107.34 -54 107 C-54 106.34 -54 105.68 -54 105 C-55.3303125 104.87431641 -55.3303125 104.87431641 -56.6875 104.74609375 C-64.05536413 103.08658662 -69.51914174 96.23806713 -73.4375 90.0625 C-78.94438549 79.90674235 -80.7576806 69.45676517 -78.37890625 58.01171875 C-75.62033893 49.34368723 -70.31059593 42.09687036 -62.8125 36.9375 C-56.29092718 32.38133269 -53.96936197 25.15621783 -51.23144531 17.96582031 C-49.77100967 14.44849831 -48.08857166 11.06225047 -46.3671875 7.66796875 C-46.04290771 7.02420288 -45.71862793 6.38043701 -45.38452148 5.71716309 C-44.59162993 4.14379172 -43.79608655 2.5717572 -43 1 C-37.67979128 0.85673577 -32.35956016 0.71434479 -27.03930664 0.57275391 C-25.23038099 0.52448998 -23.42146162 0.47598974 -21.61254883 0.42724609 C-19.00864259 0.35712166 -16.40471474 0.2878542 -13.80078125 0.21875 C-12.99538406 0.19687622 -12.18998688 0.17500244 -11.36018372 0.15246582 C-7.57215524 0.05273135 -3.78978391 -0.02657167 0 0 Z " fill="#1A1A1A" transform="translate(129,46)"/>
<path d="M0 0 C1.921875 1.609375 1.921875 1.609375 3.75 3.75 C4.67039062 4.79414062 4.67039062 4.79414062 5.609375 5.859375 C7 8 7 8 7 12 C5.2421875 13.5703125 5.2421875 13.5703125 2.875 15.125 C-2.3690808 18.98385191 -5.18651226 23.18365515 -8 29 C-8.3403125 29.69738281 -8.680625 30.39476563 -9.03125 31.11328125 C-12.85147865 40.50467669 -11.81994065 51.48270032 -9 61 C-8.875 64 -8.875 64 -9 66 C-8.34 66 -7.68 66 -7 66 C-5.92189651 67.65149926 -4.91327446 69.34855101 -3.9375 71.0625 C2.45828092 81.34332139 10.85323032 85.28441011 22 89 C24.8243887 89.12255168 27.61326762 89.18512869 30.4375 89.1875 C31.20126953 89.19974609 31.96503906 89.21199219 32.75195312 89.22460938 C36.77232002 89.23510642 39.46380501 89.07294189 43 87 C45.33203812 86.9222654 47.66839059 86.91032272 50 87 C50.37125 87.886875 50.7425 88.77375 51.125 89.6875 C52.67071798 93.3088964 54.33269607 96.8706309 56 100.4375 C57.66782794 104.02784883 59.28498821 107.58697272 60.625 111.3125 C61.59487606 113.91353125 62.55393727 116.1849294 63.8125 118.625 C65.77696426 122.45455874 67.53381491 126.36684043 69.25 130.3125 C70.03117187 132.10107422 70.03117187 132.10107422 70.828125 133.92578125 C72 137 72 137 72 140 C68.7 140 65.4 140 62 140 C61.67 139.01 61.34 138.02 61 137 C58.91921587 135.87033352 58.91921587 135.87033352 56.34375 135.02734375 C55.40402344 134.68509766 54.46429688 134.34285156 53.49609375 133.99023438 C52.50738281 133.64283203 51.51867187 133.29542969 50.5 132.9375 C48.54981353 132.24463714 46.60176199 131.54572567 44.65625 130.83984375 C43.78806641 130.53425537 42.91988281 130.22866699 42.02539062 129.91381836 C40 129 40 129 39 127 C37.515 126.505 37.515 126.505 36 126 C36 125.34 36 124.68 36 124 C30.555 124.99 30.555 124.99 25 126 C25 124.35 25 122.7 25 121 C24.34 121 23.68 121 23 121 C23 120.34 23 119.68 23 119 C30.26 119 37.52 119 45 119 C44.505 120.485 44.505 120.485 44 122 C43.34 122 42.68 122 42 122 C42 122.66 42 123.32 42 124 C42.74765625 124.19335938 43.4953125 124.38671875 44.265625 124.5859375 C45.25046875 124.84632813 46.2353125 125.10671875 47.25 125.375 C48.71179688 125.75785156 48.71179688 125.75785156 50.203125 126.1484375 C52.65837303 126.89598509 54.75617405 127.77123817 57 129 C56.67 128.01 56.34 127.02 56 126 C55.96045766 123.66700175 55.95598268 121.33291811 56 119 C53.03 118.67 50.06 118.34 47 118 C46.67 116.02 46.34 114.04 46 112 C47.32 111.67 48.64 111.34 50 111 C49.01 107.7 48.02 104.4 47 101 C45.02 100.67 43.04 100.34 41 100 C41.495 98.02 41.495 98.02 42 96 C40.98873047 96.24556641 40.98873047 96.24556641 39.95703125 96.49609375 C36.48632094 97.0875358 33.20677876 97.09539046 29.6875 97.0625 C28.43324219 97.05347656 27.17898437 97.04445313 25.88671875 97.03515625 C24.93410156 97.02355469 23.98148438 97.01195312 23 97 C23 98.32 23 99.64 23 101 C20.69 101 18.38 101 16 101 C15.90912109 101.87011719 15.90912109 101.87011719 15.81640625 102.7578125 C14.44362292 115.55637708 14.44362292 115.55637708 13 117 C11.33382885 117.04063832 9.66611905 117.042721 8 117 C7.814375 118.8253125 7.814375 118.8253125 7.625 120.6875 C7.21108694 124.06479059 6.45426549 126.89756695 5 130 C8.84587594 129.60756368 12.18195178 129.04610654 15.6875 127.4375 C19 126 19 126 23 126 C23 126.66 23 127.32 23 128 C21.02 128.33 19.04 128.66 17 129 C16.67 129.99 16.34 130.98 16 132 C13.71137774 133.10434166 11.57293475 133.98538946 9.1875 134.8125 C8.55779297 135.05419922 7.92808594 135.29589844 7.27929688 135.54492188 C4.47904147 136.54102532 2.61854796 137.20190944 -0.26171875 136.26171875 C-0.83535156 135.84535156 -1.40898438 135.42898437 -2 135 C-3.485 134.01 -3.485 134.01 -5 133 C-5.66890145 128.09472272 -4.30079287 125.26072755 -2 121 C-1.55527344 119.78570312 -1.11054687 118.57140625 -0.65234375 117.3203125 C0.95612706 112.95267638 2.98322887 108.87663595 5.125 104.75 C5.83973955 103.37175672 6.55081059 101.99160345 7.2578125 100.609375 C7.5686377 100.01092773 7.87946289 99.41248047 8.19970703 98.79589844 C9.04957488 96.88875143 9.55130425 95.03565589 10 93 C5.41780839 92.1188093 3.07775798 91.82519574 -1 94 C-4.76903994 93.87567403 -6.05591014 92.95072453 -8.9296875 90.41796875 C-9.92311171 89.35188718 -10.90466273 88.27463713 -11.875 87.1875 C-12.64070313 86.38602539 -12.64070313 86.38602539 -13.421875 85.56835938 C-16.99785002 81.63961925 -16.99785002 81.63961925 -17.0078125 78.67578125 C-16 77 -16 77 -13 76 C-13.495 73.03 -13.495 73.03 -14 70 C-14.66 70 -15.32 70 -16 70 C-16.50559908 68.56445975 -17.0042749 67.1264798 -17.5 65.6875 C-17.7784375 64.88699219 -18.056875 64.08648437 -18.34375 63.26171875 C-19 61 -19 61 -19 58 C-21.64 58 -24.28 58 -27 58 C-27.02895225 54.70835171 -27.0467823 51.41673601 -27.0625 48.125 C-27.07506836 46.71927734 -27.07506836 46.71927734 -27.08789062 45.28515625 C-27.09111328 44.38925781 -27.09433594 43.49335937 -27.09765625 42.5703125 C-27.10289307 41.74289551 -27.10812988 40.91547852 -27.11352539 40.06298828 C-27 38 -27 38 -26 36 C-23.69 36 -21.38 36 -19 36 C-18.9175 35.360625 -18.835 34.72125 -18.75 34.0625 C-17.87367236 30.48416212 -16.3918789 27.46591078 -14.7421875 24.18359375 C-13.87136771 21.62155026 -14.00060729 20.48796185 -15 18 C-15.66 17.34 -16.32 16.68 -17 16 C-16.6904063 12.40569268 -14.90552233 10.38042008 -12.5625 7.75 C-11.94503906 7.04359375 -11.32757813 6.3371875 -10.69140625 5.609375 C-9 4 -9 4 -7 4 C-7 3.34 -7 2.68 -7 2 C-4 0 -4 0 0 0 Z " fill="#F63F0B" transform="translate(59,68)"/>
<path d="M0 0 C4.78712933 -0.09886835 9.57366475 -0.17146623 14.36157227 -0.21972656 C15.99025829 -0.23984381 17.61887208 -0.26714137 19.24731445 -0.30175781 C21.58823458 -0.35027429 23.92820018 -0.37296632 26.26953125 -0.390625 C27.36186821 -0.42159271 27.36186821 -0.42159271 28.47627258 -0.45318604 C33.52376694 -0.45542706 33.52376694 -0.45542706 35.91674805 1.83300781 C37.23966212 4.47943228 38.10125373 7.18392834 39 10 C39.66 10.99 40.32 11.98 41 13 C41 14.32 41 15.64 41 17 C41.66 17 42.32 17 43 17 C45.475 23.93 45.475 23.93 48 31 C39.88651498 35.05674251 28.55141546 33.77643359 20 31 C10.39008252 25.91239663 4.67270156 17.61811814 0.6875 7.75 C0.00830281 5.03321124 -0.05136726 2.78317169 0 0 Z " fill="#F6F6F6" transform="translate(54,117)"/>
<path d="M0 0 C0.68964844 -0.00773437 1.37929687 -0.01546875 2.08984375 -0.0234375 C6.12563159 -0.00800428 9.24425036 0.46994376 12.875 2.25 C12.30423685 6.24534208 10.97458585 8.838173 8.875 12.25 C8.17920546 14.44130534 8.17920546 14.44130534 7.875 16.25 C7.215 16.25 6.555 16.25 5.875 16.25 C4.885 19.22 3.895 22.19 2.875 25.25 C-5.375 25.25 -13.625 25.25 -22.125 25.25 C-22.125 26.24 -22.125 27.23 -22.125 28.25 C-14.535 28.25 -6.945 28.25 0.875 28.25 C-0.125 32.25 -0.125 32.25 -1.125 33.25 C-3.64594076 33.33847743 -6.13930893 33.36527301 -8.66015625 33.34765625 C-9.79003212 33.34553383 -9.79003212 33.34553383 -10.94273376 33.34336853 C-13.3576956 33.33775376 -15.77256601 33.32519883 -18.1875 33.3125 C-19.82096221 33.3074869 -21.45442586 33.30292366 -23.08789062 33.29882812 C-27.10029585 33.28777954 -31.11263241 33.27050506 -35.125 33.25 C-34.795 29.95 -34.465 26.65 -34.125 23.25 C-33.465 23.25 -32.805 23.25 -32.125 23.25 C-32.00511719 21.92162109 -32.00511719 21.92162109 -31.8828125 20.56640625 C-30.3239195 13.7442405 -23.93632017 8.41372704 -18.5 4.25 C-12.49301997 0.69030813 -6.81838477 -0.07733518 0 0 Z " fill="#F0F0F0" transform="translate(89.125,79.75)"/>
<path d="M0 0 C-0.33 1.32 -0.66 2.64 -1 4 C0.98 4 2.96 4 5 4 C5.69937202 5.4317616 6.38412718 6.87067032 7.0625 8.3125 C7.44535156 9.11300781 7.82820313 9.91351563 8.22265625 10.73828125 C9 13 9 13 8 16 C7.01 16.33 6.02 16.66 5 17 C5 18.65 5 20.3 5 22 C6.670625 21.9690625 6.670625 21.9690625 8.375 21.9375 C12 22 12 22 14 23 C14.4140625 25.28515625 14.4140625 25.28515625 14.625 28.0625 C14.69976562 28.98160156 14.77453125 29.90070313 14.8515625 30.84765625 C14.90054688 31.55792969 14.94953125 32.26820313 15 33 C11.64132288 32.24029922 8.47876342 31.12906745 5.25 29.9375 C4.26515625 29.57527344 3.2803125 29.21304688 2.265625 28.83984375 C1.51796875 28.56269531 0.7703125 28.28554687 0 28 C0 27.34 0 26.68 0 26 C0.66 26 1.32 26 2 26 C2 25.34 2 24.68 2 24 C0.81921875 24.01160156 -0.3615625 24.02320313 -1.578125 24.03515625 C-3.13541508 24.04453752 -4.69270688 24.05363736 -6.25 24.0625 C-7.02730469 24.07087891 -7.80460937 24.07925781 -8.60546875 24.08789062 C-9.73662109 24.09272461 -9.73662109 24.09272461 -10.890625 24.09765625 C-11.92751465 24.10551147 -11.92751465 24.10551147 -12.98535156 24.11352539 C-15.09973898 23.99437971 -16.96641515 23.57618237 -19 23 C-19 23.66 -19 24.32 -19 25 C-18.34 25 -17.68 25 -17 25 C-17 26.65 -17 28.3 -17 30 C-15.9275 29.67 -14.855 29.34 -13.75 29 C-10 28 -10 28 -6 28 C-6 28.66 -6 29.32 -6 30 C-4.68 30.33 -3.36 30.66 -2 31 C-4 32 -4 32 -7.9375 31.3125 C-13.87927977 30.51897241 -18.6232701 32.65835875 -24 35 C-24.33 34.34 -24.66 33.68 -25 33 C-22.03 32.505 -22.03 32.505 -19 32 C-19 31.34 -19 30.68 -19 30 C-20.64696604 30.4752588 -22.29254728 30.95531891 -23.9375 31.4375 C-24.85402344 31.70433594 -25.77054688 31.97117188 -26.71484375 32.24609375 C-28.9402493 32.79026051 -28.9402493 32.79026051 -30 34 C-32.33297433 34.04092937 -34.66705225 34.04241723 -37 34 C-36.17812739 29.61667943 -35.09845718 25.32059823 -34 21 C-32.35 20.67 -30.7 20.34 -29 20 C-28.44576626 16.75377381 -27.93530714 13.51480358 -27.5 10.25 C-27 7 -27 7 -26 5 C-23.69 5 -21.38 5 -19 5 C-19 3.68 -19 2.36 -19 1 C-16.77100213 0.83109082 -14.54179338 0.66496313 -12.3125 0.5 C-10.45044922 0.36078125 -10.45044922 0.36078125 -8.55078125 0.21875 C-5.68500671 0.04220063 -2.86900043 -0.04388528 0 0 Z " fill="#E35B32" transform="translate(101,164)"/>
<path d="M0 0 C0.37948885 4.47136866 -0.81277615 7.18802719 -2.875 11.125 C-3.40867188 12.15882812 -3.94234375 13.19265625 -4.4921875 14.2578125 C-6 17 -6 17 -8 20 C-8.16699232 23.12521833 -8.16699232 23.12521833 -8 26 C-7.34 26 -6.68 26 -6 26 C-6 27.32 -6 28.64 -6 30 C-5.34 30 -4.68 30 -4 30 C-3.32645501 31.43429001 -2.66140299 32.87257057 -2 34.3125 C-1.62875 35.11300781 -1.2575 35.91351563 -0.875 36.73828125 C0 39 0 39 0 42 C26.07 42 52.14 42 79 42 C79 43.32 79 44.64 79 46 C51.94 46 24.88 46 -3 46 C-8 33 -8 33 -8 31 C-8.66 31 -9.32 31 -10 31 C-10.66 28.36 -11.32 25.72 -12 23 C-17.30897579 23.19091758 -17.30897579 23.19091758 -21.8125 25.5 C-22.204375 25.995 -22.59625 26.49 -23 27 C-23.99 27.33 -24.98 27.66 -26 28 C-25.67 26.35 -25.34 24.7 -25 23 C-32.59 23 -40.18 23 -48 23 C-48 22.01 -48 21.02 -48 20 C-47.26885986 19.9906543 -46.53771973 19.98130859 -45.78442383 19.97167969 C-42.45977282 19.91787336 -39.13651322 19.83424496 -35.8125 19.75 C-34.08676758 19.72873047 -34.08676758 19.72873047 -32.32617188 19.70703125 C-31.21435547 19.67480469 -30.10253906 19.64257812 -28.95703125 19.609375 C-27.93585205 19.58842773 -26.91467285 19.56748047 -25.86254883 19.54589844 C-22.34121158 18.87436666 -20.60462864 17.40169774 -18 15 C-18 16.65 -18 18.3 -18 20 C-16.02 20 -14.04 20 -12 20 C-11.88398437 19.47535156 -11.76796875 18.95070313 -11.6484375 18.41015625 C-10.82268851 15.3409567 -9.7420756 12.41298318 -8.625 9.4375 C-8.20476562 8.30183594 -7.78453125 7.16617188 -7.3515625 5.99609375 C-5.50135636 1.89462522 -4.64205637 0 0 0 Z " fill="#181818" transform="translate(115,85)"/>
<path d="M0 0 C0.33 0 0.66 0 1 0 C1.13277344 1.14597656 1.26554687 2.29195313 1.40234375 3.47265625 C1.58068188 5.00260968 1.75906996 6.53255729 1.9375 8.0625 C2.02451172 8.81466797 2.11152344 9.56683594 2.20117188 10.34179688 C2.73463639 14.90588219 3.32986298 19.45393534 4 24 C4.66 24 5.32 24 6 24 C7.07810349 25.65149926 8.08672554 27.34855101 9.0625 29.0625 C15.45828092 39.34332139 23.85323032 43.28441011 35 47 C37.8243887 47.12255168 40.61326762 47.18512869 43.4375 47.1875 C44.20126953 47.19974609 44.96503906 47.21199219 45.75195312 47.22460938 C49.77232002 47.23510642 52.46380501 47.07294189 56 45 C58.33203812 44.9222654 60.66839059 44.91032272 63 45 C62.67 46.32 62.34 47.64 62 49 C61.46375 48.79375 60.9275 48.5875 60.375 48.375 C57.91530514 47.79088966 57.91530514 47.79088966 55.36328125 48.953125 C51.46537568 50.16641036 47.8557997 50.38227294 43.8125 50.375 C43.06943604 50.37628906 42.32637207 50.37757813 41.56079102 50.37890625 C35.16897298 50.25717051 29.7726285 48.79280515 24 46 C24 45.34 24 44.68 24 44 C22.02 43.67 20.04 43.34 18 43 C18.59927826 46.35595828 19.84622436 48.37801226 22 51 C21.0925 50.79375 20.185 50.5875 19.25 50.375 C15.70500511 49.96596213 15.011399 50.44572955 12 52 C8.22987166 51.87585366 6.94521008 50.95171181 4.0703125 48.41796875 C3.07688829 47.35188718 2.09533727 46.27463713 1.125 45.1875 C0.61453125 44.65318359 0.1040625 44.11886719 -0.421875 43.56835938 C-3.99785002 39.63961925 -3.99785002 39.63961925 -4.0078125 36.67578125 C-3 35 -3 35 0 34 C-0.33 32.02 -0.66 30.04 -1 28 C-1.66 28 -2.32 28 -3 28 C-3.52992692 26.54494642 -4.0486789 25.08581873 -4.5625 23.625 C-4.85253906 22.81289062 -5.14257812 22.00078125 -5.44140625 21.1640625 C-6 19 -6 19 -5 17 C-4.34 18.65 -3.68 20.3 -3 22 C-2.34 22 -1.68 22 -1 22 C-0.67 24.31 -0.34 26.62 0 29 C0.66 29 1.32 29 2 29 C2.04125 27.783125 2.0825 26.56625 2.125 25.3125 C2.14820313 24.62800781 2.17140625 23.94351563 2.1953125 23.23828125 C2.11641115 20.93337432 2.11641115 20.93337432 1 18.75 C-0.34224453 15.05882755 -0.21489519 11.55645048 -0.125 7.6875 C-0.11597656 6.94693359 -0.10695313 6.20636719 -0.09765625 5.44335938 C-0.07424213 3.62876533 -0.03837615 1.81433929 0 0 Z " fill="#F14918" transform="translate(46,110)"/>
<path d="M0 0 C3.3938012 2.80866306 4.74057269 5.50269263 6.140625 9.640625 C7.51066994 13.40202111 9.28605423 16.97289808 11.01171875 20.58203125 C12 23 12 23 12 26 C8.7 26 5.4 26 2 26 C1.505 24.515 1.505 24.515 1 23 C-1.08078413 21.87033352 -1.08078413 21.87033352 -3.65625 21.02734375 C-5.06583984 20.51397461 -5.06583984 20.51397461 -6.50390625 19.99023438 C-7.49261719 19.64283203 -8.48132813 19.29542969 -9.5 18.9375 C-11.45018647 18.24463714 -13.39823801 17.54572567 -15.34375 16.83984375 C-16.64602539 16.38146118 -16.64602539 16.38146118 -17.97460938 15.91381836 C-20 15 -20 15 -21 13 C-21.99 12.67 -22.98 12.34 -24 12 C-24 11.34 -24 10.68 -24 10 C-27.63 10.66 -31.26 11.32 -35 12 C-35 10.35 -35 8.7 -35 7 C-35.66 7 -36.32 7 -37 7 C-37 6.34 -37 5.68 -37 5 C-29.74 5 -22.48 5 -15 5 C-15.33 5.99 -15.66 6.98 -16 8 C-16.66 8 -17.32 8 -18 8 C-18 8.66 -18 9.32 -18 10 C-16.87851563 10.29003906 -16.87851563 10.29003906 -15.734375 10.5859375 C-14.74953125 10.84632813 -13.7646875 11.10671875 -12.75 11.375 C-11.77546875 11.63023437 -10.8009375 11.88546875 -9.796875 12.1484375 C-7.34162697 12.89598509 -5.24382595 13.77123817 -3 15 C-3.185625 14.0925 -3.37125 13.185 -3.5625 12.25 C-3.95734621 9.31685676 -3.94691572 7.7355343 -3 5 C-2.34 5 -1.68 5 -1 5 C-0.67 3.35 -0.34 1.7 0 0 Z " fill="#F14310" transform="translate(119,182)"/>
<path d="M0 0 C1.32 0.33 2.64 0.66 4 1 C4 1.99 4 2.98 4 4 C4.66 4.33 5.32 4.66 6 5 C4.91332031 5.81791016 4.91332031 5.81791016 3.8046875 6.65234375 C-4.92888928 13.46453364 -11.956827 20.7625485 -14 32 C-15.08920407 44.88891481 -12.83737638 55.58409287 -5 66 C-0.63589632 70.67694266 3.55651549 74.67825959 10 76 C10 76.66 10 77.32 10 78 C19.78108447 79.56497352 30.03802222 80.77972148 39 76 C39.99 76 40.98 76 42 76 C42.495 74.515 42.495 74.515 43 73 C43 74.32 43 75.64 43 77 C42.01 77.495 42.01 77.495 41 78 C41.99 78.99 41.99 78.99 43 80 C42.36191406 80.13277344 41.72382812 80.26554687 41.06640625 80.40234375 C40.24011719 80.57894531 39.41382813 80.75554687 38.5625 80.9375 C37.73878906 81.11152344 36.91507813 81.28554687 36.06640625 81.46484375 C34.02338796 81.80752994 34.02338796 81.80752994 33 83 C18.2461397 83.85625082 8.07999414 82.10213512 -4 73 C-7.67862022 69.49299898 -10.67124301 65.5281386 -13 61 C-13 60.34 -13 59.68 -13 59 C-13.66 59 -14.32 59 -15 59 C-19.15367135 44.33852909 -19.95294033 31.25449508 -12.71484375 17.5703125 C-9.16429208 11.69558356 -4.60854967 7.87613099 1 4 C0.67 2.68 0.34 1.36 0 0 Z " fill="#EED4CA" transform="translate(65,75)"/>
<path d="M0 0 C2.2861202 3.42918031 2.21817987 4.57079104 2.125 8.5859375 C2.10953125 9.68164062 2.0940625 10.77734375 2.078125 11.90625 C2.02621753 14.21094147 1.9741354 16.51562901 1.921875 18.8203125 C1.90640625 19.91859375 1.8909375 21.016875 1.875 22.1484375 C1.85179687 23.15052246 1.82859375 24.15260742 1.8046875 25.18505859 C2.01241643 28.17895186 2.80148048 30.26997413 4 33 C4.1953125 35.45703125 4.1953125 35.45703125 4.125 37.8125 C4.10695313 38.60269531 4.08890625 39.39289063 4.0703125 40.20703125 C4.04710938 40.79871094 4.02390625 41.39039063 4 42 C2.515 41.505 2.515 41.505 1 41 C0.67 38.69 0.34 36.38 0 34 C-0.66 34 -1.32 34 -2 34 C-2.556875 32.7934375 -2.556875 32.7934375 -3.125 31.5625 C-4.68148769 28.85721619 -4.68148769 28.85721619 -6.93310547 28.53100586 C-7.65385254 28.46792236 -8.37459961 28.40483887 -9.1171875 28.33984375 C-10.39851563 28.22769531 -11.67984375 28.11554688 -13 28 C-13.02895225 24.70835171 -13.0467823 21.41673601 -13.0625 18.125 C-13.07506836 16.71927734 -13.07506836 16.71927734 -13.08789062 15.28515625 C-13.09111328 14.38925781 -13.09433594 13.49335937 -13.09765625 12.5703125 C-13.10289307 11.74289551 -13.10812988 10.91547852 -13.11352539 10.06298828 C-13 8 -13 8 -12 6 C-9.71484375 5.5859375 -9.71484375 5.5859375 -6.9375 5.375 C-6.01839844 5.30023438 -5.09929688 5.22546875 -4.15234375 5.1484375 C-3.08693359 5.07496094 -3.08693359 5.07496094 -2 5 C-1.855625 4.360625 -1.71125 3.72125 -1.5625 3.0625 C-1 1 -1 1 0 0 Z " fill="#F4410D" transform="translate(45,98)"/>
<path d="M0 0 C1.65 0 3.3 0 5 0 C4.67 1.32 4.34 2.64 4 4 C5.98 4 7.96 4 10 4 C10.69937202 5.4317616 11.38412718 6.87067032 12.0625 8.3125 C12.44535156 9.11300781 12.82820313 9.91351563 13.22265625 10.73828125 C14 13 14 13 13 16 C12.01 16.33 11.02 16.66 10 17 C10 18.65 10 20.3 10 22 C11.670625 21.9690625 11.670625 21.9690625 13.375 21.9375 C17 22 17 22 19 23 C19.4140625 25.28515625 19.4140625 25.28515625 19.625 28.0625 C19.69976562 28.98160156 19.77453125 29.90070313 19.8515625 30.84765625 C19.90054688 31.55792969 19.94953125 32.26820313 20 33 C16.64132288 32.24029922 13.47876342 31.12906745 10.25 29.9375 C9.26515625 29.57527344 8.2803125 29.21304688 7.265625 28.83984375 C6.14414063 28.42412109 6.14414063 28.42412109 5 28 C5 27.34 5 26.68 5 26 C5.66 26 6.32 26 7 26 C7 25.34 7 24.68 7 24 C4.03 24 1.06 24 -2 24 C0.19797403 21.80202597 1.17546145 21.54102483 4.125 20.875 C5.40375 20.58625 6.6825 20.2975 8 20 C8 19.34 8 18.68 8 18 C7.34 17.7525 6.68 17.505 6 17.25 C3.59816773 16.24923656 1.41144569 15.16079293 -0.875 13.9375 C-4.63468993 12.01476884 -7.80751852 11.34937346 -12 11 C-12 9.02 -12 7.04 -12 5 C-10.783125 5.04125 -9.56625 5.0825 -8.3125 5.125 C-4.77817381 5.13126654 -2.18739261 4.64199013 1 3 C1.33 2.67 1.66 2.34 2 2 C1.34 1.34 0.68 0.68 0 0 Z " fill="#E85528" transform="translate(96,164)"/>
<path d="M0 0 C11.88 0 23.76 0 36 0 C36 0.66 36 1.32 36 2 C37.32 2 38.64 2 40 2 C40 2.66 40 3.32 40 4 C36.2486535 5.17125374 32.50368388 5.22059865 28.609375 5.31640625 C27.55245453 5.3475779 27.55245453 5.3475779 26.47418213 5.37937927 C24.23288319 5.44453837 21.99147136 5.50360248 19.75 5.5625 C18.22655103 5.60571726 16.70311329 5.64933257 15.1796875 5.69335938 C11.45324409 5.80018491 7.72667506 5.90154639 4 6 C3.66806641 6.73460449 3.33613281 7.46920898 2.99414062 8.22607422 C2.55263672 9.2007666 2.11113281 10.17545898 1.65625 11.1796875 C1.22119141 12.14116699 0.78613281 13.10264648 0.33789062 14.09326172 C-4.09530719 23.72495025 -4.09530719 23.72495025 -6 26 C-8.65625 26.7421875 -8.65625 26.7421875 -11 27 C-9.48725425 20.03472013 -6.372519 13.11714746 -2.75 7 C-0.79413995 3.96799349 -0.79413995 3.96799349 0 0 Z " fill="#E4E4E4" transform="translate(88,51)"/>
<path d="M0 0 C0.04254356 1.99954746 0.04080783 4.00041636 0 6 C-1 7 -1 7 -4.32641602 7.11352539 C-5.80225556 7.11336629 -7.27810069 7.10767314 -8.75390625 7.09765625 C-9.52935287 7.0962413 -10.3047995 7.09482635 -11.10374451 7.09336853 C-13.59003494 7.08775345 -16.0762366 7.07519846 -18.5625 7.0625 C-20.24413933 7.05748694 -21.92578006 7.0529237 -23.60742188 7.04882812 C-27.73831566 7.03777913 -31.86914276 7.02050445 -36 7 C-36.99 9.64 -37.98 12.28 -39 15 C-39.66 14.34 -40.32 13.68 -41 13 C-41.99 13.66 -42.98 14.32 -44 15 C-43.57045619 13.6016978 -43.13092966 12.20646093 -42.6875 10.8125 C-42.32205078 9.64654297 -42.32205078 9.64654297 -41.94921875 8.45703125 C-40.83986248 5.58548764 -39.91826274 3.43500502 -38 1 C-34.81713867 0.34057617 -34.81713867 0.34057617 -30.91796875 0.29296875 C-30.2261702 0.27784744 -29.53437164 0.26272614 -28.8216095 0.24714661 C-26.60991255 0.20421661 -24.39957181 0.19544238 -22.1875 0.1875 C-20.71024965 0.16434967 -19.23303226 0.13898318 -17.75585938 0.11132812 C-11.83740534 0.0103397 -5.91923351 -0.00627702 0 0 Z " fill="#4A4A4A" transform="translate(130,55)"/>
<path d="M0 0 C9.86328125 -0.48828125 9.86328125 -0.48828125 13 0 C15.59257884 3.09844788 16.00899577 4.48724089 15.9375 8.5625 C14.88723419 12.41347464 14.13746382 13.60930443 11 16 C6.60786271 16.53045136 2.44112074 16.17764483 -2 16 C-1.34 10.72 -0.68 5.44 0 0 Z " fill="#1C1C1C" transform="translate(177,83)"/>
<path d="M0 0 C1.95803507 -0.05389087 3.91648909 -0.09274217 5.875 -0.125 C7.51082031 -0.15980469 7.51082031 -0.15980469 9.1796875 -0.1953125 C12 0 12 0 14 2 C14.30078125 4.49609375 14.30078125 4.49609375 14.3125 7.4375 C14.33763672 8.88962891 14.33763672 8.88962891 14.36328125 10.37109375 C14 13 14 13 12.8984375 14.8359375 C10.03980086 16.58876408 7.6246518 16.28588075 4.3125 16.1875 C2.54326172 16.14689453 2.54326172 16.14689453 0.73828125 16.10546875 C-0.16535156 16.07066406 -1.06898437 16.03585938 -2 16 C-1.50130596 10.63108121 -0.97772468 5.30764827 0 0 Z " fill="#141414" transform="translate(123,83)"/>
<path d="M0 0 C0.33 0 0.66 0 1 0 C1.33 4.29 1.66 8.58 2 13 C2.66 12.01 3.32 11.02 4 10 C4.20753906 10.90621094 4.41507813 11.81242187 4.62890625 12.74609375 C7.48545462 24.04081429 12.37238352 32.15519108 22 39 C25.03488182 40.75151314 27.50312943 41.335633 30.984375 41.6328125 C31.91894531 41.71660156 32.85351562 41.80039063 33.81640625 41.88671875 C34.78449219 41.96535156 35.75257812 42.04398438 36.75 42.125 C37.73355469 42.21136719 38.71710938 42.29773438 39.73046875 42.38671875 C42.15311603 42.59840638 44.57615667 42.80256279 47 43 C47 43.33 47 43.66 47 44 C41.72 44 36.44 44 31 44 C31 44.66 31 45.32 31 46 C31.66 46.33 32.32 46.66 33 47 C30.36 46.67 27.72 46.34 25 46 C25 45.34 25 44.68 25 44 C24.113125 43.91621094 23.22625 43.83242187 22.3125 43.74609375 C14.94463587 42.08658662 9.48085826 35.23806713 5.5625 29.0625 C0.31774358 19.39015883 -0.425454 10.93574353 0 0 Z " fill="#222221" transform="translate(50,107)"/>
<path d="M0 0 C2.00390625 1.30859375 2.00390625 1.30859375 3.4375 2.5625 C3.4375 3.2225 3.4375 3.8825 3.4375 4.5625 C-7.65493521 9.76277646 -14.31413336 7.53359824 -25.5625 3.5625 C-24.5625 0.5625 -24.5625 0.5625 -22.375 -0.640625 C-13.95591627 -3.77439505 -7.92924609 -4.67408191 0 0 Z " fill="#FCF3ED" transform="translate(100.5625,179.4375)"/>
<path d="M0 0 C4.19921466 -0.02476851 8.39839029 -0.04289246 12.59765625 -0.05493164 C14.02539816 -0.05995206 15.45313496 -0.06676972 16.88085938 -0.07543945 C18.93621079 -0.08760553 20.99149407 -0.09325128 23.046875 -0.09765625 C24.90070801 -0.10551147 24.90070801 -0.10551147 26.79199219 -0.11352539 C29.4145671 -0.02071737 31.51644594 0.21643327 34 1 C34 1.66 34 2.32 34 3 C30.51153178 5.14503684 27.75594122 5.23354662 23.703125 5.1953125 C21.89521484 5.18564453 21.89521484 5.18564453 20.05078125 5.17578125 C18.16939453 5.15064453 18.16939453 5.15064453 16.25 5.125 C14.98027344 5.11597656 13.71054688 5.10695313 12.40234375 5.09765625 C9.26803907 5.07409005 6.13411459 5.04118832 3 5 C2.71125 6.11375 2.4225 7.2275 2.125 8.375 C1 12 1 12 -1 14 C-2.32 14 -3.64 14 -5 14 C-4.54327934 10.46041487 -3.41463745 7.53269021 -1.953125 4.30859375 C-1.58864258 3.50091553 -1.22416016 2.6932373 -0.84863281 1.86108398 C-0.56858398 1.24692627 -0.28853516 0.63276855 0 0 Z " fill="#E7E7E7" transform="translate(94,61)"/>
<path d="M0 0 C1.65 0 3.3 0 5 0 C6.32 2.31 7.64 4.62 9 7 C9.38671875 6.4946875 9.7734375 5.989375 10.171875 5.46875 C10.95304688 4.49421875 10.95304688 4.49421875 11.75 3.5 C12.26046875 2.8503125 12.7709375 2.200625 13.296875 1.53125 C15 0 15 0 19 0 C19.37851209 5.93002267 18.10575375 10.47239641 16 16 C15.01 16 14.02 16 13 16 C13.33 13.69 13.66 11.38 14 9 C13.34 9 12.68 9 12 9 C11.7525 9.639375 11.505 10.27875 11.25 10.9375 C10 13 10 13 7.875 13.75 C6.946875 13.87375 6.946875 13.87375 6 14 C5.67 12.35 5.34 10.7 5 9 C4.34 9 3.68 9 3 9 C2.67 11.31 2.34 13.62 2 16 C0.68 16 -0.64 16 -2 16 C-1.42978066 10.6496441 -0.79265639 5.32212148 0 0 Z " fill="#1C1C1C" transform="translate(145,104)"/>
<path d="M0 0 C1.77049689 -0.05410687 3.54146849 -0.09284119 5.3125 -0.125 C6.29863281 -0.14820312 7.28476563 -0.17140625 8.30078125 -0.1953125 C11 0 11 0 14 2 C14.1875 5.625 14.1875 5.625 14 9 C13.01 9.495 13.01 9.495 12 10 C12 11.98 12 13.96 12 16 C10.35 16 8.7 16 7 16 C7 15.01 7 14.02 7 13 C5.68 12.67 4.36 12.34 3 12 C2.67 13.65 2.34 15.3 2 17 C0.68 17 -0.64 17 -2 17 C-2.04241723 14.66705225 -2.04092937 12.33297433 -2 10 C-1.67 9.67 -1.34 9.34 -1 9 C-0.76807135 7.48530552 -0.58784762 5.96245438 -0.4375 4.4375 C-0.35371094 3.61121094 -0.26992187 2.78492187 -0.18359375 1.93359375 C-0.12300781 1.29550781 -0.06242188 0.65742187 0 0 Z " fill="#1E1E1E" transform="translate(185,104)"/>
<path d="M0 0 C2.3125 -0.25 2.3125 -0.25 5 0 C6.8125 1.8125 6.8125 1.8125 8 4 C8 4.99 8 5.98 8 7 C8.66 7 9.32 7 10 7 C10.33 4.69 10.66 2.38 11 0 C12.32 0 13.64 0 15 0 C14.85890014 2.10448938 14.71195825 4.2085877 14.5625 6.3125 C14.48128906 7.48425781 14.40007812 8.65601562 14.31640625 9.86328125 C14 13 14 13 13 16 C10.6875 16.3125 10.6875 16.3125 8 16 C6.18116991 13.6167054 5 12.04181663 5 9 C4.34 9 3.68 9 3 9 C2.67 11.31 2.34 13.62 2 16 C0.35 16 -1.3 16 -3 16 C-2.57910004 10.39538469 -2.08386889 5.27913453 0 0 Z " fill="#1F1F1F" transform="translate(159,83)"/>
<path d="M0 0 C2.25 -0.375 2.25 -0.375 5 0 C9 4.97297297 9 4.97297297 9 8 C9.66 8 10.32 8 11 8 C11 5.36 11 2.72 11 0 C12.32 0 13.64 0 15 0 C15.20674944 5.78898419 14.59162079 10.42932723 13 16 C11.68 16 10.36 16 9 16 C5 10.88888889 5 10.88888889 5 8 C4.34 8 3.68 8 3 8 C3 10.31 3 12.62 3 15 C1.35 15.33 -0.3 15.66 -2 16 C-1.85764543 14.27054347 -1.71095618 12.54144346 -1.5625 10.8125 C-1.48128906 9.84957031 -1.40007812 8.88664062 -1.31640625 7.89453125 C-1.02333849 5.21350398 -0.57296246 2.6337014 0 0 Z " fill="#171717" transform="translate(214,83)"/>
<path d="M0 0 C2.0625 0.4375 2.0625 0.4375 4 1 C4.38218767 2.65614657 4.71395102 4.32457024 5 6 C4 7 4 7 1.22436523 7.02172852 C-0.59019165 6.95103149 -0.59019165 6.95103149 -2.44140625 6.87890625 C-3.74658203 6.83056641 -5.05175781 6.78222656 -6.39648438 6.73242188 C-7.78516075 6.67589169 -9.17383257 6.61924959 -10.5625 6.5625 C-11.95506021 6.50929453 -13.34763826 6.45655404 -14.74023438 6.40429688 C-18.16035981 6.27411909 -21.58022924 6.1391382 -25 6 C-25.66 8.31 -26.32 10.62 -27 13 C-27.66 12.01 -28.32 11.02 -29 10 C-29.66 10.66 -30.32 11.32 -31 12 C-34.125 12.125 -34.125 12.125 -37 12 C-36.67 11.01 -36.34 10.02 -36 9 C-36 9.66 -36 10.32 -36 11 C-33.54368999 10.50452457 -33.54368999 10.50452457 -31 9 C-29.93030823 6.69778282 -28.92363097 4.36460362 -28 2 C-26.78098999 1.96241577 -26.78098999 1.96241577 -25.53735352 1.92407227 C-21.87889248 1.80850882 -18.22071472 1.68560416 -14.5625 1.5625 C-13.28310547 1.52318359 -12.00371094 1.48386719 -10.68554688 1.44335938 C-8.86313477 1.38051758 -8.86313477 1.38051758 -7.00390625 1.31640625 C-5.87799072 1.27974854 -4.7520752 1.24309082 -3.59204102 1.20532227 C-1.07146559 1.28781955 -1.07146559 1.28781955 0 0 Z " fill="#1A1A1A" transform="translate(125,64)"/>
<path d="M0 0 C1.32 0.33 2.64 0.66 4 1 C4 1.99 4 2.98 4 4 C4.66 4.33 5.32 4.66 6 5 C4.91332031 5.81791016 4.91332031 5.81791016 3.8046875 6.65234375 C-5.80980189 14.15164547 -12.68662592 22.0713562 -14.33154297 34.50634766 C-14.51112484 37.02682064 -14.61891645 39.5366658 -14.6875 42.0625 C-14.73874023 43.3609082 -14.73874023 43.3609082 -14.79101562 44.68554688 C-14.87240114 46.78994387 -14.93789769 48.8949457 -15 51 C-18.92512792 47.07487208 -18.305499 42.2305737 -18.31689453 36.97216797 C-18.12772092 27.2028691 -14.36433774 18.39039655 -8 11 C-5.13228316 8.46082682 -2.14982249 6.17687732 1 4 C0.67 2.68 0.34 1.36 0 0 Z " fill="#EFDDD3" transform="translate(65,75)"/>
<path d="M0 0 C0.99 5.28 1.98 10.56 3 16 C1.35 16 -0.3 16 -2 16 C-2 15.01 -2 14.02 -2 13 C-4.64 13 -7.28 13 -10 13 C-10 13.99 -10 14.98 -10 16 C-11.65 16 -13.3 16 -15 16 C-13.9851989 11.71528425 -12.1111369 8.29440481 -9.75 4.625 C-9.18796875 3.75101562 -8.6259375 2.87703125 -8.046875 1.9765625 C-6 0 -6 0 0 0 Z " fill="#191919" transform="translate(152,83)"/>
<path d="M0 0 C1.32 0 2.64 0 4 0 C4.08159574 4.16138263 3.98248524 7.9472484 3 12 C4.32 12 5.64 12 7 12 C7.99 8.04 8.98 4.08 10 0 C11.65 0 13.3 0 15 0 C14.33424668 5.00190982 13.67157537 9.62998624 11.4375 14.1875 C8.22758253 16.57436171 5.93566621 16.48157197 2.0234375 16.37109375 C0 16 0 16 -2 14 C-2.40435072 8.84452833 -1.57849109 4.83412897 0 0 Z " fill="#252525" transform="translate(168,104)"/>
<path d="M0 0 C1.65 0 3.3 0 5 0 C4.67 3.63 4.34 7.26 4 11 C5.32 11 6.64 11 8 11 C8.66 7.7 9.32 4.4 10 1 C11.65 0.67 13.3 0.34 15 0 C15.4992298 6.24037253 15.24142184 10.01009196 11 15 C8.78704384 16.10647808 7.45327301 16.19588368 5 16.25 C4.29875 16.27578125 3.5975 16.3015625 2.875 16.328125 C2.25625 16.21984375 1.6375 16.1115625 1 16 C-1.08962236 12.86556646 -1.25367554 12.12996308 -1.1875 8.5625 C-1.18105469 7.80066406 -1.17460937 7.03882812 -1.16796875 6.25390625 C-1.00451771 4.06062143 -0.60116513 2.11129193 0 0 Z " fill="#1E1E1E" transform="translate(196,83)"/>
<path d="M0 0 C0.33 1.65 0.66 3.3 1 5 C-1.97 5 -4.94 5 -8 5 C-7.67 6.98 -7.34 8.96 -7 11 C-5.35 11.33 -3.7 11.66 -2 12 C-2 10.68 -2 9.36 -2 8 C-0.68 8 0.64 8 2 8 C2.1875 10.875 2.1875 10.875 2 14 C-2.00937908 16.67291939 -5.28930205 16.69300771 -10 16 C-12.0625 14.4375 -12.0625 14.4375 -13 12 C-13.51042042 7.98955382 -13.34447773 5.70393276 -11.5625 2.0625 C-7.85142217 -0.92446508 -4.59138561 -0.44147939 0 0 Z " fill="#252525" transform="translate(244,83)"/>
<path d="M0 0 C5.61 0 11.22 0 17 0 C14 4 14 4 12.25 4.75 C9.15774855 5.09358349 6.10779654 5.05976532 3 5 C2.67 6.65 2.34 8.3 2 10 C4.31 10 6.62 10 9 10 C6.5428064 11.5471219 5.367721 12.04484402 2.4375 11.6875 C0.61098388 11.17232879 -1.19960942 10.60013019 -3 10 C-5.6569191 10.87914688 -5.6569191 10.87914688 -8 12 C-8.125 6.25 -8.125 6.25 -7 4 C-4.69 4 -2.38 4 0 4 C0 2.68 0 1.36 0 0 Z " fill="#E8734F" transform="translate(82,165)"/>
<path d="M0 0 C8.66666667 0 8.66666667 0 13 1 C14 2 14 2 14.1875 4.875 C14 8 14 8 12 11 C9.83125748 10.49396008 8.00032373 10.00016187 6 9 C6 9.66 6 10.32 6 11 C3.36 11 0.72 11 -2 11 C-1.52797514 6.75177626 0.96655518 4.80010291 4 2 C2.35 2.66 0.7 3.32 -1 4 C-0.67 2.68 -0.34 1.36 0 0 Z " fill="#939393" transform="translate(201,170)"/>
<path d="M0 0 C0 0.66 0 1.32 0 2 C-0.83660156 2.31710938 -1.67320313 2.63421875 -2.53515625 2.9609375 C-17.4006961 8.92032335 -33.05527207 18.17621929 -42.703125 31.3203125 C-43.13109375 31.87460937 -43.5590625 32.42890625 -44 33 C-44.66 33 -45.32 33 -46 33 C-46.25007813 33.54011719 -46.50015625 34.08023438 -46.7578125 34.63671875 C-48.26939047 37.51251961 -50.04752327 40.12645401 -51.875 42.8125 C-54.77826667 47.12517067 -57.51133535 51.43744814 -60 56 C-61 53 -61 53 -60.35546875 51.1953125 C-56.25907098 43.93413919 -51.21176636 37.47771592 -46 31 C-45.38898437 30.23171875 -44.77796875 29.4634375 -44.1484375 28.671875 C-35.75261992 18.56506142 -14.21323822 0 0 0 Z " fill="#F2F3F2" transform="translate(101,22)"/>
<path d="M0 0 C1.4454624 4.33638721 -0.55124442 7.09560362 -2.4375 11 C-2.79714844 11.75659912 -3.15679687 12.51319824 -3.52734375 13.29272461 C-6.69196835 19.75451993 -10.45726966 25.40615918 -15 31 C-15.66 30.67 -16.32 30.34 -17 30 C-16.35933594 29.09121094 -15.71867188 28.18242187 -15.05859375 27.24609375 C-9.01895994 18.52360827 -4.17571201 9.74793697 0 0 Z M-20 33 C-19.505 34.485 -19.505 34.485 -19 36 C-25.67853262 43.19314557 -32.43859134 49.69473511 -40.5625 55.25 C-41.57957031 55.94766479 -41.57957031 55.94766479 -42.6171875 56.65942383 C-45.71239369 58.71371962 -48.3677183 60.243047 -52 61 C-48.99016648 57.57501703 -45.99077231 55.3233587 -42.0625 53 C-37.01074842 49.88911211 -32.75560837 46.28313441 -28.4375 42.25 C-27.8297876 41.6828125 -27.2220752 41.115625 -26.59594727 40.53125 C-24.03014336 38.09074013 -21.98050045 35.97075068 -20 33 Z " fill="#F2F2F2" transform="translate(244,165)"/>
<path d="M0 0 C4.62 0 9.24 0 14 0 C14 1.32 14 2.64 14 4 C12.35 4 10.7 4 9 4 C8.95101562 4.60328125 8.90203125 5.2065625 8.8515625 5.828125 C8.77679688 6.62734375 8.70203125 7.4265625 8.625 8.25 C8.55539063 9.03890625 8.48578125 9.8278125 8.4140625 10.640625 C7.98492887 13.085877 7.21399362 14.84836903 6 17 C4.68 17 3.36 17 2 17 C2.33 12.71 2.66 8.42 3 4 C2.01 4 1.02 4 0 4 C0 2.68 0 1.36 0 0 Z " fill="#292929" transform="translate(122,104)"/>
<path d="M0 0 C7.26 0 14.52 0 22 0 C21.67 0.99 21.34 1.98 21 3 C20.34 3 19.68 3 19 3 C19.66 4.98 20.32 6.96 21 9 C18.23723823 8.47731534 15.6739124 7.89130413 13 7 C13 6.34 13 5.68 13 5 C9.37 5.66 5.74 6.32 2 7 C2 5.35 2 3.7 2 2 C1.34 2 0.68 2 0 2 C0 1.34 0 0.68 0 0 Z " fill="#F13D07" transform="translate(82,187)"/>
<path d="M0 0 C1.41805831 0.28482368 2.83440379 0.57818144 4.25 0.875 C5.03890625 1.03742188 5.8278125 1.19984375 6.640625 1.3671875 C8.96831144 1.99150075 10.89031952 2.84838542 13 4 C13 4.66 13 5.32 13 6 C10.75083381 6.81487171 8.50073022 7.62696918 6.25 8.4375 C5.61578125 8.66759766 4.9815625 8.89769531 4.328125 9.13476562 C1.24587924 10.24244769 -1.79836438 11.29661036 -5 12 C-4.43244703 8.02712922 -3.17597408 5.3546267 -1 2 C-0.67 1.34 -0.34 0.68 0 0 Z " fill="#FCEEE5" transform="translate(69,186)"/>
<path d="M0 0 C0.6875 1.8125 0.6875 1.8125 1 4 C-0.25 5.4375 -0.25 5.4375 -2 7 C-2.67095703 8.14855469 -2.67095703 8.14855469 -3.35546875 9.3203125 C-5.02758141 12.04494263 -6.86079045 14.12879148 -9.0625 16.4375 C-12.1250552 19.79788167 -14.06510965 22.44240953 -15 27 C-15.66 26.01 -16.32 25.02 -17 24 C-17.33 24.66 -17.66 25.32 -18 26 C-18.66 26 -19.32 26 -20 26 C-17.41481496 17.01713482 -11.42552118 10.39187232 -3.6640625 5.3515625 C-1.72176354 3.77401452 -0.96283433 2.28551584 0 0 Z " fill="#262626" transform="translate(72,76)"/>
<path d="M0 0 C0.66 0 1.32 0 2 0 C2.69586122 4.52309794 1.70561499 6.74223169 -0.875 10.3125 C-3.68187492 14.19742524 -4.84509682 17.32752035 -5.48046875 22.0546875 C-6.12080135 24.45232384 -7.20303991 25.33700352 -9 27 C-9.70710678 28.64991582 -10.37943989 30.31562256 -11 32 C-11.495 32.495 -11.495 32.495 -12 33 C-11.71269945 35.33944736 -11.38063221 37.6739143 -11 40 C-9.35 40.66 -7.7 41.32 -6 42 C-7.32 42.66 -8.64 43.32 -10 44 C-12.5 42.375 -12.5 42.375 -15 40 C-15.84778453 35.12523895 -14.28893008 32.2387594 -12 28 C-11.55527344 26.78570312 -11.11054687 25.57140625 -10.65234375 24.3203125 C-9.04387294 19.95267638 -7.01677113 15.87663595 -4.875 11.75 C-4.16026045 10.37175672 -3.44918941 8.99160345 -2.7421875 7.609375 C-2.4313623 7.01092773 -2.12053711 6.41248047 -1.80029297 5.79589844 C-0.95042512 3.88875143 -0.44869575 2.03565589 0 0 Z " fill="#E15B38" transform="translate(69,161)"/>
<path d="M0 0 C0.68964844 0.39832031 1.37929688 0.79664063 2.08984375 1.20703125 C11.29406191 6.39624067 18.23854447 9.23457024 28.8125 9.3125 C29.9255249 9.32095947 29.9255249 9.32095947 31.06103516 9.32958984 C34.9333089 9.2776071 37.64882309 8.92255727 41 7 C43.33203812 6.9222654 45.66839059 6.91032272 48 7 C47.67 8.32 47.34 9.64 47 11 C46.46375 10.79375 45.9275 10.5875 45.375 10.375 C42.91530514 9.79088966 42.91530514 9.79088966 40.36328125 10.953125 C36.46537568 12.16641036 32.8557997 12.38227294 28.8125 12.375 C28.06943604 12.37628906 27.32637207 12.37757813 26.56079102 12.37890625 C20.16897298 12.25717051 14.7726285 10.79280515 9 8 C9 7.34 9 6.68 9 6 C8.236875 5.855625 7.47375 5.71125 6.6875 5.5625 C4 5 4 5 1 4 C0.3125 1.9375 0.3125 1.9375 0 0 Z " fill="#E44E22" transform="translate(61,148)"/>
<path d="M0 0 C1.32 0 2.64 0 4 0 C3.67 6.6 3.34 13.2 3 20 C2.34 19.34 1.68 18.68 1 18 C0.67 22.29 0.34 26.58 0 31 C-4.60833049 21.78333902 -1.50871437 9.86052608 0 0 Z " fill="#F4F4F0" transform="translate(29,104)"/>
<path d="M0 0 C0.66 0.33 1.32 0.66 2 1 C2 2.98 2 4.96 2 7 C0.35 7.33 -1.3 7.66 -3 8 C-0.36 9.32 2.28 10.64 5 12 C3 13 3 13 1.02880859 12.47094727 C0.24328613 12.17244873 -0.54223633 11.8739502 -1.3515625 11.56640625 C-2.62773438 11.0878418 -2.62773438 11.0878418 -3.9296875 10.59960938 C-4.81914063 10.25736328 -5.70859375 9.91511719 -6.625 9.5625 C-7.5221875 9.22412109 -8.419375 8.88574219 -9.34375 8.53710938 C-11.56516661 7.69817012 -13.78365271 6.8522225 -16 6 C-14.68 5.67 -13.36 5.34 -12 5 C-12.66 3.68 -13.32 2.36 -14 1 C-12.24859857 1.45294865 -10.49892656 1.91258748 -8.75 2.375 C-7.28820312 2.75785156 -7.28820312 2.75785156 -5.796875 3.1484375 C-3.34162697 3.89598509 -1.24382595 4.77123817 1 6 C0.67 4.02 0.34 2.04 0 0 Z " fill="#E55022" transform="translate(115,191)"/>
<path d="M0 0 C10.56 0 21.12 0 32 0 C29 3 29 3 26.27270508 3.34057617 C25.19915771 3.32486572 24.12561035 3.30915527 23.01953125 3.29296875 C21.85615234 3.28330078 20.69277344 3.27363281 19.49414062 3.26367188 C18.27919922 3.23853516 17.06425781 3.21339844 15.8125 3.1875 C14.58595703 3.17396484 13.35941406 3.16042969 12.09570312 3.14648438 C9.06336336 3.11108741 6.03190004 3.0617076 3 3 C3 2.34 3 1.68 3 1 C2.01 1.33 1.02 1.66 0 2 C0 1.34 0 0.68 0 0 Z " fill="#060606" transform="translate(92,57)"/>
<path d="M0 0 C2.02201431 3.20733304 3 5.19154436 3 9 C-0.35867712 8.24029922 -3.52123658 7.12906745 -6.75 5.9375 C-7.73484375 5.57527344 -8.7196875 5.21304688 -9.734375 4.83984375 C-10.48203125 4.56269531 -11.2296875 4.28554687 -12 4 C-12 3.34 -12 2.68 -12 2 C-4.03395586 -1.9049236 -4.03395586 -1.9049236 0 0 Z " fill="#FCF7F0" transform="translate(113,188)"/>
<path d="M0 0 C1.23593891 3.70781672 0.5678132 4.67510253 -0.9375 8.1875 C-1.31777344 9.08855469 -1.69804688 9.98960938 -2.08984375 10.91796875 C-2.39019531 11.60503906 -2.69054687 12.29210937 -3 13 C-2.34 13.33 -1.68 13.66 -1 14 C-1.33 14.99 -1.66 15.98 -2 17 C-5.4375 18.625 -5.4375 18.625 -9 20 C-9.66 20.33 -10.32 20.66 -11 21 C-10.42655063 18.13275314 -10.1385485 17.1385485 -8 15 C-7.44471389 13.56180897 -6.95062801 12.09933731 -6.5 10.625 C-4.06451613 2.70967742 -4.06451613 2.70967742 0 0 Z " fill="#0B0B0A" transform="translate(80,65)"/>
<path d="M0 0 C1.32 0 2.64 0 4 0 C3.96519531 0.84304687 3.93039063 1.68609375 3.89453125 2.5546875 C3.86746094 3.65039062 3.84039062 4.74609375 3.8125 5.875 C3.77769531 6.96554688 3.74289063 8.05609375 3.70703125 9.1796875 C3.80371094 10.11039063 3.90039062 11.04109375 4 12 C4.99 12.66 5.98 13.32 7 14 C6 15 6 15 2.5 15.125 C-1 15 -1 15 -2 14 C-2.31046812 8.8255313 -1.58455205 4.85269066 0 0 Z " fill="#1C1C1C" transform="translate(168,104)"/>
<path d="M0 0 C0.99 0 1.98 0 3 0 C3 0.66 3 1.32 3 2 C3.969375 1.979375 4.93875 1.95875 5.9375 1.9375 C9 2 9 2 10 3 C10.04092937 5.33297433 10.04241723 7.66705225 10 10 C9.34 10 8.68 10 8 10 C8 8.02 8 6.04 8 4 C7.34 4 6.68 4 6 4 C6 6.31 6 8.62 6 11 C4.02 11 2.04 11 0 11 C0 7.37 0 3.74 0 0 Z " fill="#959595" transform="translate(169,170)"/>
<path d="M0 0 C0.66 0.33 1.32 0.66 2 1 C0.49637741 4.78716158 -1.05487001 8.55245187 -2.625 12.3125 C-3.07101563 13.38113281 -3.51703125 14.44976562 -3.9765625 15.55078125 C-4.48316406 16.76314453 -4.48316406 16.76314453 -5 18 C-5.66 17.34 -6.32 16.68 -7 16 C-7.99 16.66 -8.98 17.32 -10 18 C-9.34 15.69 -8.68 13.38 -8 11 C-7.34 11 -6.68 11 -6 11 C-5.938125 10.113125 -5.87625 9.22625 -5.8125 8.3125 C-4.81828945 4.25918008 -3.09898876 2.70168251 0 0 Z " fill="#2F2F2F" transform="translate(103,85)"/>
<path d="M0 0 C0 0.66 0 1.32 0 2 C-1.32 2 -2.64 2 -4 2 C-3.67 3.98 -3.34 5.96 -3 8 C-6.96 7.67 -10.92 7.34 -15 7 C-15 5.02 -15 3.04 -15 1 C-13.14375 1.0309375 -13.14375 1.0309375 -11.25 1.0625 C-7.36718126 1.069348 -3.83521477 0 0 0 Z " fill="#ED4010" transform="translate(99,168)"/>
<path d="M0 0 C1.32 0.66 2.64 1.32 4 2 C3.41296528 5.6383251 2.44276618 8.51118068 0.6875 11.75 C0.27886719 12.52859375 -0.12976563 13.3071875 -0.55078125 14.109375 C-2 16 -2 16 -4.16796875 16.765625 C-4.77253906 16.84296875 -5.37710938 16.9203125 -6 17 C-5.49487476 10.77012202 -2.67395877 5.54525767 0 0 Z " fill="#2A2A2A" transform="translate(84,50)"/>
<path d="M0 0 C2 0.3125 2 0.3125 4 1 C4.33 1.66 4.66 2.32 5 3 C3.68 3 2.36 3 1 3 C1 3.99 1 4.98 1 6 C1.66 6.33 2.32 6.66 3 7 C3 6.34 3 5.68 3 5 C5.25 2.3125 5.25 2.3125 8 0 C10.3125 0.1875 10.3125 0.1875 12 1 C12.33 2.32 12.66 3.64 13 5 C12.34 5 11.68 5 11 5 C11 4.01 11 3.02 11 2 C10.01 2 9.02 2 8 2 C8 3.65 8 5.3 8 7 C9.32 6.67 10.64 6.34 12 6 C11.67 6.99 11.34 7.98 11 9 C9.39125 8.7215625 9.39125 8.7215625 7.75 8.4375 C4.59608454 8.0695432 2.90181508 7.95534657 0 9 C-2 6 -2 6 -1.6875 3.375 C-1 1 -1 1 0 0 Z " fill="#707070" transform="translate(182,172)"/>
<path d="M0 0 C1.48777118 2.85756932 2.68399073 5.73423905 3.8125 8.75 C5.69924531 13.54874091 8.10164003 17.74748824 11 22 C10.01 22 9.02 22 8 22 C8 21.34 8 20.68 8 20 C7.01 20 6.02 20 5 20 C2 15.77777778 2 15.77777778 2 13 C1.34 13 0.68 13 0 13 C-0.39036513 11.39950296 -0.76178619 9.79437629 -1.125 8.1875 C-1.33382812 7.29417969 -1.54265625 6.40085937 -1.7578125 5.48046875 C-2 3 -2 3 0 0 Z " fill="#E0D8D1" transform="translate(50,121)"/>
<path d="M0 0 C0.33 1.32 0.66 2.64 1 4 C0.01 4.495 0.01 4.495 -1 5 C-0.34 5.66 0.32 6.32 1 7 C-7.64024562 9.513526 -16.08810018 9.18417244 -25 9 C-25.33 8.34 -25.66 7.68 -26 7 C-24.92621094 6.96261719 -23.85242188 6.92523438 -22.74609375 6.88671875 C-21.3098638 6.82100888 -19.87366738 6.75456332 -18.4375 6.6875 C-17.73302734 6.66494141 -17.02855469 6.64238281 -16.30273438 6.61914062 C-11.20776593 6.36087034 -7.62208114 5.13107079 -3 3 C-2.01 3 -1.02 3 0 3 C0 2.01 0 1.02 0 0 Z " fill="#E8E0D9" transform="translate(107,148)"/>
<path d="M0 0 C1.32 0 2.64 0 4 0 C3.85890014 2.10448938 3.71195825 4.2085877 3.5625 6.3125 C3.48128906 7.48425781 3.40007812 8.65601562 3.31640625 9.86328125 C3 13 3 13 2 16 C0.68 16 -0.64 16 -2 16 C-1.34 10.72 -0.68 5.44 0 0 Z " fill="#151515" transform="translate(138,104)"/>
<path d="M0 0 C1.67542976 0.28604898 3.34385343 0.61781233 5 1 C5 3.97 5 6.94 5 10 C2.625 10.625 2.625 10.625 0 11 C-2 9 -2 9 -2.01171875 7.08984375 C-1.11111111 1.11111111 -1.11111111 1.11111111 0 0 Z " fill="#818181" transform="translate(225,170)"/>
<path d="M0 0 C0.66 0 1.32 0 2 0 C1.67 1.65 1.34 3.3 1 5 C4.84587594 4.60756368 8.18195178 4.04610654 11.6875 2.4375 C15 1 15 1 19 1 C19 1.66 19 2.32 19 3 C17.02 3.33 15.04 3.66 13 4 C12.67 4.99 12.34 5.98 12 7 C9.49609375 7.94921875 9.49609375 7.94921875 6.4375 8.6875 C4.91962891 9.06455078 4.91962891 9.06455078 3.37109375 9.44921875 C2.58863281 9.63097656 1.80617188 9.81273437 1 10 C1.33 9.01 1.66 8.02 2 7 C1.34 7 0.68 7 0 7 C0 4.69 0 2.38 0 0 Z " fill="#E55126" transform="translate(63,193)"/>
<path d="M0 0 C1.95803507 -0.05389087 3.91648909 -0.09274217 5.875 -0.125 C7.51082031 -0.15980469 7.51082031 -0.15980469 9.1796875 -0.1953125 C12 0 12 0 14 2 C13.625 5.625 13.625 5.625 13 9 C12.34 8.67 11.68 8.34 11 8 C11 7.34 11 6.68 11 6 C8.69 6 6.38 6 4 6 C4.33 4.68 4.66 3.36 5 2 C3.68 1.67 2.36 1.34 1 1 C0.67 1.99 0.34 2.98 0 4 C0 2.68 0 1.36 0 0 Z " fill="#424242" transform="translate(123,83)"/>
<path d="M0 0 C2.20970874 2.89548041 3 4.33157745 3 8 C-1.03520597 6.41037341 -5.01811282 4.71767682 -9 3 C-8.67 2.01 -8.34 1.02 -8 0 C-4.62848454 -1.12383849 -3.31972498 -1.16190374 0 0 Z " fill="#FBDDD0" transform="translate(105,171)"/>
<path d="M0 0 C0.30017023 4.16486198 -0.54675054 6.65015727 -2.5 10.3125 C-2.9640625 11.19550781 -3.428125 12.07851562 -3.90625 12.98828125 C-4.2671875 13.65214844 -4.628125 14.31601563 -5 15 C-6 13 -6 13 -6 10 C-6.66 10 -7.32 10 -8 10 C-5.54716981 0 -5.54716981 0 0 0 Z " fill="#3A3A3A" transform="translate(115,85)"/>
<path d="M0 0 C0 1.32 0 2.64 0 4 C-1.32 4 -2.64 4 -4 4 C-4 5.32 -4 6.64 -4 8 C-5.66611905 8.042721 -7.33382885 8.04063832 -9 8 C-10 7 -10 7 -10.0625 3.9375 C-10.041875 2.968125 -10.02125 1.99875 -10 1 C-6.52674819 -0.1577506 -3.63932552 -0.06866652 0 0 Z " fill="#E4E4E4" transform="translate(246,87)"/>
<path d="M0 0 C1.32 0 2.64 0 4 0 C4 1.65 4 3.3 4 5 C5.670625 4.9690625 5.670625 4.9690625 7.375 4.9375 C11 5 11 5 13 6 C12.67 7.32 12.34 8.64 12 10 C11.34 9.01 10.68 8.02 10 7 C5.545 7.495 5.545 7.495 1 8 C1 7.67 1 7.34 1 7 C-1.97 7 -4.94 7 -8 7 C-5.80202597 4.80202597 -4.82453855 4.54102483 -1.875 3.875 C-0.59625 3.58625 0.6825 3.2975 2 3 C2 2.34 2 1.68 2 1 C1.34 0.67 0.68 0.34 0 0 Z " fill="#E5643D" transform="translate(102,181)"/>
<path d="M0 0 C2.625 0.375 2.625 0.375 5 1 C5.33 1.99 5.66 2.98 6 4 C4.35 3.67 2.7 3.34 1 3 C0.67 3.66 0.34 4.32 0 5 C2.97 5.495 2.97 5.495 6 6 C5.67 7.65 5.34 9.3 5 11 C3.35 11.33 1.7 11.66 0 12 C-0.66 10.68 -1.32 9.36 -2 8 C-1.34 8 -0.68 8 0 8 C0 8.66 0 9.32 0 10 C1.32 10 2.64 10 4 10 C4 9.01 4 8.02 4 7 C2.35 6.67 0.7 6.34 -1 6 C-1.625 4.125 -1.625 4.125 -2 2 C-1.34 1.34 -0.68 0.68 0 0 Z " fill="#6B6B6B" transform="translate(162,169)"/>
<path d="M0 0 C2.375 -0.1875 2.375 -0.1875 5 0 C7.62113109 3.93169664 6.88205685 5.60310018 6.125 10.1875 C5.92132813 11.45980469 5.71765625 12.73210937 5.5078125 14.04296875 C5.34023437 15.01878906 5.17265625 15.99460937 5 17 C6.65 16.67 8.3 16.34 10 16 C10 16.66 10 17.32 10 18 C8.02 18 6.04 18 4 18 C3.67 17.01 3.34 16.02 3 15 C2.01 15 1.02 15 0 15 C0.474375 14.360625 0.94875 13.72125 1.4375 13.0625 C3.47031387 9.07818481 3.7210529 5.41505926 4 1 C2.68 0.67 1.36 0.34 0 0 Z " fill="#C6C6C6" transform="translate(207,82)"/>
<path d="M0 0 C1.99954746 -0.04254356 4.00041636 -0.04080783 6 0 C7 1 7 1 7.25 3.4375 C7.1675 4.283125 7.085 5.12875 7 6 C4 8 4 8 0 8 C0 5.36 0 2.72 0 0 Z " fill="#E5E5E5" transform="translate(181,87)"/>
<path d="M0 0 C7.26 0.33 14.52 0.66 22 1 C22 1.33 22 1.66 22 2 C16.72 2 11.44 2 6 2 C6 2.66 6 3.32 6 4 C6.66 4.33 7.32 4.66 8 5 C5.36 4.67 2.72 4.34 0 4 C0 2.68 0 1.36 0 0 Z " fill="#4D4C4D" transform="translate(75,149)"/>
<path d="M0 0 C3.63 0.66 7.26 1.32 11 2 C10.67 2.66 10.34 3.32 10 4 C15.28 4.33 20.56 4.66 26 5 C26 5.33 26 5.66 26 6 C23.31222198 6.0544207 20.62556788 6.09387266 17.9375 6.125 C17.18533203 6.14175781 16.43316406 6.15851563 15.65820312 6.17578125 C10.72281471 6.21851189 6.60313697 5.86471026 2 4 C1.34 2.68 0.68 1.36 0 0 Z " fill="#F2C6B7" transform="translate(72,152)"/>
<path d="M0 0 C2.475 0.495 2.475 0.495 5 1 C5.72868956 4.00584443 5.99123219 6.5085332 5.9375 9.625 C5.69905398 13.13271366 5.69905398 13.13271366 8 16 C7.21625 15.79375 6.4325 15.5875 5.625 15.375 C4.75875 15.25125 3.8925 15.1275 3 15 C2.34 15.66 1.68 16.32 1 17 C1.66 11.72 2.32 6.44 3 1 C2.01 0.67 1.02 0.34 0 0 Z " fill="#B9B9B9" transform="translate(226,82)"/>
<path d="M0 0 C1.81495662 0.44850658 3.62693134 0.90909571 5.4375 1.375 C6.95150391 1.75785156 6.95150391 1.75785156 8.49609375 2.1484375 C11 3 11 3 12 5 C9.69 5 7.38 5 5 5 C6.65 5.99 8.3 6.98 10 8 C8 9 8 9 5.6171875 8.22265625 C4.71226563 7.83980469 3.80734375 7.45695313 2.875 7.0625 C1.96492188 6.68222656 1.05484375 6.30195313 0.1171875 5.91015625 C-0.93082031 5.45962891 -0.93082031 5.45962891 -2 5 C-0.68 4.67 0.64 4.34 2 4 C1.34 2.68 0.68 1.36 0 0 Z " fill="#E36743" transform="translate(101,192)"/>
<path d="M0 0 C1.65 0 3.3 0 5 0 C5.33 1.32 5.66 2.64 6 4 C6.66 3.01 7.32 2.02 8 1 C7.39174965 5.34464536 6.73832608 9.67551867 6 14 C5.34 13.67 4.68 13.34 4 13 C3.01 14.32 2.02 15.64 1 17 C1.19916016 16.14728516 1.19916016 16.14728516 1.40234375 15.27734375 C2.4884758 10.52848903 3.38312382 5.83219676 4 1 C2.68 0.67 1.36 0.34 0 0 Z " fill="#AEAEAE" transform="translate(160,103)"/>
<path d="M0 0 C12.54 0 25.08 0 38 0 C38 0.33 38 0.66 38 1 C36.92516357 1.02505615 35.85032715 1.0501123 34.74291992 1.07592773 C30.75646978 1.17007495 26.77019091 1.27027785 22.78393555 1.37231445 C21.05839035 1.41563562 19.33280307 1.45731273 17.60717773 1.49731445 C15.12731236 1.55508526 12.64765828 1.61876003 10.16796875 1.68359375 C9.39599655 1.70030624 8.62402435 1.71701874 7.82865906 1.73423767 C4.64817067 1.82227895 2.03764416 1.98745195 -1 3 C-0.67 2.01 -0.34 1.02 0 0 Z " fill="#494949" transform="translate(86,47)"/>
<path d="M0 0 C4.95 0 9.9 0 15 0 C14.67 0.99 14.34 1.98 14 3 C12.04174127 3.02694851 10.08337774 3.04637218 8.125 3.0625 C7.03445312 3.07410156 5.94390625 3.08570313 4.8203125 3.09765625 C2 3 2 3 0 2 C0 1.34 0 0.68 0 0 Z " fill="#050506" transform="translate(81,151)"/>
<path d="M0 0 C1.23593891 3.70781672 0.5678132 4.67510253 -0.9375 8.1875 C-1.31777344 9.08855469 -1.69804688 9.98960938 -2.08984375 10.91796875 C-2.39019531 11.60503906 -2.69054687 12.29210937 -3 13 C-3.66 12.34 -4.32 11.68 -5 11 C-5.99 11.495 -5.99 11.495 -7 12 C-4.03846154 2.69230769 -4.03846154 2.69230769 0 0 Z " fill="#181818" transform="translate(80,65)"/>
<path d="M0 0 C2 2 2 2 2.25 5.1875 C1.98913553 9.16568315 1.23018014 12.23257332 0 16 C-1.546875 14.8125 -1.546875 14.8125 -3 13 C-2.890625 10.625 -2.890625 10.625 -2.25 8 C-2.04890625 7.13375 -1.8478125 6.2675 -1.640625 5.375 C-1.15277102 3.56637063 -0.59238009 1.77714027 0 0 Z " fill="#CCCCCC" transform="translate(183,104)"/>
<path d="M0 0 C1.65 0 3.3 0 5 0 C5 1.98 5 3.96 5 6 C5.66 6 6.32 6 7 6 C6.34 9.63 5.68 13.26 5 17 C2.24894392 11.49788784 2.56998744 6.89880179 4 1 C2.68 0.67 1.36 0.34 0 0 Z " fill="#D9D9D9" transform="translate(170,82)"/>
<path d="M0 0 C0.66 0 1.32 0 2 0 C2.86322824 5.61098356 0.66622161 8.50302821 -2.4921875 12.8515625 C-3.8892006 14.84212521 -4.97462398 16.79992135 -6 19 C-6.33 18.34 -6.66 17.68 -7 17 C-6.12122268 14.84088486 -5.14673108 12.72025497 -4.125 10.625 C-1.58010822 5.48187029 -1.58010822 5.48187029 0 0 Z " fill="#E25329" transform="translate(69,161)"/>
<path d="M0 0 C1.13732426 3.40401948 0.83989957 5.77456664 0.0625 9.25 C-0.13214844 10.14203125 -0.32679687 11.0340625 -0.52734375 11.953125 C-0.68332031 12.62859375 -0.83929688 13.3040625 -1 14 C-1.99 13.34 -2.98 12.68 -4 12 C-4.4375 5.875 -4.4375 5.875 -3 3 C-2.34 3 -1.68 3 -1 3 C-0.67 2.01 -0.34 1.02 0 0 Z " fill="#101110" transform="translate(55,99)"/>
<path d="M0 0 C0.95465783 2.16967689 1.14401212 3.56328793 0.3984375 5.82421875 C-0.35870385 7.5684743 -1.17609198 9.28627131 -2 11 C-3.32 10.67 -4.64 10.34 -6 10 C-2.62068966 1.31034483 -2.62068966 1.31034483 0 0 Z " fill="#181818" transform="translate(109,94)"/>
<path d="M0 0 C4.21912747 0.4794463 6.79663178 1.16625119 10 4 C7.69 3.67 5.38 3.34 3 3 C3 3.66 3 4.32 3 5 C3.66 5 4.32 5 5 5 C4.67 6.32 4.34 7.64 4 9 C2.68 8.67 1.36 8.34 0 8 C0.99 8 1.98 8 3 8 C3 7.34 3 6.68 3 6 C1.68 5.34 0.36 4.68 -1 4 C-0.34 4 0.32 4 1 4 C0.67 2.68 0.34 1.36 0 0 Z " fill="#E56840" transform="translate(79,184)"/>
<path d="M0 0 C1.32 0.66 2.64 1.32 4 2 C3.34 4.31 2.68 6.62 2 9 C1.34 8.01 0.68 7.02 0 6 C-0.66 6.66 -1.32 7.32 -2 8 C-5.125 8.125 -5.125 8.125 -8 8 C-7.67 7.01 -7.34 6.02 -7 5 C-7 5.66 -7 6.32 -7 7 C-4.52372901 6.36078035 -4.52372901 6.36078035 -2 5 C-0.63921965 2.47627099 -0.63921965 2.47627099 0 0 Z " fill="#484848" transform="translate(96,68)"/>
<path d="M0 0 C1.32 0.66 2.64 1.32 4 2 C3.25 6.75 3.25 6.75 1 9 C0.67 8.34 0.34 7.68 0 7 C-0.99 7.99 -1.98 8.98 -3 10 C-2.49287967 6.28111761 -1.88391785 3.26545761 0 0 Z " fill="#3E3E3E" transform="translate(84,50)"/>
<path d="M0 0 C1.65 0.33 3.3 0.66 5 1 C5 2.65 5 4.3 5 6 C3.68 6.33 2.36 6.66 1 7 C1 7.66 1 8.32 1 9 C2.32 9.33 3.64 9.66 5 10 C3.02 10 1.04 10 -1 10 C-0.45773019 6.20411134 1.20127563 4.52788007 4 2 C2.35 2.66 0.7 3.32 -1 4 C-0.67 2.68 -0.34 1.36 0 0 Z " fill="#606060" transform="translate(201,170)"/>
<path d="M0 0 C2.93453261 0.36681658 3.86437246 0.86437246 6 3 C-0.75 7 -0.75 7 -3 7 C-2.25 2.25 -2.25 2.25 0 0 Z " fill="#FCDCCA" transform="translate(77,170)"/>
<path d="M0 0 C-0.69867188 0.24234375 -1.39734375 0.4846875 -2.1171875 0.734375 C-3.02726562 1.06953125 -3.93734375 1.4046875 -4.875 1.75 C-5.77992187 2.07484375 -6.68484375 2.3996875 -7.6171875 2.734375 C-10.32047018 4.17021695 -10.96706853 5.17427942 -12 8 C-13.65 7.01 -15.3 6.02 -17 5 C-16 3 -16 3 -14.0390625 2.18359375 C-13.24242187 1.93738281 -12.44578125 1.69117188 -11.625 1.4375 C-10.83351563 1.18871094 -10.04203125 0.93992188 -9.2265625 0.68359375 C-8.12441406 0.34521484 -8.12441406 0.34521484 -7 0 C-3.86650268 -1.04449911 -3.01031744 -0.93423645 0 0 Z " fill="#F8D5C6" transform="translate(75,201)"/>
<path d="M0 0 C1.125 3.75 1.125 3.75 0 6 C1.98 6 3.96 6 6 6 C0 10 0 10 -4 10 C-3.43454163 6.04179141 -2.19097652 3.3340947 0 0 Z " fill="#FAD2C0" transform="translate(68,188)"/>
<path d="M0 0 C0 0.66 0 1.32 0 2 C-1.98 2.33 -3.96 2.66 -6 3 C-6 3.66 -6 4.32 -6 5 C-10.455 5.495 -10.455 5.495 -15 6 C-13.61082658 3.22165316 -12.04236447 3.00357014 -9.1875 1.875 C-7.87845703 1.34519531 -7.87845703 1.34519531 -6.54296875 0.8046875 C-4 0 -4 0 0 0 Z " fill="#EE3D0B" transform="translate(82,194)"/>
<path d="M0 0 C0.33 0.99 0.66 1.98 1 3 C1.7425 2.484375 2.485 1.96875 3.25 1.4375 C6 0 6 0 8.3125 0.3125 C8.869375 0.539375 9.42625 0.76625 10 1 C9.67 2.32 9.34 3.64 9 5 C6.03 4.67 3.06 4.34 0 4 C0 2.68 0 1.36 0 0 Z " fill="#E35C33" transform="translate(73,174)"/>
<path d="M0 0 C0.66 0 1.32 0 2 0 C2.1875 2.3125 2.1875 2.3125 2 5 C0.625 6.5625 0.625 6.5625 -1 8 C-2.17574711 10.09989652 -2.17574711 10.09989652 -3 12 C-3.29162929 7.04230204 -3.12940055 3.97193147 0 0 Z " fill="#EB5C31" transform="translate(61,180)"/>
<path d="M0 0 C3.96 0.33 7.92 0.66 12 1 C12 1.66 12 2.32 12 3 C6.25 3.125 6.25 3.125 4 2 C3.67 3.65 3.34 5.3 3 7 C2.67 7 2.34 7 2 7 C2 5.35 2 3.7 2 2 C1.34 2 0.68 2 0 2 C0 1.34 0 0.68 0 0 Z " fill="#EE4516" transform="translate(82,187)"/>
<path d="M0 0 C0.33 1.98 0.66 3.96 1 6 C-1.92879371 5.37240135 -4.36095629 4.41377341 -7 3 C-7 2.34 -7 1.68 -7 1 C-2.25 0 -2.25 0 0 0 Z " fill="#F33C08" transform="translate(95,170)"/>
<path d="M0 0 C3.96 0 7.92 0 12 0 C11.67 0.66 11.34 1.32 11 2 C9.00390625 2.44921875 9.00390625 2.44921875 6.5625 2.6875 C5.75941406 2.77386719 4.95632812 2.86023438 4.12890625 2.94921875 C2 3 2 3 0 2 C0 1.34 0 0.68 0 0 Z " fill="#FAD7C5" transform="translate(84,166)"/>
<path d="M0 0 C2.97 0.495 2.97 0.495 6 1 C6 2.65 6 4.3 6 6 C4.68 6 3.36 6 2 6 C1.67 5.34 1.34 4.68 1 4 C0.01 4.33 -0.98 4.66 -2 5 C-1.34 3.35 -0.68 1.7 0 0 Z " fill="#636363" transform="translate(143,87)"/>
<path d="M0 0 C2.475 0.99 2.475 0.99 5 2 C5 1.34 5 0.68 5 0 C5.66 0 6.32 0 7 0 C6.67 2.97 6.34 5.94 6 9 C5.01 9 4.02 9 3 9 C3.66 7.35 4.32 5.7 5 4 C2.03 3.505 2.03 3.505 -1 3 C-0.67 2.01 -0.34 1.02 0 0 Z " fill="#D9D9D9" transform="translate(163,171)"/>
<path d="M0 0 C-1.98 0.99 -3.96 1.98 -6 3 C-5.01 4.485 -5.01 4.485 -4 6 C-6.31 5.34 -8.62 4.68 -11 4 C-11 3.34 -11 2.68 -11 2 C-3.57142857 -1.57142857 -3.57142857 -1.57142857 0 0 Z " fill="#F8C9B3" transform="translate(112,188)"/>
<path d="M0 0 C1.98 0 3.96 0 6 0 C5.67 1.32 5.34 2.64 5 4 C3.35 4.33 1.7 4.66 0 5 C0 3.35 0 1.7 0 0 Z " fill="#B4B4B4" transform="translate(189,108)"/>
<path d="M0 0 C2.97 0.33 5.94 0.66 9 1 C5.79663178 3.83374881 3.21912747 4.5205537 -1 5 C-0.67 3.35 -0.34 1.7 0 0 Z " fill="#F93A03" transform="translate(86,189)"/>
<path d="M0 0 C-0.33 1.32 -0.66 2.64 -1 4 C-1.53625 3.835 -2.0725 3.67 -2.625 3.5 C-5.45886009 2.90339788 -8.1119806 2.9343632 -11 3 C-8.89427904 -1.21144191 -4.11694326 -0.07767817 0 0 Z " fill="#E26747" transform="translate(109,155)"/>
<path d="M0 0 C1.88638485 3.26973374 2.75896128 6.22372667 3 10 C1.51171875 11.68359375 1.51171875 11.68359375 0 13 C-0.39036513 11.39950296 -0.76178619 9.79437629 -1.125 8.1875 C-1.33382812 7.29417969 -1.54265625 6.40085937 -1.7578125 5.48046875 C-2 3 -2 3 0 0 Z " fill="#D7C4BE" transform="translate(50,121)"/>
<path d="M0 0 C0.33 1.32 0.66 2.64 1 4 C-0.32 4.99 -1.64 5.98 -3 7 C-1.125 2.25 -1.125 2.25 0 0 Z M-4 7 C-3.67 7.99 -3.34 8.98 -3 10 C-4.65 11.32 -6.3 12.64 -8 14 C-7.43628586 10.73045798 -6.50037734 9.17424117 -4 7 Z " fill="#292B2B" transform="translate(72,76)"/>
<path d="M0 0 C2.31 0.66 4.62 1.32 7 2 C6.01 2.33 5.02 2.66 4 3 C4.33 3.99 4.66 4.98 5 6 C2.0280615 4.87548273 -0.33440687 3.77706209 -3 2 C-2.01 2 -1.02 2 0 2 C0 1.34 0 0.68 0 0 Z " fill="#E45931" transform="translate(96,174)"/>
<path d="M0 0 C0.99 0 1.98 0 3 0 C2.67 6.6 2.34 13.2 2 20 C1.67 20 1.34 20 1 20 C0.67 13.4 0.34 6.8 0 0 Z " fill="#F7CFC1" transform="translate(30,104)"/>
<path d="M0 0 C1.98 0 3.96 0 6 0 C6 0.66 6 1.32 6 2 C6.66 2 7.32 2 8 2 C8.33 3.65 8.66 5.3 9 7 C7 5.625 7 5.625 5 4 C5 3.34 5 2.68 5 2 C3.35 2.33 1.7 2.66 0 3 C0 2.01 0 1.02 0 0 Z " fill="#FAE4D3" transform="translate(54,66)"/>
<path d="M0 0 C0.99 0.33 1.98 0.66 3 1 C2.34 1 1.68 1 1 1 C1.66 2.98 2.32 4.96 3 7 C1.35 6.67 -0.3 6.34 -2 6 C-2 4.35 -2 2.7 -2 1 C-1.34 0.67 -0.68 0.34 0 0 Z " fill="#EB4B1A" transform="translate(100,189)"/>
<path d="M0 0 C2.875 -0.125 2.875 -0.125 6 0 C6.66 0.66 7.32 1.32 8 2 C7.67 2.66 7.34 3.32 7 4 C4.03 3.505 4.03 3.505 1 3 C0.67 2.01 0.34 1.02 0 0 Z " fill="#E84316" transform="translate(73,184)"/>
<path d="M0 0 C0.99 0.33 1.98 0.66 3 1 C3 2.65 3 4.3 3 6 C1.68 6 0.36 6 -1 6 C-1.042721 4.33388095 -1.04063832 2.66617115 -1 1 C-0.67 0.67 -0.34 0.34 0 0 Z " fill="#E0E0E0" transform="translate(210,172)"/>
<path d="M0 0 C1.37473375 4.27694946 0.38688443 6.83934671 -1 11 C-2.5625 9.75 -2.5625 9.75 -4 8 C-3.875 5.875 -3.875 5.875 -3 4 C-2.01 3.67 -1.02 3.34 0 3 C0 2.01 0 1.02 0 0 Z " fill="#E2633F" transform="translate(46,141)"/>
<path d="M0 0 C4 4.625 4 4.625 4 8 C-0.875 6.25 -0.875 6.25 -2 4 C-1.34 4 -0.68 4 0 4 C0 2.68 0 1.36 0 0 Z " fill="#F8C8B2" transform="translate(104,171)"/>
<path d="M0 0 C1.98 0 3.96 0 6 0 C5.67 1.32 5.34 2.64 5 4 C3.35 4 1.7 4 0 4 C0 2.68 0 1.36 0 0 Z " fill="#B4B4B4" transform="translate(126,92)"/>
<path d="M0 0 C0.66 0 1.32 0 2 0 C1.67 1.32 1.34 2.64 1 4 C0.34 4 -0.32 4 -1 4 C-1 4.66 -1 5.32 -1 6 C-1.99 6 -2.98 6 -4 6 C-4 6.66 -4 7.32 -4 8 C-4.66 7.67 -5.32 7.34 -6 7 C-5.04882866 5.8274869 -4.08882991 4.66212985 -3.125 3.5 C-2.59132812 2.8503125 -2.05765625 2.200625 -1.5078125 1.53125 C-0.76144531 0.77328125 -0.76144531 0.77328125 0 0 Z " fill="#E56B48" transform="translate(50,72)"/>
<path d="M0 0 C2.5654594 2.5654594 2.54046087 4.47686668 3 8 C0.03824877 7.38722388 -1.38058783 6.74627478 -4 5 C-2.68 5 -1.36 5 0 5 C0 3.35 0 1.7 0 0 Z " fill="#F8C8B8" transform="translate(113,189)"/>
<path d="M0 0 C1.5 1.375 1.5 1.375 3 3 C3 3.66 3 4.32 3 5 C3.66 5 4.32 5 5 5 C4.67 6.98 4.34 8.96 4 11 C1.54176828 7.31265242 0.98757384 4.30300029 0 0 Z " fill="#E56B45" transform="translate(40,127)"/>
<path d="M0 0 C0.66 0 1.32 0 2 0 C3.49524178 2.2727675 4.78399715 4.5679943 6 7 C5.21625 6.79375 4.4325 6.5875 3.625 6.375 C2.325625 6.189375 2.325625 6.189375 1 6 C0.34 6.66 -0.32 7.32 -1 8 C-0.67 5.36 -0.34 2.72 0 0 Z " fill="#C1C1C1" transform="translate(228,91)"/>
<path d="M0 0 C0.99 0 1.98 0 3 0 C1.55746343 3.36591866 -0.33264727 5.51047079 -3 8 C-2.25 2.25 -2.25 2.25 0 0 Z " fill="#E9E2DD" transform="translate(60,84)"/>
<path d="M0 0 C0.66 1.32 1.32 2.64 2 4 C-0.97 4 -3.94 4 -7 4 C-7 3.34 -7 2.68 -7 2 C-4 0 -4 0 0 0 Z " fill="#E0613E" transform="translate(59,68)"/>
<path d="M0 0 C4.04256383 1.22217046 7.49288959 2.62754296 11 5 C11 5.33 11 5.66 11 6 C8.625 6.1875 8.625 6.1875 6 6 C5.34 5.01 4.68 4.02 4 3 C1.94996045 1.80767387 1.94996045 1.80767387 0 1 C0 0.67 0 0.34 0 0 Z " fill="#F6C9B2" transform="translate(91,176)"/>
<path d="M0 0 C-0.66 0 -1.32 0 -2 0 C-1.67 1.32 -1.34 2.64 -1 4 C-3.97 3.505 -3.97 3.505 -7 3 C-6.67 2.01 -6.34 1.02 -6 0 C-3.50907189 -1.24546405 -2.58919267 -0.7767578 0 0 Z " fill="#F8C4AC" transform="translate(82,180)"/>
<path d="M0 0 C2.22825644 2.22825644 2.69239369 3.65761628 3.625 6.625 C4.01558594 7.85089844 4.01558594 7.85089844 4.4140625 9.1015625 C4.60742188 9.72804687 4.80078125 10.35453125 5 11 C4.34 11 3.68 11 3 11 C0 4.5 0 4.5 0 0 Z " fill="#E77956" transform="translate(113,166)"/>
<path d="M0 0 C0.66 0.33 1.32 0.66 2 1 C1.34 2.65 0.68 4.3 0 6 C-0.99 6 -1.98 6 -3 6 C-3.99 6.495 -3.99 6.495 -5 7 C-3.75023244 3.34683329 -3.32901247 2.21934164 0 0 Z " fill="#262626" transform="translate(103,85)"/>
<path d="M0 0 C1.98 0.66 3.96 1.32 6 2 C6 2.99 6 3.98 6 5 C4.68 5 3.36 5 2 5 C1.34 3.35 0.68 1.7 0 0 Z " fill="#E34614" transform="translate(99,176)"/>
<path d="M0 0 C0.99 0 1.98 0 3 0 C3 0.99 3 1.98 3 3 C3.66 3 4.32 3 5 3 C4.67 3.99 4.34 4.98 4 6 C2.68 5.67 1.36 5.34 0 5 C0 3.35 0 1.7 0 0 Z " fill="#B8B8B8" transform="translate(190,174)"/>
<path d="M0 0 C1.65 0 3.3 0 5 0 C4.67 0.99 4.34 1.98 4 3 C3.34 3 2.68 3 2 3 C2 3.66 2 4.32 2 5 C1.01 4.67 0.02 4.34 -1 4 C-0.67 2.68 -0.34 1.36 0 0 Z " fill="#DFDFDF" transform="translate(183,174)"/>
<path d="M0 0 C1.65 0 3.3 0 5 0 C5 1.98 5 3.96 5 6 C5.66 6 6.32 6 7 6 C6 8 6 8 3 10 C3.33 7.03 3.66 4.06 4 1 C2.68 0.67 1.36 0.34 0 0 Z " fill="#AFAFAF" transform="translate(170,82)"/>
<path d="M0 0 C1.31611677 0.95336021 2.62778961 1.91285774 3.9375 2.875 C4.66839844 3.40867188 5.39929688 3.94234375 6.15234375 4.4921875 C8 6 8 6 9 8 C5.08158173 6.69386058 2.67359191 5.16870152 0 2 C0 1.34 0 0.68 0 0 Z " fill="#F1F3F2" transform="translate(64,208)"/>
<path d="M0 0 C7.625 1.75 7.625 1.75 11 4 C8.69 4 6.38 4 4 4 C4 3.34 4 2.68 4 2 C2.68 1.67 1.36 1.34 0 1 C0 0.67 0 0.34 0 0 Z " fill="#FBDBCA" transform="translate(107,200)"/>
<path d="M0 0 C0.66 0.33 1.32 0.66 2 1 C1.01 3.97 0.02 6.94 -1 10 C-1.33 10 -1.66 10 -2 10 C-2 7.36 -2 4.72 -2 2 C-1.34 2 -0.68 2 0 2 C0 1.34 0 0.68 0 0 Z " fill="#E35B2D" transform="translate(49,96)"/>
<path d="M0 0 C1.32 0.99 2.64 1.98 4 3 C3.42655063 5.86724686 3.1385485 6.8614515 1 9 C0.67 6.03 0.34 3.06 0 0 Z " fill="#FCE5D3" transform="translate(42,84)"/>
<path d="M0 0 C1.125 3.75 1.125 3.75 0 6 C-2.0625 6.625 -2.0625 6.625 -4 7 C-4 6.01 -4 5.02 -4 4 C-3.34 4 -2.68 4 -2 4 C-1.34 2.68 -0.68 1.36 0 0 Z " fill="#0E0E0E" transform="translate(84,56)"/>
<path d="M0 0 C1.98 0.66 3.96 1.32 6 2 C6 2.99 6 3.98 6 5 C4.68 5 3.36 5 2 5 C2 4.34 2 3.68 2 3 C1.34 3 0.68 3 0 3 C0 2.01 0 1.02 0 0 Z " fill="#DEDEDE" transform="translate(160,174)"/>
<path d="M0 0 C0.66 0 1.32 0 2 0 C2.66 1.65 3.32 3.3 4 5 C3.01 5 2.02 5 1 5 C0.34 5.66 -0.32 6.32 -1 7 C-0.67 4.69 -0.34 2.38 0 0 Z " fill="#C9C9C9" transform="translate(162,92)"/>
<path d="M0 0 C1 2 1 2 0.0625 5.125 C-0.288125 6.07375 -0.63875 7.0225 -1 8 C-1.99 8 -2.98 8 -4 8 C-2.87548273 5.0280615 -1.77706209 2.66559313 0 0 Z " fill="#F6D1C3" transform="translate(57,86)"/>
<path d="M0 0 C0.625 1.875 0.625 1.875 1 4 C0.34 4.66 -0.32 5.32 -1 6 C-1.66 6 -2.32 6 -3 6 C-3.99 6.495 -3.99 6.495 -5 7 C-3.70700306 4.11562221 -2.34058637 2.12780579 0 0 Z " fill="#1E1E1E" transform="translate(89,67)"/>
<path d="M0 0 C1.32 0.33 2.64 0.66 4 1 C3.34 2.32 2.68 3.64 2 5 C1.34 5 0.68 5 0 5 C-0.99 5.495 -0.99 5.495 -2 6 C-1.34 4.02 -0.68 2.04 0 0 Z " fill="#3B3B3B" transform="translate(91,57)"/>
</svg>
