<?xml version="1.0" encoding="UTF-8"?>
<svg version="1.1" xmlns="http://www.w3.org/2000/svg" width="144" height="55">
<path d="M0 0 C47.52 0 95.04 0 144 0 C144 18.15 144 36.3 144 55 C96.48 55 48.96 55 0 55 C0 36.85 0 18.7 0 0 Z " fill="#F7F7F7" transform="translate(0,0)"/>
<path d="M0 0 C14.19642857 -0.53571429 14.19642857 -0.53571429 17.6875 1.8125 C18.450625 2.534375 19.21375 3.25625 20 4 C20.80244141 4.62841797 20.80244141 4.62841797 21.62109375 5.26953125 C23.62092008 7.77922832 23.39869996 9.70710589 23.375 12.875 C23.38273437 13.90367188 23.39046875 14.93234375 23.3984375 15.9921875 C22.93520576 19.48913295 22.20841028 21.25113488 20 24 C13.6067433 28.22248043 7.41928226 27.20997969 0 27 C0 18.09 0 9.18 0 0 Z " fill="#100909" transform="translate(4,14)"/>
<path d="M0 0 C5.65031797 1.88343932 7.25016798 2.80901128 11 7 C11.309375 6.360625 11.61875 5.72125 11.9375 5.0625 C13 3 13 3 14 2 C15.99958364 1.95919217 18.00045254 1.95745644 20 2 C20.33 1.34 20.66 0.68 21 0 C21.33 0.33 21.66 0.66 22 1 C21.83293475 5.34369658 21.426148 7.48413663 18.625 10.875 C12.90329329 15.50685782 6.03737207 14.06456305 -1 14 C-0.67 9.38 -0.34 4.76 0 0 Z " fill="#090808" transform="translate(5,27)"/>
<path d="M0 0 C6.20349659 -0.42057604 8.17266543 -0.06512385 13 4 C16.16732421 4.25086724 16.16732421 4.25086724 19 4 C20 5 20 5 20.09765625 6.84765625 C20.06510417 8.8984375 20.03255208 10.94921875 20 13 C16.12286142 13.07456036 12.74071646 13.00711597 9 12 C8.67 12.33 8.34 12.66 8 13 C5.32941149 13.14115161 2.67567762 13.04247107 0 13 C0 8.71 0 4.42 0 0 Z " fill="#3D3D3D" transform="translate(32,13)"/>
<path d="M0 0 C3.21370746 0.18390314 6.40287159 0.52166023 9.60546875 0.84375 C12.93046147 0.99679915 15.73399308 0.54810934 19 0 C22.875 0.9375 22.875 0.9375 26 2 C26 2.99 26 3.98 26 5 C21.14523825 5.92963523 17.1131256 5.912112 12.22265625 5.2578125 C9.12701954 4.8987404 6.11320412 4.93376161 3 5 C3 5.66 3 6.32 3 7 C6.3 6.67 9.6 6.34 13 6 C13 7.32 13 8.64 13 10 C8.38 10 3.76 10 -1 10 C-1.09765625 3.06640625 -1.09765625 3.06640625 -1 1 C-0.67 0.67 -0.34 0.34 0 0 Z " fill="#7B7B7B" transform="translate(110,31)"/>
<path d="M0 0 C1.07765625 0.00902344 2.1553125 0.01804687 3.265625 0.02734375 C4.08546875 0.03894531 4.9053125 0.05054687 5.75 0.0625 C6.08 1.0525 6.41 2.0425 6.75 3.0625 C7.41 3.0625 8.07 3.0625 8.75 3.0625 C8.75 4.0525 8.75 5.0425 8.75 6.0625 C7.079375 6.4646875 7.079375 6.4646875 5.375 6.875 C1.53159049 7.72059019 1.53159049 7.72059019 -0.25 11.0625 C-2.1875 10.25 -2.1875 10.25 -4.25 9.0625 C-4.58 8.0725 -4.91 7.0825 -5.25 6.0625 C-7.26508358 5.32926204 -7.26508358 5.32926204 -9.25 5.0625 C-9.58 3.7425 -9.91 2.4225 -10.25 1.0625 C-6.78777385 -0.00473961 -3.60960734 -0.03923486 0 0 Z " fill="#E30202" transform="translate(16.25,22.9375)"/>
<path d="M0 0 C0.99 0 1.98 0 3 0 C3 0.99 3 1.98 3 3 C3.66 3.33 4.32 3.66 5 4 C4.814375 4.763125 4.62875 5.52625 4.4375 6.3125 C3.77180827 9.08967375 3.77180827 9.08967375 5 12 C3.68 12 2.36 12 1 12 C1 9.69 1 7.38 1 5 C0.34 5 -0.32 5 -1 5 C-1 7.31 -1 9.62 -1 12 C-1.99 12 -2.98 12 -4 12 C-4 9.69 -4 7.38 -4 5 C-4.99 5 -5.98 5 -7 5 C-7 7.31 -7 9.62 -7 12 C-7.99 12 -8.98 12 -10 12 C-10 9.03 -10 6.06 -10 3 C-7.03 3 -4.06 3 -1 3 C-0.67 2.01 -0.34 1.02 0 0 Z " fill="#2E2E2E" transform="translate(82,14)"/>
<path d="M0 0 C2.14576637 -0.02685938 4.29162645 -0.04633088 6.4375 -0.0625 C7.63246094 -0.07410156 8.82742187 -0.08570312 10.05859375 -0.09765625 C13 0 13 0 14 1 C14.04092937 3.33297433 14.04241723 5.66705225 14 8 C13.01 8 12.02 8 11 8 C11 7.34 11 6.68 11 6 C10.34 5.67 9.68 5.34 9 5 C9 5.99 9 6.98 9 8 C8.01 8 7.02 8 6 8 C6.375 6.0625 6.375 6.0625 7 4 C7.66 3.67 8.32 3.34 9 3 C7.35 3 5.7 3 4 3 C3.67 4.98 3.34 6.96 3 9 C2.01 9 1.02 9 0 9 C0 6.03 0 3.06 0 0 Z " fill="#2A2A2A" transform="translate(97,17)"/>
<path d="M0 0 C1.65 0 3.3 0 5 0 C5.33 0.99 5.66 1.98 6 3 C4.68 3 3.36 3 2 3 C3.32 3.33 4.64 3.66 6 4 C6.33 2.68 6.66 1.36 7 0 C7.99 0 8.98 0 10 0 C10 2.97 10 5.94 10 9 C6.37 9 2.74 9 -1 9 C-1 8.01 -1 7.02 -1 6 C0.32 6 1.64 6 3 6 C1.68 5.67 0.36 5.34 -1 5 C-0.67 3.35 -0.34 1.7 0 0 Z " fill="#353535" transform="translate(87,32)"/>
<path d="M0 0 C0.66 0 1.32 0 2 0 C2 3.96 2 7.92 2 12 C-0.33294775 12.04241723 -2.66702567 12.04092937 -5 12 C-6 11 -6 11 -6.0625 7.4375 C-6.041875 6.303125 -6.02125 5.16875 -6 4 C-2.25 2.875 -2.25 2.875 0 4 C0 2.68 0 1.36 0 0 Z " fill="#555555" transform="translate(53,29)"/>
<path d="M0 0 C3 0.125 3 0.125 4 1.125 C4.125 4.625 4.125 4.625 4 8.125 C3 9.125 3 9.125 0 9.25 C-3 9.125 -3 9.125 -4 8.125 C-4.125 4.625 -4.125 4.625 -4 1.125 C-3 0.125 -3 0.125 0 0 Z " fill="#1D1D1D" transform="translate(61,31.875)"/>
<path d="M0 0 C1.99954746 -0.04254356 4.00041636 -0.04080783 6 0 C7 1 7 1 7.09765625 2.84765625 C7.04882812 5.92382812 7.04882812 5.92382812 7 9 C4.69 9 2.38 9 0 9 C-0.33 7.35 -0.66 5.7 -1 4 C-0.34 3.67 0.32 3.34 1 3 C0.34 3 -0.32 3 -1 3 C-0.67 2.01 -0.34 1.02 0 0 Z " fill="#505050" transform="translate(89,17)"/>
<path d="M0 0 C0.90105469 0.01804687 1.80210938 0.03609375 2.73046875 0.0546875 C3.41753906 0.07789062 4.10460938 0.10109375 4.8125 0.125 C4.8125 1.115 4.8125 2.105 4.8125 3.125 C3.141875 3.5271875 3.141875 3.5271875 1.4375 3.9375 C-2.40590951 4.78309019 -2.40590951 4.78309019 -4.1875 8.125 C-5.5075 7.465 -6.8275 6.805 -8.1875 6.125 C-8.1875 4.805 -8.1875 3.485 -8.1875 2.125 C-4.87379 -0.08414 -3.8428979 -0.09981553 0 0 Z " fill="#DCDCDC" transform="translate(20.1875,25.875)"/>
<path d="M0 0 C1.66611905 -0.042721 3.33382885 -0.04063832 5 0 C6 1 6 1 6.09765625 2.84765625 C6.04882812 5.92382812 6.04882812 5.92382812 6 9 C3.69 9 1.38 9 -1 9 C-1.33 7.68 -1.66 6.36 -2 5 C-0.35 4.34 1.3 3.68 3 3 C1.68 3 0.36 3 -1 3 C-0.67 2.01 -0.34 1.02 0 0 Z " fill="#151515" transform="translate(100,32)"/>
<path d="M0 0 C0.78375 0.04125 1.5675 0.0825 2.375 0.125 C3.035 1.775 3.695 3.425 4.375 5.125 C2.395 5.125 0.415 5.125 -1.625 5.125 C-1.625 5.785 -1.625 6.445 -1.625 7.125 C0.025 7.125 1.675 7.125 3.375 7.125 C3.045 7.785 2.715 8.445 2.375 9.125 C0 9.25 0 9.25 -2.625 9.125 C-4.625 7.125 -4.625 7.125 -4.875 4.625 C-4.51649553 1.03995533 -3.59522993 0.17120143 0 0 Z " fill="#2A2A2A" transform="translate(80.625,31.875)"/>
<path d="M0 0 C2.33294775 -0.04241723 4.66702567 -0.04092937 7 0 C8 1 8 1 8.09765625 2.84765625 C8.04882812 5.92382812 8.04882812 5.92382812 8 9 C7.01 9 6.02 9 5 9 C5 6.69 5 4.38 5 2 C4.01 2.495 4.01 2.495 3 3 C2.34227572 6.02934491 2.34227572 6.02934491 2 9 C1.34 9 0.68 9 0 9 C0 6.03 0 3.06 0 0 Z " fill="#1E1E1E" transform="translate(67,32)"/>
<path d="M0 0 C2.33294775 -0.04241723 4.66702567 -0.04092937 7 0 C8 1 8 1 8.09765625 2.84765625 C8.04882812 5.92382812 8.04882812 5.92382812 8 9 C7.01 9 6.02 9 5 9 C5 6.69 5 4.38 5 2 C4.01 2.495 4.01 2.495 3 3 C2.34227572 6.02934491 2.34227572 6.02934491 2 9 C1.34 9 0.68 9 0 9 C0 6.03 0 3.06 0 0 Z " fill="#1E1E1E" transform="translate(54,17)"/>
<path d="M0 0 C2.33294775 -0.04241723 4.66702567 -0.04092937 7 0 C8 1 8 1 8.09765625 2.84765625 C8.04882812 5.92382812 8.04882812 5.92382812 8 9 C7.34 9 6.68 9 6 9 C6 6.69 6 4.38 6 2 C5.01 2 4.02 2 3 2 C3 4.31 3 6.62 3 9 C2.01 9 1.02 9 0 9 C0 6.03 0 3.06 0 0 Z " fill="#2B2B2B" transform="translate(37,32)"/>
<path d="M0 0 C1.99954746 -0.04254356 4.00041636 -0.04080783 6 0 C7 1 7 1 7.0625 4.5625 C7.041875 5.696875 7.02125 6.83125 7 8 C5.68 7.67 4.36 7.34 3 7 C3.33 6.34 3.66 5.68 4 5 C3.34 5 2.68 5 2 5 C2 5.99 2 6.98 2 8 C1.01 8 0.02 8 -1 8 C-0.125 4.125 -0.125 4.125 1 3 C0.34 3 -0.32 3 -1 3 C-0.67 2.01 -0.34 1.02 0 0 Z " fill="#242424" transform="translate(64,17)"/>
<path d="M0 0 C1.99954746 -0.04254356 4.00041636 -0.04080783 6 0 C7 1 7 1 7.09765625 2.84765625 C7.04882812 5.92382812 7.04882812 5.92382812 7 9 C4.69 9 2.38 9 0 9 C-0.33 7.68 -0.66 6.36 -1 5 C0.32 4.67 1.64 4.34 3 4 C2.67 4.99 2.34 5.98 2 7 C2.99 7 3.98 7 5 7 C4.67 5.35 4.34 3.7 4 2 C2.68 2 1.36 2 0 2 C0 1.34 0 0.68 0 0 Z " fill="#171717" transform="translate(45,17)"/>
<path d="M0 0 C0.33 1.32 0.66 2.64 1 4 C-6.42857143 5.28571429 -6.42857143 5.28571429 -10 4 C-10 3.01 -10 2.02 -10 1 C-6.59437148 0.22157062 -3.49234244 -0.09978121 0 0 Z " fill="#757575" transform="translate(135,32)"/>
<path d="M0 0 C0.66 0 1.32 0 2 0 C2 2.31 2 4.62 2 7 C1.01 7 0.02 7 -1 7 C-1 6.34 -1 5.68 -1 5 C-1.66 4.67 -2.32 4.34 -3 4 C-3 4.99 -3 5.98 -3 7 C-3.99 7 -4.98 7 -6 7 C-5.67 5.68 -5.34 4.36 -5 3 C-3.35 2.67 -1.7 2.34 0 2 C0 1.34 0 0.68 0 0 Z " fill="#141414" transform="translate(109,18)"/>
<path d="M0 0 C1.98 0.66 3.96 1.32 6 2 C6.33 3.65 6.66 5.3 7 7 C6.01 7 5.02 7 4 7 C4 6.34 4 5.68 4 5 C3.34 5 2.68 5 2 5 C1.67 5.66 1.34 6.32 1 7 C0.34 6.67 -0.32 6.34 -1 6 C-0.67 4.02 -0.34 2.04 0 0 Z " fill="#A6A6A6" transform="translate(43,17)"/>
<path d="M0 0 C1.98 0 3.96 0 6 0 C6 2.64 6 5.28 6 8 C5.01 7.67 4.02 7.34 3 7 C3.33 5.35 3.66 3.7 4 2 C2.35 2.33 0.7 2.66 -1 3 C-0.67 2.01 -0.34 1.02 0 0 Z " fill="#1D1D1D" transform="translate(89,17)"/>
<path d="M0 0 C0 1.32 0 2.64 0 4 C-3.3 4 -6.6 4 -10 4 C-9.67 3.34 -9.34 2.68 -9 2 C-2.88888889 0 -2.88888889 0 0 0 Z " fill="#6E6E6E" transform="translate(123,37)"/>
<path d="M0 0 C0.66 0 1.32 0 2 0 C2 0.99 2 1.98 2 3 C3.65 3.33 5.3 3.66 7 4 C6.01 4.33 5.02 4.66 4 5 C3.34 4.67 2.68 4.34 2 4 C2 4.66 2 5.32 2 6 C-0.31 5.67 -2.62 5.34 -5 5 C-5 4.34 -5 3.68 -5 3 C-3.02 3 -1.04 3 1 3 C0.67 2.01 0.34 1.02 0 0 Z " fill="#AEAEAE" transform="translate(84,34)"/>
<path d="M0 0 C1.65 0 3.3 0 5 0 C5.33 0.99 5.66 1.98 6 3 C4.68 3 3.36 3 2 3 C3.32 3.66 4.64 4.32 6 5 C2.86650268 6.04449911 2.01031744 5.93423645 -1 5 C-0.67 3.35 -0.34 1.7 0 0 Z " fill="#202020" transform="translate(87,32)"/>
<path d="M0 0 C0.66 0 1.32 0 2 0 C2 3.96 2 7.92 2 12 C1.01 11.67 0.02 11.34 -1 11 C-1.14285714 3.57142857 -1.14285714 3.57142857 0 0 Z " fill="#050505" transform="translate(53,29)"/>
<path d="M0 0 C1.32 0.33 2.64 0.66 4 1 C4 2.65 4 4.3 4 6 C2.68 6.33 1.36 6.66 0 7 C0 4.69 0 2.38 0 0 Z " fill="#F5F5F5" transform="translate(36,16)"/>
<path d="M0 0 C0.33 1.32 0.66 2.64 1 4 C-0.65 4.66 -2.3 5.32 -4 6 C-4.33 4.68 -4.66 3.36 -5 2 C-3.35 1.34 -1.7 0.68 0 0 Z " fill="#535353" transform="translate(103,35)"/>
<path d="M0 0 C1.8871875 0.0309375 1.8871875 0.0309375 3.8125 0.0625 C2.8125 1.5625 2.8125 1.5625 0.8125 3.0625 C-1.90596235 3.33595479 -4.44427199 3.19741285 -7.1875 3.0625 C-7.1875 2.4025 -7.1875 1.7425 -7.1875 1.0625 C-4.43671116 0.14557039 -2.82801087 -0.04636083 0 0 Z " fill="#E7E7E7" transform="translate(120.1875,34.9375)"/>
<path d="M0 0 C0.66 0 1.32 0 2 0 C2 0.66 2 1.32 2 2 C3.65 1.67 5.3 1.34 7 1 C6.34 1.66 5.68 2.32 5 3 C4.01 3 3.02 3 2 3 C1.67 4.32 1.34 5.64 1 7 C0.34 6.34 -0.32 5.68 -1 5 C-0.625 2.375 -0.625 2.375 0 0 Z " fill="#D0D0D0" transform="translate(86,18)"/>
<path d="M0 0 C0.66 0.33 1.32 0.66 2 1 C1.67 1.66 1.34 2.32 1 3 C1.66 3 2.32 3 3 3 C2.67 3.66 2.34 4.32 2 5 C-0.5625 5.625 -0.5625 5.625 -3 6 C-2.625 3.5625 -2.625 3.5625 -2 1 C-1.34 0.67 -0.68 0.34 0 0 Z " fill="#929292" transform="translate(112,35)"/>
<path d="M0 0 C0.99 0.495 0.99 0.495 2 1 C2 1.66 2 2.32 2 3 C3.65 2.67 5.3 2.34 7 2 C6.67 2.66 6.34 3.32 6 4 C3.9375 4.625 3.9375 4.625 2 5 C2 6.32 2 7.64 2 9 C1.34 9 0.68 9 0 9 C0 6.03 0 3.06 0 0 Z " fill="#C2C2C2" transform="translate(97,32)"/>
<path d="M0 0 C1.32 0.33 2.64 0.66 4 1 C4 3.64 4 6.28 4 9 C3.34 9 2.68 9 2 9 C2 6.69 2 4.38 2 2 C1.34 2 0.68 2 0 2 C0 1.34 0 0.68 0 0 Z " fill="#070707" transform="translate(41,32)"/>
<path d="M0 0 C0.99 0.33 1.98 0.66 3 1 C2.67 1.66 2.34 2.32 2 3 C3.65 3.33 5.3 3.66 7 4 C7 4.33 7 4.66 7 5 C4.69 5 2.38 5 0 5 C-0.5625 3.0625 -0.5625 3.0625 -1 1 C-0.67 0.67 -0.34 0.34 0 0 Z " fill="#2E2E2E" transform="translate(45,21)"/>
<path d="M0 0 C0.598125 0.350625 1.19625 0.70125 1.8125 1.0625 C1.8125 2.7125 1.8125 4.3625 1.8125 6.0625 C1.1525 6.0625 0.4925 6.0625 -0.1875 6.0625 C-0.455625 5.44375 -0.72375 4.825 -1 4.1875 C-2.14306848 1.7629767 -2.14306848 1.7629767 -5.1875 0.0625 C-2.1875 -0.9375 -2.1875 -0.9375 0 0 Z " fill="#101010" transform="translate(41.1875,14.9375)"/>
<path d="M0 0 C0.33 0.99 0.66 1.98 1 3 C1.66 3 2.32 3 3 3 C2.34 4.32 1.68 5.64 1 7 C-0.65 6.67 -2.3 6.34 -4 6 C-3.01 5.34 -2.02 4.68 -1 4 C-0.27617533 1.94074861 -0.27617533 1.94074861 0 0 Z " fill="#202020" transform="translate(40,18)"/>
<path d="M0 0 C0.66 0 1.32 0 2 0 C2.66 2.31 3.32 4.62 4 7 C2.68 7 1.36 7 0 7 C0 4.69 0 2.38 0 0 Z " fill="#1F1F1F" transform="translate(83,19)"/>
<path d="M0 0 C0.99 0.33 1.98 0.66 3 1 C3 2.32 3 3.64 3 5 C1.68 5 0.36 5 -1 5 C-0.67 3.35 -0.34 1.7 0 0 Z " fill="#D0D0D0" transform="translate(60,34)"/>
<path d="M0 0 C2.64 0 5.28 0 8 0 C7.01 1.485 7.01 1.485 6 3 C3.375 3.1875 3.375 3.1875 1 3 C0.67 2.01 0.34 1.02 0 0 Z " fill="#454545" transform="translate(102,17)"/>
<path d="M0 0 C0.99 0 1.98 0 3 0 C3 0.99 3 1.98 3 3 C3.66 3.33 4.32 3.66 5 4 C3.35 4.33 1.7 4.66 0 5 C0 3.35 0 1.7 0 0 Z " fill="#282828" transform="translate(82,14)"/>
<path d="M0 0 C2.31 0 4.62 0 7 0 C6.67 0.66 6.34 1.32 6 2 C5.01 2.33 4.02 2.66 3 3 C2.34 3.66 1.68 4.32 1 5 C1 4.34 1 3.68 1 3 C0.34 3 -0.32 3 -1 3 C-0.67 2.01 -0.34 1.02 0 0 Z " fill="#D9D9D9" transform="translate(101,19)"/>
</svg>
