<?xml version="1.0" encoding="UTF-8"?>
<svg version="1.1" xmlns="http://www.w3.org/2000/svg" width="1574" height="2000">
<path d="M0 0 C519.42 0 1038.84 0 1574 0 C1574 660 1574 1320 1574 2000 C1054.58 2000 535.16 2000 0 2000 C0 1340 0 680 0 0 Z " fill="#FEEC00" transform="translate(0,0)"/>
<path d="M0 0 C0.79551409 0.00037972 1.59102818 0.00075944 2.41064876 0.00115067 C3.32528945 -0.00084038 4.23993014 -0.00283143 5.18228722 -0.00488281 C6.19880283 -0.00196997 7.21531844 0.00094287 8.26263756 0.00394398 C9.3333827 0.00308955 10.40412784 0.00223513 11.50731981 0.00135481 C15.12494861 -0.00030316 18.74253189 0.00522656 22.36015648 0.01067311 C24.94155193 0.01095494 27.52294747 0.01079733 30.10434288 0.0102306 C35.67720401 0.00970518 41.25005348 0.01285383 46.82291168 0.01846844 C54.8804179 0.02658105 62.93791845 0.02919841 70.99542832 0.03045643 C84.06687736 0.03264733 97.13832019 0.03930843 110.20976585 0.04875904 C122.91061189 0.05793219 135.61145624 0.0650135 148.31230491 0.06926686 C149.09463503 0.06952958 149.87696515 0.0697923 150.68300224 0.07006299 C154.60755826 0.07136799 158.5321143 0.0726317 162.45667034 0.07387489 C195.03640137 0.08424868 227.61612477 0.10186801 260.19584984 0.1241985 C259.73617439 1.53656291 259.27354079 2.9479647 258.80971092 4.35897022 C258.42375787 5.53808948 258.42375787 5.53808948 258.03000778 6.74102932 C256.71117515 10.50890243 255.04989672 14.09701942 253.35991234 17.710136 C252.81806801 18.88378208 252.81806801 18.88378208 252.26527733 20.08113819 C251.12158177 22.5559127 249.97141598 25.02761196 248.82084984 27.4991985 C248.05738344 29.14742968 247.29435926 30.79586578 246.53178734 32.444511 C245.07007789 35.60374061 243.60673373 38.76220404 242.1421389 41.92009693 C238.7308691 49.28173495 235.36905757 56.65636145 232.19584984 64.1241985 C226.63050262 76.99179897 220.93338816 89.79301876 215.00834984 102.4991985 C210.23273542 112.74199791 205.46915032 122.98988321 200.75355858 133.26049 C200.0597714 134.76993102 199.36452858 136.27870401 198.66768211 137.78673512 C194.92925813 145.87913363 191.42193327 153.96851576 188.29106468 162.3207317 C186.84687567 166.01748213 185.11703743 169.49759764 183.25834984 172.9991985 C180.02644026 179.26291819 177.3748421 185.56839116 174.83671898 192.14690357 C173.27520463 196.04189603 171.43056477 199.7449167 169.50834984 203.47185475 C165.08071232 212.19627471 161.1195925 221.10203905 157.19584984 230.0616985 C155.86526859 233.09286393 154.53198652 236.12282151 153.19584984 239.15154225 C152.70628807 240.26171208 152.70628807 240.26171208 152.20683616 241.39430958 C149.52977057 247.43509393 146.74155464 253.41984274 143.89702171 259.38346058 C141.89426594 263.59042525 140.01038704 267.83140699 138.19584984 272.1241985 C132.19931791 285.98941903 126.01307625 299.75555944 119.61650413 313.44060475 C114.36961433 324.69217451 109.24566662 335.99844362 104.13334984 347.3116985 C103.71803001 348.23046772 103.30271019 349.14923695 102.87480491 350.09584767 C101.67785192 352.74435825 100.48155266 355.39316257 99.28569359 358.04216725 C98.75515625 359.21721821 98.75515625 359.21721821 98.21390098 360.41600758 C95.8562302 365.64399451 93.52096131 370.88165831 91.19584984 376.1241985 C89.8625165 379.1241985 88.52918317 382.1241985 87.19584984 385.1241985 C87.8880764 385.18889332 88.58030296 385.25358814 89.29350609 385.32024342 C114.43939087 387.73254215 138.0897886 392.61474349 162.19584984 400.1241985 C163.43334984 400.50705006 164.67084984 400.88990162 165.94584984 401.28435475 C171.83759531 403.17922601 177.49529294 405.4698428 183.18413109 407.90154225 C186.21862489 409.1334444 189.26760308 410.1797081 192.38334984 411.1866985 C195.8337678 412.3041887 199.15258542 413.4806724 202.44584984 414.9991985 C215.16589945 420.8367927 228.63057447 425.01020579 241.9077639 429.366386 C244.72224611 430.29854058 247.52019124 431.27642072 250.32084984 432.2491985 C255.45842048 433.95679392 260.65705263 435.40465722 265.88334984 436.8116985 C267.06018333 437.13388355 267.06018333 437.13388355 268.26079124 437.4625774 C298.68272948 445.46633024 334.19293893 439.41630291 361.62553734 424.4835735 C364.13710101 423.1552693 366.69872489 422.04932207 369.31184715 420.93886524 C372.21093209 419.685264 375.06018214 418.33142623 377.91459984 416.97966725 C379.19055331 416.37856855 380.46659808 415.77766361 381.74272484 415.17693287 C383.70656668 414.2511009 385.66979637 413.32405812 387.63139671 412.39348561 C397.02569182 407.94073278 406.50781099 403.89361349 416.19584984 400.1241985 C417.628479 399.5508223 419.06084918 398.97679757 420.49272484 398.40154225 C437.31167777 391.8756363 455.0413523 386.805884 473.18022484 386.82341725 C474.19771812 386.81913212 475.21521141 386.81484699 476.26353782 386.81043202 C478.40812261 386.80472539 480.55272674 386.80416115 482.69731468 386.80852467 C485.89640345 386.81165019 489.09453349 386.78829823 492.29350609 386.76287037 C511.83873993 386.70055655 530.72812109 388.84599345 549.69584984 393.5616985 C550.99489644 393.87636087 552.29413504 394.19023153 553.59355491 394.50334889 C557.13127528 395.36309747 560.66429078 396.23953832 564.19584984 397.1241985 C564.97363792 397.31626881 565.75142601 397.50833912 566.55278343 397.70622975 C570.79288976 398.7585033 574.99833512 399.9152411 579.19584984 401.1241985 C580.2293557 401.41971607 581.26286155 401.71523365 582.32768577 402.01970631 C585.97387393 403.06649251 589.61655925 404.12471929 593.25834984 405.1866985 C594.43808372 405.52757496 595.61781761 405.86845143 596.83330101 406.21965748 C597.95454368 406.55038258 599.07578636 406.88110768 600.23100609 407.22185475 C601.23526634 407.51584156 602.23952659 407.80982838 603.27421898 408.11272389 C606.19584984 409.1241985 606.19584984 409.1241985 612.19584984 412.1241985 C612.19584984 448.7541985 612.19584984 485.3841985 612.19584984 523.1241985 C604.33946686 522.00185807 604.33946686 522.00185807 601.00834984 520.8116985 C600.24006859 520.54486256 599.47178734 520.27802662 598.68022484 520.00310475 C597.86038109 519.71306568 597.04053734 519.42302662 596.19584984 519.1241985 C558.3968013 505.93979983 517.06479437 497.80800998 477.01372093 499.03874928 C474.7483371 499.10744485 472.48175277 499.13597345 470.21538109 499.15154225 C438.5856055 500.1146901 407.80541363 516.19603384 379.62553734 529.022636 C378.52345688 529.52412411 378.52345688 529.52412411 377.39911216 530.0357433 C373.7766225 531.68480654 370.15579426 533.33732213 366.53837913 534.99748951 C344.95614903 544.88212149 322.75573005 553.59215109 298.69584984 553.3116985 C297.6452639 553.31105397 296.59467796 553.31040943 295.51225609 553.30974537 C277.60447224 553.21013471 261.98603428 548.8834123 245.19584984 543.1241985 C240.48491899 541.53893815 235.76510335 539.9818364 231.03959984 538.44060475 C229.25833794 537.85600558 227.47708804 537.27136984 225.69584984 536.6866985 C224.8102639 536.39988209 223.92467796 536.11306568 223.01225609 535.81755787 C217.9298911 534.14209394 213.06584515 532.242631 208.20122093 530.01457936 C205.60662162 528.86258232 202.96534401 527.97464267 200.25834984 527.1241985 C196.68880852 525.99961727 193.21577507 524.74696279 189.75053734 523.33904225 C165.19025242 513.41759618 140.27877462 505.78895695 114.19584984 501.1241985 C113.2767231 500.95326176 112.35759636 500.78232502 111.41061729 500.60620838 C102.80270932 499.12628996 94.42363405 498.86109221 85.70756859 498.928886 C84.26883465 498.93262801 82.83009812 498.93546934 81.3913607 498.93746144 C77.65139227 498.94500457 73.91158556 498.96456979 70.17167991 498.98686939 C66.33665983 499.00753178 62.50161297 499.01650621 58.66655296 499.02654225 C51.17624581 499.0478271 43.6860707 499.08184641 36.19584984 499.1241985 C35.23956688 500.77983814 35.23956688 500.77983814 34.26396507 502.46892506 C33.90535896 503.08978993 33.54675285 503.7106548 33.17727989 504.35033375 C32.00666388 506.4661386 31.10529769 508.6104669 30.25834984 510.8741985 C26.97730608 519.40678326 22.96726921 527.63425105 19.09941429 535.91252857 C6.79069077 562.27769246 -5.32551966 588.75382774 -16.79633766 615.49529225 C-20.33477586 623.71046264 -24.11715571 631.81424849 -27.90278298 639.91765553 C-35.27079689 655.69783887 -42.45649472 671.55873092 -49.61909157 687.43303639 C-50.02179268 688.32538487 -50.42449379 689.21773335 -50.83939797 690.13712269 C-51.60208367 691.82764068 -52.36433062 693.5183567 -53.1260801 695.20929676 C-55.69504715 700.90599246 -55.69504715 700.90599246 -56.80415016 703.1241985 C-54.88502923 702.57012971 -52.96901162 702.00531346 -51.05415016 701.4366985 C-49.45313454 700.96683522 -49.45313454 700.96683522 -47.81977516 700.48747975 C-44.5060164 699.42780955 -41.33199932 698.11580506 -38.12836891 696.76091725 C-31.94887197 694.1515503 -25.70142069 691.82726085 -19.36665016 689.6241985 C-18.25225563 689.23619068 -17.1378611 688.84818287 -15.98969704 688.44841725 C-6.99809035 685.38809807 2.04613028 683.01974588 11.32084984 680.9991985 C14.96718063 680.33820942 14.96718063 680.33820942 17.19584984 679.1241985 C44.41683426 672.80515601 73.13574798 674.23696858 100.82084984 675.9366985 C101.97947532 676.006469 103.13810081 676.07623951 104.33183616 676.14812428 C112.48083314 676.74725392 120.24243503 678.29641066 128.19584984 680.1241985 C129.92331142 680.46625838 131.65215868 680.8015444 133.38334984 681.1241985 C137.81663845 681.97591404 142.06796444 683.24268493 146.35991234 684.63591725 C154.69584964 686.07116816 162.57295683 682.50403512 170.32084984 679.8116985 C172.75760694 678.98139009 175.19509909 678.15323547 177.63334984 677.3273235 C178.78448265 676.93738209 179.93561546 676.54744068 181.12163109 676.14568287 C185.53991644 674.67759949 189.99144254 673.42650495 194.48100609 672.194511 C199.60888591 670.71707769 204.67972338 669.07439704 209.75834984 667.4366985 C219.05299804 664.43962855 228.36491954 661.50633913 237.69584984 658.6241985 C253.99950364 653.58169736 270.28428658 648.48219865 286.44584984 642.9991985 C293.84695291 640.48950241 301.33036049 638.3434151 308.85502952 636.23747975 C314.2358781 634.72016474 319.48375638 633.03097318 324.71147484 631.04216725 C329.79386641 629.16423954 335.00839882 627.6819952 340.19584984 626.1241985 C351.8473663 622.62043868 363.47091575 619.08319439 374.99516624 615.178886 C379.22310483 613.7552992 383.45852561 612.44417392 387.75834984 611.2491985 C397.54399355 608.52094299 407.18345782 605.32183925 416.84965843 602.20183522 C420.17811131 601.12991116 423.5087648 600.06515266 426.84038109 599.00310475 C440.13711399 594.76580187 440.13711399 594.76580187 453.38334984 590.3741985 C457.79718293 588.88915498 462.21931559 587.52025459 466.70366234 586.2648235 C474.13121722 584.15850929 481.51049786 581.91380701 488.88334984 579.6241985 C490.11118187 579.24650318 491.3390139 578.86880787 492.60405296 578.47966725 C499.17614137 576.44186466 505.66610904 574.28921623 512.09746116 571.84099537 C514.19584984 571.1241985 514.19584984 571.1241985 516.19584984 571.1241985 C515.91096702 571.82673756 515.62608421 572.52927662 515.33256859 573.25310475 C514.5824986 575.14761142 513.85533472 577.05136888 513.15288109 578.96404225 C511.03643731 584.69216481 508.73712218 590.19060802 505.94584984 595.6241985 C502.50386542 602.33644143 499.54553048 609.20077151 496.61406273 616.1488567 C493.87980301 622.60226943 490.99330336 628.96205671 487.93437523 635.26799732 C486.26167103 638.74248756 484.73316893 642.23286501 483.32475609 645.82341725 C480.92870304 651.90507991 478.19122776 657.81889396 475.44584984 663.7491985 C474.93924827 664.84876881 474.43264671 665.94833912 473.91069359 667.08122975 C472.67463082 669.76325272 471.4363132 672.44420875 470.19584984 675.1241985 C471.07805198 675.1335442 471.96025413 675.1428899 472.86918968 675.15251881 C504.16833423 675.5640842 533.98854953 677.98866233 564.26079124 686.33415943 C568.29825369 687.42093605 572.36549876 688.34027797 576.44584984 689.2491985 C585.73647255 691.37684817 595.09604446 693.90190643 603.84428734 697.71404225 C607.38492048 699.3349285 607.38492048 699.3349285 612.19584984 700.1241985 C612.19584984 737.0841985 612.19584984 774.0441985 612.19584984 812.1241985 C605.8164643 810.84832139 600.30190667 809.60906688 594.32084984 807.4366985 C573.86733391 800.35536139 552.44555667 796.05271573 531.19584984 792.1241985 C530.34249046 791.96435475 529.48913109 791.804511 528.60991234 791.6398235 C491.16622608 784.70137684 453.58136136 786.73214038 418.25444359 801.29216725 C416.59174195 801.96418897 414.89719369 802.55708388 413.19584984 803.1241985 C411.96287975 805.03226499 411.96287975 805.03226499 410.95366234 807.4523235 C410.53342796 808.38375172 410.11319359 809.31517994 409.68022484 810.27483326 C409.23163109 811.29762379 408.78303734 812.32041432 408.32084984 813.3741985 C407.84905296 814.42728199 407.37725609 815.48036549 406.89116234 816.56536061 C405.59520312 819.46123042 404.30846638 822.36102753 403.02360862 825.26183277 C401.58970536 828.48795652 400.13833874 831.7062029 398.68803734 834.92497975 C393.12003311 847.23340396 393.12003311 847.23340396 387.70366234 859.6085735 C385.50523599 864.73443804 383.21188899 869.8172317 380.92702049 874.90505177 C380.05835125 876.83953219 379.19061404 878.77442857 378.3230471 880.70940357 C375.71775335 886.51828995 373.10788602 892.32503133 370.48100609 898.1241985 C369.87893333 899.45511524 369.87893333 899.45511524 369.26469749 900.8129192 C368.54102355 902.41127974 367.81560502 904.00885228 367.08793968 905.60539967 C365.40477485 909.32422241 363.81312093 913.05731264 362.32475609 916.8585735 C359.86263778 923.08197806 357.02586593 929.12387937 354.19584984 935.1866985 C349.6632598 944.92259847 349.6632598 944.92259847 345.25981468 954.71721607 C342.8654862 960.13384859 340.43139884 965.53286587 338.00834984 970.9366985 C337.43103643 972.22462069 336.85372526 973.51254387 336.27641624 974.80046803 C332.52792877 983.16150911 328.77275833 991.51952456 324.99980491 999.86955982 C323.4953598 1003.20521568 322.00848828 1006.54486953 320.57866234 1009.913261 C319.52153126 1012.36795519 318.42795577 1014.75476401 317.19584984 1017.1241985 C341.32172889 1012.99537628 363.08648337 1001.94800897 385.05522484 991.59587818 C400.10070782 984.5456472 415.33106317 978.44416743 431.00834984 972.9366985 C431.9876345 972.59122975 432.96691917 972.245761 433.97587913 971.8898235 C439.33365126 970.02672708 444.63452458 968.26104399 450.19584984 967.1241985 C451.05670189 966.94268238 451.91755394 966.76116627 452.80449241 966.57414967 C463.53643575 964.6119109 474.32002533 964.72840026 485.19584984 964.7491985 C486.21308128 964.74940998 487.23031273 964.74962147 488.27836937 964.74983937 C512.04941555 964.79907459 534.58951021 967.72265436 557.67534202 973.50066334 C560.12713641 974.10719984 562.58473734 974.67696414 565.04741234 975.23747975 C581.08032926 978.96154649 596.91381645 984.01138514 612.19584984 990.1241985 C612.19584984 1026.7541985 612.19584984 1063.3841985 612.19584984 1101.1241985 C606.1137768 1099.90778389 600.88644009 1098.83709922 595.13334984 1096.9366985 C578.86410346 1091.70951097 562.44395596 1087.12799102 545.66850609 1083.850761 C542.19584984 1083.1241985 542.19584984 1083.1241985 540.19584984 1082.1241985 C537.62742896 1081.68485595 535.06881102 1081.29107069 532.48881859 1080.93279225 C531.70452476 1080.82286442 530.92023094 1080.71293659 530.11217064 1080.59967762 C487.99459254 1074.79630021 450.72515831 1076.63267171 411.19584984 1093.1241985 C410.41371116 1093.44726979 409.63157249 1093.77034107 408.82573265 1094.1032024 C396.44102783 1099.23741517 384.267005 1104.80895961 372.13969749 1110.51921803 C360.44381799 1116.01036007 348.72337158 1120.77647718 336.44584984 1124.8116985 C335.27924827 1125.2016399 334.11264671 1125.59158131 332.91069359 1125.99333912 C329.68023349 1127.0634519 326.44092724 1128.09943721 323.19584984 1129.1241985 C322.51885032 1129.35671314 321.84185081 1129.58922779 321.14433616 1129.82878834 C314.79319341 1131.7796513 308.1044398 1131.42415514 301.52470726 1131.38494068 C299.39851837 1131.37427459 297.27318402 1131.38485001 295.14702171 1131.397636 C288.1257091 1131.40378219 281.40621699 1131.09843616 274.52128929 1129.55290943 C272.03326907 1129.0942256 269.72018036 1129.05360352 267.19584984 1129.1241985 C266.90194359 1129.91117115 266.90194359 1129.91117115 266.60209984 1130.71404225 C264.0672211 1137.28068932 261.13525621 1143.6225767 258.10209984 1149.96965748 C257.77081077 1150.6638982 257.43952171 1151.35813893 257.09819359 1152.07341725 C256.80420677 1152.6853191 256.51021995 1153.29722096 256.20732445 1153.92766529 C254.80788072 1156.96671796 253.5117404 1160.04811994 252.19584984 1163.1241985 C251.20225813 1165.36345034 250.20342044 1167.60038071 249.19975609 1169.835136 C248.92493904 1170.4475716 248.65012199 1171.06000721 248.36697716 1171.69100147 C247.49798574 1173.62731508 246.62820779 1175.56327403 245.75834984 1177.4991985 C243.56952752 1182.37360583 241.38187596 1187.24853648 239.19584984 1192.1241985 C238.81646263 1192.96998463 238.43707542 1193.81577076 238.04619163 1194.68718678 C235.980667 1199.31082727 233.97850003 1203.95887025 231.99980491 1208.62029225 C227.92283597 1218.22029259 223.66558606 1227.70122093 219.19584984 1237.1241985 C218.12931855 1239.39314126 217.066686 1241.66392159 216.00834984 1243.9366985 C215.3373928 1245.36949147 215.3373928 1245.36949147 214.65288109 1246.83122975 C213.48666253 1249.46694622 212.40760518 1252.10261723 211.35600609 1254.78435475 C209.0696452 1260.54787828 206.45480374 1266.13797899 203.82084984 1271.7491985 C199.11358723 1281.85555866 194.57590177 1292.02411023 190.13334984 1302.2491985 C185.48641737 1312.944309 180.75752669 1323.59185595 175.83427757 1334.16374928 C173.21184506 1339.8146951 170.7701052 1345.51823688 168.39433616 1351.27703053 C166.73443189 1355.22035986 164.92359524 1359.08108404 163.07084984 1362.9366985 C160.66862973 1367.95910077 158.38482831 1373.00384486 156.19584984 1378.1241985 C154.13707882 1382.68141182 152.04661007 1387.2242711 149.95561546 1391.76677662 C147.95145115 1396.14917537 146.00611484 1400.5303923 144.25053734 1405.01872975 C141.84500638 1411.13140216 139.04393346 1417.05244694 136.25834984 1422.9991985 C132.76353823 1430.46358857 129.37685313 1437.94006574 126.27177757 1445.57610279 C125.33307171 1447.799219 124.31989451 1449.92800966 123.19584984 1452.0616985 C121.50301874 1455.33316177 120.21813692 1458.66781859 118.94584984 1462.1241985 C117.09554656 1467.03591265 114.97247465 1471.71289029 112.57084984 1476.3741985 C105.59325651 1489.96882537 99.48038775 1504.0709732 93.94584984 1518.3116985 C91.58052207 1524.35793979 88.81162726 1530.06955015 85.85991234 1535.8429485 C82.74319061 1541.98859697 79.93337207 1548.23224698 77.42241234 1554.647636 C74.94376033 1560.87808946 72.10190328 1566.92869114 69.25834984 1572.9991985 C65.77155116 1580.44647417 62.40166689 1587.91138176 59.27421898 1595.5172649 C58.04047332 1598.4998178 56.7334337 1601.44258782 55.38334984 1604.3741985 C54.96440452 1605.28685475 54.54545921 1606.199511 54.11381859 1607.1398235 C53.8108889 1607.79466725 53.50795921 1608.449511 53.19584984 1609.1241985 C52.19350929 1606.02906372 52.19313554 1604.29852431 53.30522484 1601.25310475 C53.5636013 1600.52140064 53.82197777 1599.78969654 54.08818382 1599.03581959 C54.5127285 1597.87300465 54.5127285 1597.87300465 54.94584984 1596.6866985 C56.76211802 1591.49220244 58.49079433 1586.3917694 59.63334984 1580.9991985 C61.63042754 1571.69885409 64.50835598 1562.63442642 67.20024437 1553.5172649 C68.93569684 1547.60276797 70.62883867 1541.67624351 72.32084984 1535.7491985 C72.66059837 1534.56068287 73.00034691 1533.37216725 73.35039085 1532.147636 C75.20996405 1525.62847905 77.0331685 1519.10086796 78.82084984 1512.5616985 C80.44239251 1506.63409678 82.2418148 1500.78337149 84.13334984 1494.9366985 C86.71290279 1486.95016459 88.87015291 1478.891785 90.94121116 1470.76018482 C92.80595167 1463.48592902 94.89070021 1456.30091548 97.08647484 1449.12053639 C98.55381069 1444.30873669 99.92642412 1439.49207892 101.19584984 1434.6241985 C102.72910023 1428.74673866 104.43058171 1422.93598751 106.19584984 1417.1241985 C107.935011 1411.39532329 109.6199522 1405.66797828 111.13334984 1399.8741985 C112.79346199 1393.52751458 114.59903066 1387.23149061 116.44584984 1380.9366985 C119.10188297 1371.88292657 121.72860098 1362.82145723 124.32084984 1353.7491985 C124.66067894 1352.56052174 125.00050804 1351.37184498 125.35063499 1350.14714772 C127.20997877 1343.62811257 129.0332158 1337.10069496 130.82084984 1330.5616985 C132.4423898 1324.63410667 134.24162288 1318.78330388 136.13334984 1312.9366985 C138.69963562 1304.99932656 140.8230948 1296.99051199 142.8687014 1288.90520436 C144.88166396 1281.06396719 147.28644627 1273.38913012 149.79887718 1265.6957317 C151.64016371 1260.01182735 153.15117681 1254.36265647 154.39116234 1248.5148235 C155.66487249 1243.1479283 157.32304357 1237.90115483 158.93437523 1232.62761647 C160.45180387 1227.64654306 161.88392022 1222.66332563 163.19584984 1217.6241985 C164.91421497 1211.04186594 166.85824845 1204.54365049 168.8398928 1198.03630787 C170.787306 1191.59627477 172.57826277 1185.12236544 174.32084984 1178.6241985 C176.09776034 1171.99842087 178.01810993 1165.49190616 180.27397484 1159.01091725 C181.37430228 1155.56540038 182.22942706 1152.07688095 183.07084984 1148.5616985 C184.72092034 1141.67061857 186.78555889 1134.96709758 188.97343773 1128.22966725 C190.90507289 1122.21602796 192.53675024 1116.16837856 193.99077171 1110.022636 C195.11148569 1105.29292679 195.11148569 1105.29292679 196.19584984 1103.1241985 C195.64799827 1102.97724537 195.10014671 1102.83029225 194.53569359 1102.678886 C189.35506981 1101.21314854 184.4190785 1099.43855756 179.44584984 1097.3741985 C165.64218449 1091.72910154 151.3535917 1087.49973441 136.88334984 1083.9366985 C135.98632347 1083.71111256 135.0892971 1083.48552662 134.16508812 1083.25310475 C130.85545903 1082.46805913 127.53331788 1081.77779466 124.19584984 1081.1241985 C123.35825126 1080.95763752 122.52065269 1080.79107655 121.65767235 1080.61946827 C105.76471782 1077.54249521 90.32635507 1076.51704689 74.15312523 1076.65764576 C70.47225679 1076.6869862 66.79280479 1076.67811262 63.11186546 1076.66521412 C51.335811 1076.67630917 40.6056735 1077.08486534 29.19584984 1080.1241985 C25.9359435 1080.67357366 22.66206498 1081.07915812 19.38334984 1081.4991985 C10.67439259 1082.71252329 2.52486545 1084.8292733 -5.8344236 1087.50994068 C-10.00581232 1088.81078526 -14.24096385 1089.90116455 -18.46040016 1091.03435475 C-21.13912539 1091.90744392 -23.54598691 1092.87502645 -26.09711891 1094.04216725 C-30.83283121 1096.1990608 -35.66192966 1097.80150284 -40.61665016 1099.3741985 C-48.73082755 1102.009936 -56.64199521 1104.97319152 -64.53681618 1108.20207936 C-71.91347841 1111.20776659 -79.38577877 1113.86720851 -86.91669899 1116.45647389 C-88.81942148 1117.12960104 -90.69907133 1117.84954941 -92.58149391 1118.5773235 C-101.77506629 1122.04527017 -111.34153023 1124.51127056 -120.80415016 1127.1241985 C-122.04116677 1127.47611256 -122.04116677 1127.47611256 -123.3031736 1127.835136 C-163.92953637 1139.13864955 -199.94051181 1123.83519401 -236.18038613 1107.02088124 C-244.40804437 1103.20382372 -252.6717476 1099.48591133 -261.00285012 1095.89980274 C-262.66621672 1095.18358992 -264.32721359 1094.46188021 -265.98798805 1093.73967701 C-273.38298053 1090.57859403 -280.89670515 1087.95076035 -288.55415016 1085.4991985 C-289.78190163 1085.10603443 -291.00965309 1084.71287037 -292.27460915 1084.30779225 C-330.10250341 1072.43865038 -370.73172545 1075.87269955 -408.80415016 1085.1241985 C-409.47333473 1085.28388111 -410.1425193 1085.44356373 -410.8319822 1085.60808522 C-414.80975762 1086.56116446 -418.77361531 1087.56099284 -422.73237282 1088.59001881 C-424.91358951 1089.15241595 -427.09874857 1089.69737629 -429.28461891 1090.241386 C-439.02872938 1092.69981855 -448.54675682 1095.58370453 -458.03925759 1098.88909107 C-458.87948464 1099.17937184 -459.71971169 1099.4696526 -460.58540016 1099.76872975 C-461.3285447 1100.03016773 -462.07168923 1100.29160572 -462.83735329 1100.56096607 C-464.80415016 1101.1241985 -464.80415016 1101.1241985 -467.80415016 1101.1241985 C-467.80415016 1064.4941985 -467.80415016 1027.8641985 -467.80415016 990.1241985 C-453.48349852 984.15726031 -453.48349852 984.15726031 -447.61665016 982.3116985 C-446.47812599 981.95156666 -446.47812599 981.95156666 -445.31660134 981.58415943 C-433.41170855 977.95064767 -421.23039237 975.21985483 -409.11536843 972.38585621 C-405.99755228 971.65528014 -402.90290302 970.88281523 -399.81977516 970.01872975 C-393.97518226 968.54382907 -387.90261681 968.02226137 -381.92548805 967.31926686 C-379.77023036 967.06506933 -377.61630356 966.80132979 -375.46235329 966.53630787 C-366.25381023 965.42283979 -357.06582783 964.64364719 -347.80415016 964.1241985 C-347.56913796 963.40884938 -347.33412575 962.69350025 -347.09199196 961.95647389 C-344.08216377 952.81637836 -340.89168933 943.74075876 -337.69770485 934.66374928 C-336.83877153 932.22259508 -335.9815077 929.7808599 -335.12446266 927.33904225 C-334.60115446 925.85071553 -334.07772311 924.3624321 -333.55415016 922.8741985 C-333.32034645 922.20815602 -333.08654274 921.54211354 -332.84565407 920.85588795 C-331.70332588 917.61574804 -330.53393009 914.38894244 -329.31977516 911.17497975 C-327.47299874 906.27923503 -325.76336106 901.33691545 -324.05415016 896.39177662 C-322.90148384 893.09286961 -321.69750425 889.87619777 -320.31586891 886.663261 C-318.54682642 882.52178166 -317.07663048 878.31969214 -315.61665016 874.0616985 C-313.07639302 866.72499883 -310.47206728 859.41542865 -307.80415016 852.1241985 C-304.04066655 841.82390011 -300.40519805 831.48220155 -296.80415016 821.1241985 C-295.53503233 817.47776496 -294.26376967 813.83208575 -292.99165016 810.1866985 C-292.70153054 809.35186939 -292.41141091 808.51704029 -292.11249977 807.65691334 C-290.75816706 803.77563781 -289.37769047 799.92372266 -287.80415016 796.1241985 C-294.76424941 794.01701249 -301.80627061 792.43643262 -308.92915016 790.9991985 C-309.76349587 790.82871998 -310.59784157 790.65824147 -311.45747048 790.48259693 C-340.38441943 784.75189377 -371.156671 788.38979727 -399.80415016 794.1241985 C-400.76063454 794.31385182 -401.71711891 794.50350514 -402.70258766 794.69890553 C-420.61091525 798.29677496 -438.15014465 802.97842191 -455.38227516 809.0460735 C-459.45096403 810.32798917 -463.63987565 811.19880416 -467.80415016 812.1241985 C-467.80415016 775.4941985 -467.80415016 738.8641985 -467.80415016 701.1241985 C-454.96401729 695.41747277 -442.09181518 691.49051958 -428.49165016 688.0616985 C-427.12217338 687.71318888 -425.75270736 687.36463695 -424.38325173 687.0160442 C-411.34342988 683.71029264 -398.33501854 680.61164663 -385.05415016 678.4366985 C-384.33388649 678.31705738 -383.61362282 678.19741627 -382.87153298 678.07414967 C-369.64694614 676.02875877 -356.29005872 675.8846096 -342.93793923 675.82903248 C-341.02249946 675.81751909 -339.10709161 675.79707741 -337.19184548 675.76750904 C-324.14736604 675.56739233 -312.383588 676.62982157 -299.80415016 680.1241985 C-298.6895945 680.42269703 -297.57503884 680.72119557 -296.42670876 681.02873951 C-293.55681301 681.82716813 -290.710979 682.67689211 -287.86665016 683.5616985 C-286.88865456 683.86245289 -285.91065895 684.16320729 -284.90302712 684.47307545 C-278.27072775 686.5558959 -272.03537581 689.04048615 -265.80415016 692.1241985 C-264.00027657 692.91500841 -262.18768248 693.68624426 -260.36665016 694.4366985 C-259.58418923 694.76283131 -258.80172829 695.08896412 -257.99555641 695.42497975 C-255.55240573 696.32684822 -255.55240573 696.32684822 -251.80415016 696.1241985 C-251.62352028 695.607365 -251.4428904 695.0905315 -251.25678688 694.55803639 C-245.9131122 679.27134604 -240.55652932 663.98970808 -235.09321266 648.74529225 C-234.14208534 646.07348914 -233.19950945 643.39948844 -232.26508766 640.72185475 C-232.00147438 639.96839772 -231.7378611 639.21494068 -231.46625954 638.43865162 C-230.95769867 636.98363752 -230.4510524 635.52795216 -229.94672829 634.07146412 C-228.83227976 630.88688928 -227.6595473 627.78844513 -226.32368141 624.6866985 C-224.55357738 620.53673736 -223.07929575 616.32746532 -221.61665016 612.0616985 C-219.07639546 604.72500587 -216.47244197 597.41528807 -213.80415016 590.1241985 C-210.85318816 582.05918723 -207.99159757 573.96723769 -205.18061501 565.85246998 C-203.44447849 560.86829031 -201.61620159 555.94788333 -199.53071266 551.09685475 C-198.68572965 548.80268042 -198.23058302 546.52810923 -197.80415016 544.1241985 C-198.73227516 544.0623235 -199.66040016 544.0004485 -200.61665016 543.9366985 C-206.12238461 543.12063114 -210.82111421 540.49327616 -215.80415016 538.1241985 C-218.75625996 536.77698537 -221.71783362 535.45102986 -224.67915016 534.1241985 C-226.40711917 533.34838936 -228.13497788 532.57233455 -229.86274391 531.7960735 C-230.79973122 531.37519459 -231.73671852 530.95431568 -232.70209938 530.52068287 C-235.53497114 529.24537778 -238.36579627 527.96562688 -241.1958738 526.68413502 C-243.74492683 525.53064374 -246.29535323 524.38020809 -248.84595925 523.23015553 C-250.68648326 522.39910789 -252.52537258 521.56444286 -254.36420876 520.72966725 C-262.08438212 517.2524388 -269.87282776 514.08600893 -277.80415016 511.1241985 C-278.56590554 510.83125904 -279.32766091 510.53831959 -280.11249977 510.23650318 C-316.90210445 496.12836875 -357.55538942 495.85652379 -395.80415016 504.1241985 C-396.80019264 504.33560475 -397.79623513 504.547011 -398.82246071 504.7648235 C-412.9427496 507.78579941 -426.97222448 510.96508607 -440.80415016 515.1241985 C-441.88092018 515.44735035 -441.88092018 515.44735035 -442.97944313 515.77703053 C-449.24772505 517.67131452 -455.50841041 519.56683498 -461.61665016 521.9366985 C-464.80415016 523.1241985 -464.80415016 523.1241985 -467.80415016 523.1241985 C-467.80415016 486.4941985 -467.80415016 449.8641985 -467.80415016 412.1241985 C-430.17913253 395.40196844 -385.73583786 386.55900852 -344.67329079 386.56829029 C-341.4370671 386.56171458 -338.20390108 386.50690925 -334.96821266 386.45037037 C-314.9122431 386.28739859 -296.47005395 390.71360993 -277.86665016 398.0616985 C-276.67974587 398.52060475 -275.49284157 398.979511 -274.26997048 399.4523235 C-261.17997967 404.57393565 -248.44047909 410.50318448 -235.68987709 416.40679127 C-198.69500584 433.55043405 -198.69500584 433.55043405 -158.80415016 440.1241985 C-158.70102516 439.1135735 -158.59790016 438.1029485 -158.49165016 437.0616985 C-157.77967156 432.98400287 -156.49445316 429.89081118 -154.80415016 426.1241985 C-153.74099477 423.16558501 -152.77324653 420.17726932 -151.80415016 417.1866985 C-150.14130333 412.08123907 -148.42359926 407.01690229 -146.5141111 401.99797779 C-145.44607548 399.17914238 -144.43910704 396.33927858 -143.42915016 393.4991985 C-142.99860329 392.29134693 -142.56805641 391.08349537 -142.12446266 389.83904225 C-141.26302567 387.41529496 -140.40355814 384.99084652 -139.54633766 382.56560475 C-137.57801289 377.01344334 -135.5734191 371.4860043 -133.42915016 365.9991985 C-131.00713958 359.75931452 -128.79876259 353.45563541 -126.60590798 347.13274342 C-124.35922285 340.66898921 -122.03410254 334.23671951 -119.67915016 327.8116985 C-116.9467791 320.35503701 -114.33666757 312.8771318 -111.90961891 305.31560475 C-110.80415016 302.1241985 -110.80415016 302.1241985 -109.35493141 298.772636 C-107.59784411 294.63883363 -106.18776561 290.45644928 -104.80415016 286.1866985 C-103.16478029 281.15332069 -101.46855387 276.16380902 -99.58540016 271.21623951 C-97.76175328 266.3328551 -96.1033692 261.38780978 -94.40961891 256.45818287 C-92.71948079 251.58507537 -90.84136239 246.8651515 -88.80415016 242.1241985 C-87.69357452 239.11980288 -86.65543895 236.09154936 -85.61665016 233.0616985 C-83.04112962 225.61829108 -80.39073784 218.20658728 -77.67915016 210.8116985 C-74.94666576 203.35508114 -72.33666598 195.87712682 -69.90961891 188.31560475 C-68.93649605 185.50627124 -67.806133 182.82485279 -66.61396462 180.10393482 C-64.95402625 176.04591849 -63.66056964 171.85369019 -62.30415016 167.6866985 C-60.26324599 161.44367067 -58.14851519 155.26014831 -55.80415016 149.1241985 C-52.31135049 139.63588442 -48.92022022 130.10984216 -45.55024391 120.5773235 C-43.58088853 115.02114844 -41.57492053 109.48984621 -39.42915016 103.9991985 C-36.95048438 97.6199364 -34.70361946 91.16979959 -32.46308571 84.70427662 C-30.63213475 79.43812236 -28.72978103 74.20786499 -26.74165016 68.9991985 C-24.27565495 62.5288419 -22.04185793 55.99586525 -19.8957029 49.41277272 C-18.54076631 45.2677583 -17.09680358 41.1746492 -15.54755837 37.09831959 C-14.31031582 33.81282098 -13.15383233 30.49933176 -11.99165016 27.1866985 C-11.61133644 26.10775318 -11.61133644 26.10775318 -11.22333962 25.007011 C-9.84651516 21.09958911 -8.47792139 17.18940924 -7.11665016 13.27654225 C-6.84441628 12.4972234 -6.57218239 11.71790455 -6.29169899 10.91496998 C-5.76567644 9.40881508 -5.24200619 7.90183621 -4.72089821 6.39397389 C-2.54533435 0.17522194 -2.54533435 0.17522194 0 0 Z " fill="#E21E24" transform="translate(714.8041501641273,276.8758015036583)"/>
<path d="M0 0 C519.42 0 1038.84 0 1574 0 C1574 660 1574 1320 1574 2000 C1054.58 2000 535.16 2000 0 2000 C0 1340 0 680 0 0 Z M46 46 C46 675.64 46 1305.28 46 1954 C535.06 1954 1024.12 1954 1528 1954 C1528 1324.36 1528 694.72 1528 46 C1038.94 46 549.88 46 46 46 Z " fill="#000000" transform="translate(0,0)"/>
<path d="M0 0 C0.98816711 -0.00199402 1.97633423 -0.00398804 2.9944458 -0.00604248 C21.997767 -0.00170517 40.92305642 0.87888121 59.5 5.125 C60.67344971 5.38450439 61.84689941 5.64400879 63.0559082 5.91137695 C73.0058831 8.17307519 82.67240048 11.05201312 92.3125 14.375 C96.89383804 15.92612039 101.46312077 17.45643351 106.125 18.75 C110.78627542 20.13559254 115.17574732 21.94380222 119.64453125 23.8515625 C124.33522709 25.79977483 129.06755319 27.62611979 133.8125 29.4375 C135.17580444 29.95932861 135.17580444 29.95932861 136.56665039 30.49169922 C142.43073196 32.71639014 148.30179198 34.74336844 154.328125 36.48828125 C154.98296875 36.78089844 155.6378125 37.07351563 156.3125 37.375 C157.59148165 41.21194494 156.79271623 42.85387279 155.62109375 46.69921875 C155.24581543 47.95395996 154.87053711 49.20870117 154.48388672 50.50146484 C154.28784851 51.14694275 154.0918103 51.79242065 153.88983154 52.4574585 C153.00835618 55.38517934 152.17962814 58.32741838 151.34765625 61.26953125 C150.69020222 63.57554879 150.03264834 65.88153787 149.375 68.1875 C149.0258252 69.41235107 148.67665039 70.63720215 148.31689453 71.89916992 C146.47733453 78.34018369 144.60965604 84.77072638 142.6875 91.1875 C140.41082133 98.79816634 138.45461325 106.48601836 136.4831543 114.18041992 C134.91399366 120.24473719 133.19780513 126.17444819 131.07421875 132.0703125 C130.27572473 134.48626878 129.76220486 136.87268188 129.3125 139.375 C124.59583435 138.87850888 120.72952933 137.40424188 116.3984375 135.609375 C110.47950402 133.24180161 104.44420527 131.19273426 98.42041016 129.10986328 C96.52922894 128.45055642 94.64497357 127.77146183 92.76171875 127.08984375 C85.0870786 124.38677117 77.33410411 122.25960786 69.4375 120.3125 C68.51324219 120.07917969 67.58898437 119.84585937 66.63671875 119.60546875 C63.20905566 118.78610706 59.76911572 118.05913665 56.3125 117.375 C55.04489334 117.12195602 55.04489334 117.12195602 53.75167847 116.86380005 C37.86844748 113.78450152 22.43346169 112.76793136 6.26977539 112.90844727 C2.58890695 112.9377877 -1.09054505 112.92891412 -4.77148438 112.91601562 C-16.54753884 112.92711067 -27.27767634 113.33566685 -38.6875 116.375 C-41.94740634 116.92437517 -45.22128486 117.32995963 -48.5 117.75 C-57.20895724 118.96332479 -65.35848439 121.0800748 -73.71777344 123.76074219 C-77.88916216 125.06158676 -82.12431369 126.15196605 -86.34375 127.28515625 C-89.02247522 128.15824543 -91.42933675 129.12582795 -93.98046875 130.29296875 C-98.71618105 132.4498623 -103.54527949 134.05230434 -108.5 135.625 C-116.61417739 138.2607375 -124.52534505 141.22399302 -132.42016602 144.45288086 C-139.79682825 147.4585681 -147.26912861 150.11801002 -154.80004883 152.70727539 C-156.70277132 153.38040254 -158.58242116 154.10035091 -160.46484375 154.828125 C-169.65841613 158.29607168 -179.22488007 160.76207206 -188.6875 163.375 C-189.51217773 163.60960937 -190.33685547 163.84421875 -191.18652344 164.0859375 C-231.8128862 175.38945106 -267.82386165 160.08599551 -304.06373596 143.27168274 C-312.2913942 139.45462523 -320.55509743 135.73671283 -328.88619995 132.15060425 C-330.54956655 131.43439142 -332.21056343 130.71268172 -333.87133789 129.99047852 C-341.26633036 126.82939553 -348.78005498 124.20156185 -356.4375 121.75 C-357.66525146 121.35683594 -358.89300293 120.96367188 -360.15795898 120.55859375 C-397.98585324 108.68945189 -438.61507529 112.12350106 -476.6875 121.375 C-477.35668457 121.53468262 -478.02586914 121.69436523 -478.71533203 121.85888672 C-482.69310745 122.81196597 -486.65696515 123.81179434 -490.61572266 124.84082031 C-492.79693934 125.40321745 -494.98209841 125.94817779 -497.16796875 126.4921875 C-506.91207921 128.95062005 -516.43010666 131.83450603 -525.92260742 135.13989258 C-527.182948 135.57531372 -527.182948 135.57531372 -528.46875 136.01953125 C-529.5834668 136.41168823 -529.5834668 136.41168823 -530.72070312 136.81176758 C-532.6875 137.375 -532.6875 137.375 -535.6875 137.375 C-535.6875 100.745 -535.6875 64.115 -535.6875 26.375 C-521.36684835 20.40806181 -521.36684835 20.40806181 -515.5 18.5625 C-514.74098389 18.32241211 -513.98196777 18.08232422 -513.19995117 17.83496094 C-501.29496947 14.20142204 -489.11363452 11.47131712 -476.99871826 8.63652039 C-473.88149075 7.90590938 -470.78649647 7.13463905 -467.703125 6.2734375 C-461.85384583 4.79894999 -455.78879749 4.23522604 -449.80883789 3.51513672 C-447.65304119 3.25340444 -445.49950927 2.97679523 -443.34570312 2.69921875 C-434.07229253 1.54566491 -425.03413777 1.14560338 -415.6875 1.375 C-417.80582458 7.86310868 -420.08383495 14.28145275 -422.4375 20.6875 C-425.12931226 28.04051559 -427.7558834 35.41146511 -430.3125 42.8125 C-433.18486177 51.10961357 -436.33140703 59.26136865 -439.6875 67.375 C-439.01920166 67.10349121 -438.35090332 66.83198242 -437.66235352 66.55224609 C-415.23057616 57.45791824 -415.23057616 57.45791824 -404.23388672 53.70898438 C-396.63494434 51.08020065 -389.20489285 48.02329783 -381.765625 44.9765625 C-375.67292029 42.49870576 -369.55841451 40.26564675 -363.29296875 38.26171875 C-360.94627588 37.46306915 -358.740949 36.55439337 -356.5 35.5 C-351.44515811 33.15277909 -346.19611065 31.40912851 -340.93164062 29.59960938 C-336.35268955 28.0109937 -331.95609362 26.27199796 -327.64453125 24.0390625 C-322.29916217 22.22526461 -318.11551894 23.76943581 -313.22265625 26.11328125 C-312.62625839 26.39471481 -312.02986053 26.67614838 -311.41539001 26.96611023 C-309.52159188 27.8625011 -307.63580112 28.77442355 -305.75 29.6875 C-303.86619353 30.58622108 -301.98087182 31.48169884 -300.09532166 32.37675476 C-298.38018484 33.19305353 -296.66861877 34.01684251 -294.95727539 34.84106445 C-291.56454133 36.43268307 -288.13944719 37.91669606 -284.6875 39.375 C-283.83212646 39.73907959 -282.97675293 40.10315918 -282.09545898 40.47827148 C-249.9235766 54.05500776 -217.75608255 59.74642041 -183.6875 49.375 C-182.72924316 49.08608887 -181.77098633 48.79717773 -180.78369141 48.49951172 C-175.22861216 46.80543534 -169.70724342 45.02422488 -164.19750977 43.1887207 C-161.61633005 42.35192739 -159.02196175 41.57897123 -156.41796875 40.81640625 C-152.75272079 39.72838669 -149.25706403 38.47215499 -145.75 36.9375 C-138.81266501 33.97944853 -131.76276013 31.44198913 -124.640625 28.96875 C-123.91641357 28.71601318 -123.19220215 28.46327637 -122.44604492 28.20288086 C-121.04116354 27.71324182 -119.63517254 27.22676776 -118.2277832 26.74438477 C-114.05671212 25.29168587 -109.98313751 23.67980237 -105.9140625 21.9609375 C-88.38448863 14.59103476 -70.30895042 8.90041106 -51.69970703 5.00830078 C-49.76978382 4.60254452 -47.84317062 4.18049871 -45.92138672 3.73779297 C-30.66736255 0.26208802 -15.57373813 0.00825577 0 0 Z " fill="#01A0E1" transform="translate(782.6875,1240.625)"/>
<path d="M0 0 C26.0875522 -0.28272224 51.25460121 6.29138029 76 14 C77.2375 14.38285156 78.475 14.76570312 79.75 15.16015625 C85.64174547 17.05502751 91.29944311 19.34564431 96.98828125 21.77734375 C100.02277506 23.0092459 103.07175324 24.0555096 106.1875 25.0625 C109.63791796 26.1799902 112.95673558 27.3564739 116.25 28.875 C128.97004962 34.7125942 142.43472463 38.8860073 155.71191406 43.2421875 C158.52639627 44.17434209 161.3243414 45.15222222 164.125 46.125 C169.26257065 47.83259542 174.4612028 49.28045872 179.6875 50.6875 C180.47205566 50.90229004 181.25661133 51.11708008 182.06494141 51.33837891 C212.48687964 59.34213174 247.99708909 53.29210441 275.4296875 38.359375 C277.94125118 37.0310708 280.50287505 35.92512358 283.11599731 34.81466675 C286.01508226 33.56106551 288.86433231 32.20722773 291.71875 30.85546875 C292.99470348 30.25437006 294.27074824 29.65346511 295.546875 29.05273438 C297.51071684 28.12690241 299.47394654 27.19985962 301.43554688 26.26928711 C310.82984199 21.81653429 320.31196116 17.76941499 330 14 C331.43262917 13.42662381 332.86499934 12.85259907 334.296875 12.27734375 C351.11582793 5.75143781 368.84550247 0.6816855 386.984375 0.69921875 C388.00186829 0.69493362 389.01936157 0.6906485 390.06768799 0.68623352 C392.21227278 0.68052689 394.3568769 0.67996265 396.50146484 0.68432617 C399.70055362 0.68745169 402.89868365 0.66409973 406.09765625 0.63867188 C425.64289009 0.57635806 444.53227126 2.72179496 463.5 7.4375 C464.7990466 7.75216238 466.09828521 8.06603304 467.39770508 8.37915039 C470.93542545 9.23889897 474.46844094 10.11533983 478 11 C478.77778809 11.19207031 479.55557617 11.38414062 480.35693359 11.58203125 C484.59703992 12.6343048 488.80248528 13.7910426 493 15 C494.03350586 15.29551758 495.06701172 15.59103516 496.13183594 15.89550781 C499.7780241 16.94229401 503.42070941 18.00052079 507.0625 19.0625 C508.83210083 19.5738147 508.83210083 19.5738147 510.63745117 20.09545898 C511.75869385 20.42618408 512.87993652 20.75690918 514.03515625 21.09765625 C515.0394165 21.39164307 516.04367676 21.68562988 517.07836914 21.98852539 C520 23 520 23 526 26 C526 62.63 526 99.26 526 137 C518.14361702 135.87765957 518.14361702 135.87765957 514.8125 134.6875 C514.04421875 134.42066406 513.2759375 134.15382813 512.484375 133.87890625 C511.66453125 133.58886719 510.8446875 133.29882812 510 133 C472.20095146 119.81560133 430.86894453 111.68381148 390.81787109 112.91455078 C388.55248726 112.98324636 386.28590293 113.01177496 384.01953125 113.02734375 C352.38975566 113.99049161 321.60956379 130.07183534 293.4296875 142.8984375 C292.69496719 143.23276291 291.96024689 143.56708832 291.20326233 143.9115448 C287.58077267 145.56060805 283.95994443 147.21312363 280.3425293 148.87329102 C258.76029919 158.757923 236.55988021 167.46795259 212.5 167.1875 C211.44941406 167.18685547 210.39882813 167.18621094 209.31640625 167.18554688 C191.40862241 167.08593621 175.79018445 162.75921381 159 157 C154.28906915 155.41473965 149.56925351 153.8576379 144.84375 152.31640625 C143.0624881 151.73180708 141.28123821 151.14717135 139.5 150.5625 C138.61441406 150.27568359 137.72882813 149.98886719 136.81640625 149.69335938 C131.73404127 148.01789544 126.86999531 146.1184325 122.00537109 143.89038086 C119.41077179 142.73838382 116.76949417 141.85044417 114.0625 141 C110.49295869 139.87541877 107.01992523 138.6227643 103.5546875 137.21484375 C78.99440258 127.29339769 54.08292478 119.66475846 28 115 C26.62130989 114.74359489 26.62130989 114.74359489 25.21476746 114.48200989 C16.60685948 113.00209146 8.22778422 112.73689372 -0.48828125 112.8046875 C-1.92701519 112.80842951 -3.36575171 112.81127084 -4.80448914 112.81326294 C-8.54445756 112.82080608 -12.28426427 112.84037129 -16.02416992 112.8626709 C-19.85919 112.88333328 -23.69423687 112.89230771 -27.52929688 112.90234375 C-35.01960403 112.9236286 -42.50977914 112.95764791 -50 113 C-49.2649406 108.00571148 -47.79286946 103.87880511 -45.640625 99.33984375 C-45.12938583 98.23814095 -45.12938583 98.23814095 -44.6078186 97.11418152 C-43.49494498 94.71891592 -42.372375 92.32832596 -41.25 89.9375 C-40.08466257 87.43407086 -38.92209781 84.92936766 -37.75985718 82.42449951 C-36.97564517 80.73440817 -36.19066877 79.04467132 -35.40493774 77.35528564 C-31.82202125 69.64406948 -28.33446513 61.89220828 -24.875 54.125 C-21.17330905 45.82737046 -17.42477573 37.56029214 -13.546875 29.34375 C-11.45237132 24.816237 -9.47881837 20.2391002 -7.49829102 15.66088867 C-5.18432971 10.34413742 -2.68219375 5.14190139 0 0 Z " fill="#01A0E1" transform="translate(801,663)"/>
<path d="M0 0 C8.64893069 3.25833227 17.36387871 6.24611919 26.14599609 9.12280273 C31.5931201 10.90838237 37.02331042 12.69233718 42.375 14.75 C49.19844513 17.26390084 56.20915105 19.02615776 63.25 20.8125 C62.53235466 26.96374578 61.07726386 32.82952062 59.5 38.8125 C59.23195557 39.83706299 58.96391113 40.86162598 58.68774414 41.91723633 C56.87443752 48.74035959 54.77518316 55.37161606 52.45703125 62.0390625 C51.04820872 66.44334264 49.95104885 70.88014547 48.875 75.375 C46.87734871 83.70443508 44.41464041 91.81452376 41.76611328 99.95800781 C39.76142447 106.14159239 37.9684294 112.34108607 36.34375 118.63671875 C32.98256301 131.61864701 29.34597232 144.55969967 25.28515625 157.33984375 C24.38380336 160.36362761 23.55316368 163.39153147 22.74609375 166.44140625 C22.47869385 167.44792236 22.21129395 168.45443848 21.93579102 169.49145508 C21.40177508 171.514155 20.87473609 173.53871181 20.35522461 175.56518555 C20.11167236 176.48726807 19.86812012 177.40935059 19.6171875 178.359375 C19.40175293 179.19307617 19.18631836 180.02677734 18.96435547 180.88574219 C18.25 182.8125 18.25 182.8125 16.25 183.8125 C13.32418898 182.93537007 10.49179139 181.98146339 7.625 180.9375 C6.75069336 180.62522461 5.87638672 180.31294922 4.97558594 179.99121094 C-5.11962002 176.36374494 -15.15867901 172.58065587 -25.18945312 168.77929688 C-27.4614535 167.92144776 -29.73786911 167.07677271 -32.015625 166.234375 C-34.42383119 165.31744293 -36.81131757 164.3430944 -39.16796875 163.30078125 C-43.39928228 161.54273277 -47.65694407 160.24283052 -52.0625 159 C-52.9611377 158.74573242 -53.85977539 158.49146484 -54.78564453 158.22949219 C-71.15324349 153.68526015 -87.79739976 149.36555278 -104.75 147.8125 C-105.8793396 147.68766235 -105.8793396 147.68766235 -107.03149414 147.56030273 C-117.80284148 146.48403986 -128.62289441 146.52579689 -139.4375 146.5 C-140.48568909 146.49738159 -141.53387817 146.49476318 -142.61383057 146.49206543 C-158.38549481 146.48784252 -173.32998087 147.25379538 -188.75 150.8125 C-190.30431534 151.14108828 -191.85899177 151.46797421 -193.4140625 151.79296875 C-197.55771467 152.68767828 -201.65527319 153.7172196 -205.75 154.8125 C-207.64685547 155.31330078 -207.64685547 155.31330078 -209.58203125 155.82421875 C-218.95187085 158.40138941 -228.09632099 161.62265258 -237.25 164.875 C-239.04014526 165.51042725 -239.04014526 165.51042725 -240.86645508 166.15869141 C-246.62947768 168.2327807 -252.27282949 170.4158161 -257.84130859 172.96606445 C-260.4438925 174.12021621 -263.10068248 175.01333584 -265.8125 175.875 C-270.51938573 177.37939558 -275.13281606 179.05703955 -279.75 180.8125 C-281.04797357 181.30132199 -282.3461482 181.78961046 -283.64453125 182.27734375 C-284.61422852 182.64182617 -284.61422852 182.64182617 -285.60351562 183.01367188 C-286.57321289 183.3781543 -286.57321289 183.3781543 -287.5625 183.75 C-288.19736328 183.98912109 -288.83222656 184.22824219 -289.48632812 184.47460938 C-290.82984964 184.97926216 -292.17420702 185.48169393 -293.51928711 185.98217773 C-295.10775845 186.57344303 -296.69431448 187.16986484 -298.27954102 187.76977539 C-305.12127077 190.32087667 -312.02664926 192.4290997 -319.0625 194.375 C-320.08794922 194.66568359 -321.11339844 194.95636719 -322.16992188 195.25585938 C-325.35499635 196.14402425 -328.54752318 196.98934165 -331.75 197.8125 C-332.85956055 198.1000415 -333.96912109 198.38758301 -335.11230469 198.68383789 C-343.94445783 200.79074465 -352.31655289 201.23666725 -361.375 201.125 C-362.68984375 201.12822266 -364.0046875 201.13144531 -365.359375 201.13476562 C-376.62343249 201.07318281 -387.10234405 199.6785581 -397.8125 196.1875 C-398.61268555 195.93025146 -399.41287109 195.67300293 -400.23730469 195.40795898 C-413.18528752 191.13199004 -425.57463718 185.45199081 -437.8828125 179.62109375 C-445.10854809 176.21434836 -452.44114456 173.03576385 -459.75 169.8125 C-459.75 168.8225 -459.75 167.8325 -459.75 166.8125 C-451.9171599 163.59727306 -444.06462453 160.5207311 -436.0625 157.75 C-430.17925995 155.7117173 -424.43587189 153.4820074 -418.7109375 151.02734375 C-415.405376 149.67110414 -412.06166154 148.4872352 -408.6875 147.3125 C-403.42956329 145.46933318 -398.41757049 143.35222776 -393.375 140.9921875 C-389.91669814 139.43801018 -386.38869414 138.16763491 -382.81640625 136.90234375 C-379.19754097 135.61614832 -375.59691446 134.28354494 -372 132.9375 C-370.97664551 132.55476929 -370.97664551 132.55476929 -369.93261719 132.16430664 C-364.73723612 130.20962695 -359.59352627 128.14478509 -354.45043945 126.05639648 C-349.9072652 124.23051357 -345.31735982 122.59129353 -340.6875 121 C-333.93737409 118.6746875 -327.34221843 116.05191657 -320.75 113.3125 C-313.59023882 110.337622 -306.41661646 107.56108862 -299.08203125 105.05078125 C-292.70202136 102.84743818 -286.46662944 100.32342101 -280.21508789 97.78198242 C-274.00594167 95.27361991 -267.7399749 93.00300859 -261.41015625 90.8203125 C-257.23774538 89.37111636 -253.24475841 87.747543 -249.25 85.875 C-244.90795173 84.02962949 -240.42579867 82.5650879 -235.96875 81.0234375 C-232.32154175 79.75205152 -228.75114892 78.45366356 -225.25 76.8125 C-220.30274565 74.49347453 -215.13739056 72.81046465 -209.97973633 71.02783203 C-205.51014881 69.47065993 -201.20655561 67.74961114 -196.91796875 65.7421875 C-193.24878003 64.1687336 -189.43225435 63.03335524 -185.63671875 61.8046875 C-183.18920044 60.96345658 -180.90271046 60.03291766 -178.5625 58.9375 C-174.26474724 56.94127604 -169.8505079 55.41468761 -165.375 53.875 C-159.5111888 51.85277686 -153.88338665 49.60825232 -148.26953125 46.95703125 C-144.85098413 45.40410985 -141.35389861 44.15531046 -137.81640625 42.90234375 C-134.19754097 41.61614832 -130.59691446 40.28354494 -127 38.9375 C-125.97664551 38.55476929 -125.97664551 38.55476929 -124.93261719 38.16430664 C-119.73723612 36.20962695 -114.59352627 34.14478509 -109.45043945 32.05639648 C-104.9072652 30.23051357 -100.31735982 28.59129353 -95.6875 27 C-88.93737409 24.6746875 -82.34221843 22.05191657 -75.75 19.3125 C-68.59297006 16.33875683 -61.42163814 13.56491861 -54.09082031 11.05297852 C-48.49148005 9.11746168 -42.99425884 6.96499532 -37.5 4.75 C-36.6553418 4.41097656 -35.81068359 4.07195312 -34.94042969 3.72265625 C-31.21785299 2.22488371 -27.50312949 0.71268562 -23.8046875 -0.84375 C-22.67289063 -1.3078125 -21.54109375 -1.771875 -20.375 -2.25 C-18.94027344 -2.85521484 -18.94027344 -2.85521484 -17.4765625 -3.47265625 C-11.35884885 -5.07658404 -5.66489274 -2.17764287 0 0 Z " fill="#FEEC00" transform="translate(922.75,1095.1875)"/>
<path d="M0 0 C1.01723145 0.00021149 2.03446289 0.00042297 3.08251953 0.00064087 C26.85356571 0.04987609 49.39366037 2.97345586 72.47949219 8.75146484 C74.93128657 9.35800135 77.3888875 9.92776564 79.8515625 10.48828125 C95.88447943 14.212348 111.71796662 19.26218665 127 25.375 C127 62.005 127 98.635 127 136.375 C120.91792696 135.15858539 115.69059025 134.08790073 109.9375 132.1875 C93.66825363 126.96031248 77.24810613 122.37879253 60.47265625 119.1015625 C57 118.375 57 118.375 55 117.375 C52.43157912 116.93565745 49.87296119 116.54187219 47.29296875 116.18359375 C46.50867493 116.07366592 45.7243811 115.9637381 44.9163208 115.85047913 C2.7987427 110.04710171 -34.47069152 111.88347322 -74 128.375 C-74.78213867 128.69807129 -75.56427734 129.02114258 -76.37011719 129.35400391 C-88.75482201 134.48821667 -100.92884484 140.05976111 -113.05615234 145.77001953 C-124.75203185 151.26116158 -136.47247826 156.02727869 -148.75 160.0625 C-149.91660156 160.45244141 -151.08320312 160.84238281 -152.28515625 161.24414062 C-155.5156239 162.3142559 -158.75473816 163.35079094 -162 164.375 C-162.6798999 164.60678955 -163.3597998 164.8385791 -164.06030273 165.07739258 C-170.34507036 166.99453304 -176.94107626 166.71105402 -183.45141602 166.69067383 C-185.53391385 166.68754298 -187.61494562 166.71092496 -189.69726562 166.73632812 C-199.14738117 166.778679 -207.80007446 165.57091829 -217 163.375 C-216.43154962 160.14465792 -215.68109135 157.32197079 -214.328125 154.3359375 C-213.82539062 153.21638672 -213.82539062 153.21638672 -213.3125 152.07421875 C-212.7865625 150.92373047 -212.7865625 150.92373047 -212.25 149.75 C-211.91484375 149.00621094 -211.5796875 148.26242187 -211.234375 147.49609375 C-209.77562276 144.26363139 -208.3024825 141.03778511 -206.83007812 137.81152344 C-203.50714046 130.51966904 -200.24684957 123.20101336 -197 115.875 C-191.33666016 103.09655046 -191.33666016 103.09655046 -188.49609375 96.87109375 C-186.66904539 92.86471585 -184.87499847 88.84508759 -183.09765625 84.81640625 C-182.59943359 83.68783203 -182.10121094 82.55925781 -181.58789062 81.39648438 C-180.57304137 79.0952065 -179.5600124 76.793125 -178.54882812 74.49023438 C-177.54744799 72.22517711 -176.53433908 69.96526544 -175.5090332 67.7109375 C-174.49308397 65.46503388 -173.51028676 63.20387084 -172.55932617 60.9296875 C-169.07929387 53.0824754 -169.07929387 53.0824754 -166.24389648 51.22387695 C-164.19380585 50.633101 -162.31453286 50.40612354 -160.1875 50.25 C-139.04435194 47.04442594 -119.31038141 35.87987013 -100.140625 26.84667969 C-85.09514202 19.7964487 -69.86478667 13.69496893 -54.1875 8.1875 C-52.718573 7.66929688 -52.718573 7.66929688 -51.2199707 7.140625 C-45.86219858 5.27752858 -40.56132526 3.51184549 -35 2.375 C-34.13914795 2.19348389 -33.2782959 2.01196777 -32.39135742 1.82495117 C-21.65941408 -0.1372876 -10.87582451 -0.02079823 0 0 Z " fill="#01A0E1" transform="translate(1200,1241.625)"/>
<path d="M0 0 C3.23622369 -0.00657571 6.46938971 -0.06138104 9.70507812 -0.11791992 C29.76104769 -0.2808917 48.20323684 4.14531964 66.80664062 11.4934082 C67.99354492 11.95231445 69.18044922 12.4112207 70.40332031 12.8840332 C83.49331112 18.00564536 96.2328117 23.93489418 108.9834137 29.83850098 C133.28210815 41.08398212 156.96758736 51.88163962 183.86914062 54.5559082 C182.62256947 60.81755957 180.90908434 66.74152371 178.74414062 72.7434082 C178.28672485 74.03045654 178.28672485 74.03045654 177.82006836 75.34350586 C176.84339812 78.08353279 175.85775759 80.8201706 174.86914062 83.5559082 C174.38453369 84.89854736 174.38453369 84.89854736 173.89013672 86.26831055 C170.8822918 94.58906375 167.84517135 102.89905465 164.79492188 111.2043457 C161.33559036 120.64417479 157.94067425 130.08939055 154.85888672 139.66040039 C153.42366904 144.07661679 151.71321554 148.28932201 149.86914062 152.5559082 C149.19082845 154.55198862 148.52231807 156.55146223 147.86914062 158.5559082 C138.71359682 156.00384024 130.29947202 152.67338819 121.74414062 148.5559082 C119.2943685 147.39529877 116.84141065 146.24148222 114.38867188 145.0871582 C113.76901047 144.7945813 113.14934906 144.50200439 112.51091003 144.20056152 C105.8567971 141.0641861 99.15208697 138.04738973 92.43164062 135.0559082 C91.36220215 134.57637695 90.29276367 134.0968457 89.19091797 133.6027832 C81.83921301 130.33688775 74.39885808 127.38476609 66.86914062 124.5559082 C66.10545166 124.26200195 65.3417627 123.9680957 64.55493164 123.6652832 C27.7599787 109.56766898 -12.87788438 109.28732256 -51.13085938 117.5559082 C-52.12690186 117.76731445 -53.12294434 117.9787207 -54.14916992 118.1965332 C-68.26945881 121.21750911 -82.2989337 124.39679578 -96.13085938 128.5559082 C-96.84870605 128.77134277 -97.56655273 128.98677734 -98.30615234 129.20874023 C-104.57443427 131.10302423 -110.83511962 132.99854469 -116.94335938 135.3684082 C-120.13085938 136.5559082 -120.13085938 136.5559082 -123.13085938 136.5559082 C-123.13085938 99.9259082 -123.13085938 63.2959082 -123.13085938 25.5559082 C-85.50584174 8.83367814 -41.06254708 -0.00928177 0 0 Z " fill="#01A0E2" transform="translate(370.130859375,663.444091796875)"/>
<path d="M0 0 C1.91543977 -0.0115134 3.83084761 -0.03195507 5.74609375 -0.06152344 C18.79057318 -0.26164015 30.55435123 0.80078909 43.13378906 4.29516602 C44.24834473 4.59366455 45.36290039 4.89216309 46.51123047 5.19970703 C49.38113159 5.99813715 52.2269816 6.84777036 55.07128906 7.73266602 C56.05073486 8.03414551 57.03018066 8.335625 58.03930664 8.64624023 C63.78032474 10.45040948 69.31228062 12.40825044 74.70019531 15.11547852 C78.60762766 17.00961105 82.71434555 18.41927375 86.79785156 19.88891602 C89.13378906 21.29516602 89.13378906 21.29516602 90.06347656 23.69750977 C90.13878564 26.47976163 89.79466494 27.85335717 88.63378906 30.35766602 C86.42395774 35.47075848 84.57120199 40.65693078 82.75878906 45.92016602 C80.62672627 52.07598592 78.44972933 58.20608215 76.13378906 64.29516602 C71.79175663 75.73463909 67.75716359 87.29326256 63.94628906 98.92016602 C62.47559662 103.38905119 60.79978035 107.73939989 59.01660156 112.09204102 C57.9356879 114.78954237 57.00871584 117.52456454 56.13378906 120.29516602 C51.48158169 119.30371199 46.93411519 118.24096516 42.38378906 116.85766602 C10.27581712 108.12928529 -24.69546916 111.85550897 -56.86621094 118.29516602 C-57.82269531 118.48481934 -58.77917969 118.67447266 -59.76464844 118.86987305 C-77.67297602 122.46774248 -95.21220542 127.14938943 -112.44433594 133.21704102 C-116.51302481 134.49895669 -120.70193643 135.36977168 -124.86621094 136.29516602 C-124.86621094 99.66516602 -124.86621094 63.03516602 -124.86621094 25.29516602 C-112.02607806 19.58844029 -99.15387595 15.6614871 -85.55371094 12.23266602 C-84.18423415 11.8841564 -82.81476813 11.53560447 -81.4453125 11.18701172 C-68.40549065 7.88126016 -55.39707931 4.78261415 -42.11621094 2.60766602 C-41.03581543 2.42820435 -41.03581543 2.42820435 -39.93359375 2.24511719 C-26.70900691 0.19972629 -13.3521195 0.05557712 0 0 Z " fill="#01A0E1" transform="translate(371.8662109375,952.704833984375)"/>
<path d="M0 0 C32.756212 -0.7519526 63.38015603 1.47505168 95.06494141 10.20996094 C99.10240386 11.29673755 103.16964893 12.21607947 107.25 13.125 C116.54062271 15.25264968 125.90019462 17.77770794 134.6484375 21.58984375 C138.18907064 23.21073001 138.18907064 23.21073001 143 24 C143 60.96 143 97.92 143 136 C136.62061446 134.72412289 131.10605683 133.48486839 125.125 131.3125 C104.67148407 124.2311629 83.24970683 119.92851723 62 116 C61.14664062 115.84015625 60.29328125 115.6803125 59.4140625 115.515625 C22.4122572 108.65906044 -16.20337038 110.01922271 -50.94140625 125.36328125 C-53 126 -53 126 -56 125 C-54.27515089 121.03977178 -52.54432325 117.08218279 -50.8125 113.125 C-50.08836914 111.46210937 -50.08836914 111.46210937 -49.34960938 109.765625 C-46.73801391 103.80627964 -44.0052057 97.95299667 -41.05639648 92.15380859 C-39.71347068 89.41581659 -38.6463301 86.62201094 -37.625 83.75 C-35.85027205 78.99506852 -33.81775916 74.51511525 -31.5 70 C-29.27700572 65.66373005 -27.30584749 61.38556437 -25.625 56.8125 C-23.34015879 50.64787972 -20.58546619 44.79592799 -17.73242188 38.88134766 C-13.8664383 30.82296922 -10.28182406 22.64797074 -6.71826172 14.45214844 C-6.05721436 12.93476074 -6.05721436 12.93476074 -5.3828125 11.38671875 C-4.99496582 10.49170654 -4.60711914 9.59669434 -4.20751953 8.67456055 C-2.88308396 5.74104019 -1.45600572 2.87017824 0 0 Z " fill="#01A0E1" transform="translate(1184,953)"/>
<path d="M0 0 C1.15862549 0.06977051 2.31725098 0.13954102 3.51098633 0.21142578 C11.65998331 0.81055543 19.42158519 2.35971216 27.375 4.1875 C29.10253434 4.52919222 30.83139012 4.86441017 32.5625 5.1875 C37.91043571 6.23751067 43.13635542 7.69358995 48.375 9.1875 C48.375 9.8475 48.375 10.5075 48.375 11.1875 C41.63583269 13.68652253 34.93409222 16.0956865 28 18 C21.52134125 19.79196944 15.17770711 21.90419711 8.8125 24.0625 C0.07362238 27.02165672 -8.70041114 29.70274145 -17.58837891 32.17480469 C-22.85484679 33.64929367 -27.9697825 35.32364961 -33.08203125 37.2734375 C-35.9420656 38.30146828 -38.82135572 39.12496902 -41.75 39.9375 C-56.85291409 44.15303866 -71.72933007 49.19442586 -86.59204102 54.18139648 C-93.7306507 56.57074894 -100.92045353 58.77191591 -108.12890625 60.94091797 C-118.93963907 64.19668191 -129.71630106 67.50192385 -140.40893555 71.12841797 C-145.87970018 72.97202293 -151.39598854 74.57152025 -156.9609375 76.109375 C-162.22543738 77.65841761 -167.40867527 79.43971038 -172.5859375 81.2578125 C-173.31296875 81.50789063 -174.04 81.75796875 -174.7890625 82.015625 C-175.43311035 82.2415332 -176.0771582 82.46744141 -176.74072266 82.70019531 C-178.625 83.1875 -178.625 83.1875 -182.625 83.1875 C-180.34614986 75.91037189 -177.48079296 69.02282754 -174.375 62.0625 C-173.88700928 60.96244629 -173.39901855 59.86239258 -172.89624023 58.72900391 C-164.96403545 40.899556 -164.96403545 40.899556 -161.625 34.1875 C-161.19550049 33.2601001 -161.19550049 33.2601001 -160.75732422 32.31396484 C-159.15347293 29.11534223 -158.05976948 27.40126166 -154.8125 25.8046875 C-153.760625 25.55976562 -152.70875 25.31484375 -151.625 25.0625 C-146.08181972 23.71827878 -141.07551457 21.7489175 -135.82373047 19.51611328 C-130.67918045 17.37929133 -125.44794329 15.51694031 -120.1875 13.6875 C-119.07310547 13.29949219 -117.95871094 12.91148437 -116.81054688 12.51171875 C-107.81894019 9.45139957 -98.77471956 7.08304738 -89.5 5.0625 C-85.8536692 4.40151092 -85.8536692 4.40151092 -83.625 3.1875 C-56.40401558 -3.13154248 -27.68510186 -1.69972991 0 0 Z " fill="#029FE0" transform="translate(815.625,952.8125)"/>
<path d="M0 0 C-0.70378138 5.13105729 -2.09388146 9.88475086 -3.625 14.8125 C-6.40901265 23.91866648 -9.0109426 33.06844826 -11.55126953 42.24536133 C-13.29172165 48.52105939 -15.10024893 54.77060368 -17 61 C-23.33756183 60.48021973 -28.77840714 59.32532368 -34.75 57.1875 C-36.33680447 56.63806467 -37.92404703 56.08989299 -39.51171875 55.54296875 C-40.27919434 55.27661621 -41.04666992 55.01026367 -41.83740234 54.73583984 C-44.72533083 53.75320082 -47.63930839 52.87144203 -50.5625 52 C-61.86949409 48.55689278 -72.95752498 44.45586927 -84 40.25 C-85.17598755 39.80950317 -85.17598755 39.80950317 -86.37573242 39.36010742 C-91.88342161 37.23315678 -91.88342161 37.23315678 -93 35 C-84.02912847 31.45362038 -75.05417508 27.96846907 -65.9375 24.8125 C-61.00955862 23.10503341 -56.22279003 21.27630783 -51.5 19.0625 C-47.15795173 17.21712949 -42.67579867 15.7525879 -38.21875 14.2109375 C-33.87121314 12.69542289 -29.6911675 11.03062819 -25.5234375 9.0703125 C-21.05654307 7.17568545 -16.44443533 5.65942706 -11.84960938 4.10546875 C-7.76713321 2.70639714 -4.21396234 0 0 0 Z " fill="#049FDF" transform="translate(1004,1055)"/>
<path d="M0 0 C86.46 0 172.92 0 262 0 C261.67 0.66 261.34 1.32 261 2 C260.45310302 1.99962028 259.90620604 1.99924056 259.34273642 1.99884933 C226.95115491 1.9764861 194.55957543 1.95932095 162.16798798 1.94893467 C158.28134419 1.94768392 154.39470041 1.9463896 150.50805664 1.94506836 C149.3473832 1.94467489 149.3473832 1.94467489 148.16326181 1.94427348 C135.62345802 1.93991855 123.08365879 1.93203196 110.54385772 1.9228472 C97.68317239 1.91350576 84.82248946 1.90794335 71.96180087 1.90591151 C64.02187169 1.9045373 56.08195542 1.90019223 48.14203022 1.89208353 C42.06044978 1.88618791 35.97888053 1.88554229 29.89729691 1.88689232 C27.39747984 1.88661617 24.8976623 1.88461343 22.39784813 1.88079453 C18.99634881 1.87585104 15.59490566 1.87700419 12.19340515 1.87974548 C11.19438807 1.87683264 10.19537098 1.8739198 9.16608065 1.87091869 C8.25790805 1.87290974 7.34973545 1.87490079 6.41404247 1.87695217 C5.62840111 1.87657245 4.84275975 1.87619273 4.03331107 1.8758015 C1.79602808 1.92476846 1.79602808 1.92476846 -1 3 C-0.67 2.01 -0.34 1.02 0 0 Z " fill="#E73E1C" transform="translate(713,277)"/>
<path d="M0 0 C0.33 0.66 0.66 1.32 1 2 C1.99 1.67 2.98 1.34 4 1 C2.37003104 5.13822218 0.63344645 9.22768778 -1.125 13.3125 C-1.54072266 14.28026367 -1.54072266 14.28026367 -1.96484375 15.26757812 C-2.64267554 16.84529005 -3.32126074 18.42267826 -4 20 C-4.97812873 16.94371936 -5.00835683 15.14722553 -4.00390625 12.109375 C-3.77509766 11.40039062 -3.54628906 10.69140625 -3.31054688 9.9609375 C-3.06369141 9.23132812 -2.81683594 8.50171875 -2.5625 7.75 C-2.19801758 6.63238281 -2.19801758 6.63238281 -1.82617188 5.4921875 C-1.22667019 3.65841765 -0.61455513 1.82877996 0 0 Z " fill="#E63A1E" transform="translate(772,1866)"/>
<path d="M0 0 C1.1875 1.625 1.1875 1.625 2 4 C0.625 7.25 0.625 7.25 -1 10 C-2.46726798 6.18510326 -1.43336419 3.70988378 0 0 Z " fill="#ED6A15" transform="translate(769,1876)"/>
</svg>
