<?xml version="1.0" encoding="UTF-8"?>
<svg version="1.1" xmlns="http://www.w3.org/2000/svg" width="129" height="130">
<path d="M0 0 C42.57 0 85.14 0 129 0 C129 42.9 129 85.8 129 130 C86.43 130 43.86 130 0 130 C0 87.1 0 44.2 0 0 Z " fill="#1681A5" transform="translate(0,0)"/>
<path d="M0 0 C7.92 0 15.84 0 24 0 C22.32425517 1.11716322 20.63733595 2.21936421 18.9140625 3.26171875 C12.31709024 7.37075437 8.21525996 11.0542288 5.89428711 18.59008789 C4.29765983 26.33288232 4.64952349 34.37361702 4.62890625 42.24609375 C4.61992435 44.02531503 4.61080225 45.80453561 4.60154724 47.58375549 C4.58512091 51.30137966 4.57736834 55.01891443 4.57446289 58.73657227 C4.56907485 63.47865486 4.53135015 68.21988745 4.48571873 72.96173 C4.45585104 76.63282787 4.44873729 80.30372296 4.44773674 83.97493172 C4.44355646 85.72229991 4.43121118 87.46966994 4.41021919 89.21691704 C4.28621495 100.42634854 4.98358568 108.92749845 12.375 117.875 C19.83865069 123.91700294 26.50608438 125.14647522 35.98974609 125.16113281 C36.76781113 125.16609772 37.54587616 125.17106262 38.34751892 125.17617798 C40.90616763 125.19071155 43.4647544 125.19758609 46.0234375 125.203125 C46.90158741 125.20595238 47.77973732 125.20877975 48.68449783 125.21169281 C53.32970732 125.22664829 57.97488602 125.23590129 62.62011719 125.24023438 C67.40372143 125.24572004 72.18704121 125.26976051 76.97055626 125.29820633 C80.66300264 125.31688031 84.35538104 125.32204079 88.04787064 125.32357025 C89.8108234 125.3265855 91.57377529 125.3345757 93.33668137 125.34775543 C95.80849317 125.36491944 98.2796167 125.36291099 100.75146484 125.35644531 C101.47068619 125.3656601 102.18990753 125.37487488 102.93092346 125.3843689 C110.49916724 125.32273652 116.82970294 122.8739598 122.45703125 117.76171875 C125.04696934 114.80459957 126.44933299 111.59754746 128 108 C128.33 108 128.66 108 129 108 C129 115.26 129 122.52 129 130 C86.43 130 43.86 130 0 130 C0 87.1 0 44.2 0 0 Z " fill="#F3F7F9" transform="translate(0,0)"/>
<path d="M0 0 C4.95 0 9.9 0 15 0 C13 5 13 5 11 10 C11.99 10.33 12.98 10.66 14 11 C14.33 12.98 14.66 14.96 15 17 C15.66 17 16.32 17 17 17 C17 17.99 17 18.98 17 20 C18.32 19.01 19.64 18.02 21 17 C21 17.99 21 18.98 21 20 C21.66 20 22.32 20 23 20 C23.495 22.475 23.495 22.475 24 25 C23.05125 25.5775 22.1025 26.155 21.125 26.75 C18.15005989 28.89195688 17.33533355 29.77294392 16 33 C15.01 33.495 15.01 33.495 14 34 C13.34 33.34 12.68 32.68 12 32 C9.89179203 32.3185177 9.89179203 32.3185177 8 33 C7.34 35.31 6.68 37.62 6 40 C5.34 40 4.68 40 4 40 C4.020625 39.0925 4.04125 38.185 4.0625 37.25 C4.0110245 34.57327412 3.7784983 32.53011948 3 30 C-0.72614153 31.11854586 -0.72614153 31.11854586 -3 34 C-4.875 34.5625 -4.875 34.5625 -7 35 C-8.485 35.495 -8.485 35.495 -10 36 C-10 35.34 -10 34.68 -10 34 C-10.66 33.67 -11.32 33.34 -12 33 C-11.34 32.34 -10.68 31.68 -10 31 C-10.66 30.67 -11.32 30.34 -12 30 C-11.505 29.1028125 -11.505 29.1028125 -11 28.1875 C-9.79212012 25.94613529 -9.79212012 25.94613529 -10 23 C-9.34 23 -8.68 23 -8 23 C-6.75453595 20.50907189 -7.2232422 19.58919267 -8 17 C-6.68 16.67 -5.36 16.34 -4 16 C-3.79503906 15.18015625 -3.59007813 14.3603125 -3.37890625 13.515625 C-2.25260417 9.01041667 -1.12630208 4.50520833 0 0 Z " fill="#1685A7" transform="translate(93,0)"/>
<path d="M0 0 C6.93 0 13.86 0 21 0 C21 8.58 21 17.16 21 26 C20.67 26 20.34 26 20 26 C19.87625 25.030625 19.7525 24.06125 19.625 23.0625 C19.41875 22.051875 19.2125 21.04125 19 20 C18.34 19.67 17.68 19.34 17 19 C17 18.01 17 17.02 17 16 C16.38511719 15.96261719 15.77023438 15.92523438 15.13671875 15.88671875 C14.32847656 15.82097656 13.52023438 15.75523438 12.6875 15.6875 C11.88699219 15.62949219 11.08648437 15.57148438 10.26171875 15.51171875 C7.57741033 14.90438817 6.9036068 13.9036068 5 12 C2.72838745 11.42676193 2.72838745 11.42676193 0.3125 11.3125 C-0.49574219 11.24675781 -1.30398437 11.18101563 -2.13671875 11.11328125 C-2.75160156 11.07589844 -3.36648437 11.03851563 -4 11 C-4 7 -4 7 0 0 Z " fill="#90CB98" transform="translate(108,0)"/>
<path d="M0 0 C3.25065168 2.69566237 3.88285869 4.28413644 4.5625 8.4375 C3.82856498 13.08575513 2.57242969 14.94854964 -1 18 C-5.13781982 19.0928516 -8.1411123 18.42030675 -11.9375 16.5625 C-14.85238176 12.94098024 -15.44335215 9.60593622 -15 5 C-11.07376486 -1.49859609 -6.96424883 -1.78126436 0 0 Z " fill="#62B8A6" transform="translate(60,72)"/>
<path d="M0 0 C1.98 0 3.96 0 6 0 C8.1171875 2.1875 8.1171875 2.1875 9.875 5 C10.47054687 5.928125 11.06609375 6.85625 11.6796875 7.8125 C12.11539063 8.534375 12.55109375 9.25625 13 10 C13.33 6.7 13.66 3.4 14 0 C15.65 0 17.3 0 19 0 C19 6.93 19 13.86 19 21 C17.02 21 15.04 21 13 21 C11.1015625 19.1015625 11.1015625 19.1015625 9.625 16.625 C9.12226562 15.81289063 8.61953125 15.00078125 8.1015625 14.1640625 C7 12 7 12 7 10 C6.34 10 5.68 10 5 10 C5 13.63 5 17.26 5 21 C3.35 21 1.7 21 0 21 C0 14.07 0 7.14 0 0 Z " fill="#DEE9ED" transform="translate(52,39)"/>
<path d="M0 0 C4.23610467 0.35626726 8.31839015 0.58755976 12.5625 0.375 C16.4375 0.5625 16.4375 0.5625 18.6640625 2.15234375 C21.02426257 5.35992842 20.84498998 7.37525055 20.6875 11.3125 C20.65140625 12.48296875 20.6153125 13.6534375 20.578125 14.859375 C20.50851563 16.19742188 20.50851563 16.19742188 20.4375 17.5625 C18.5 18.125 18.5 18.125 16.4375 18.5625 C14.62634044 16.75134044 15.05550552 13.94971773 14.875 11.5 C14.74931641 9.84291016 14.74931641 9.84291016 14.62109375 8.15234375 C14.56050781 7.29769531 14.49992187 6.44304687 14.4375 5.5625 C12.7875 5.8925 11.1375 6.2225 9.4375 6.5625 C9.1075 10.5225 8.7775 14.4825 8.4375 18.5625 C6.7875 18.2325 5.1375 17.9025 3.4375 17.5625 C3.1075 13.6025 2.7775 9.6425 2.4375 5.5625 C0.7875 5.8925 -0.8625 6.2225 -2.5625 6.5625 C-2.8925 9.2025 -3.2225 11.8425 -3.5625 14.5625 C-3.8925 13.9025 -4.2225 13.2425 -4.5625 12.5625 C-5.5525 12.5625 -6.5425 12.5625 -7.5625 12.5625 C-7.8925 8.6025 -8.2225 4.6425 -8.5625 0.5625 C-5.62854799 -0.904476 -3.24867932 -0.28386518 0 0 Z " fill="#E7EA7C" transform="translate(22.5625,71.4375)"/>
<path d="M0 0 C4.39536337 0.36628028 5.86671414 1.00520151 8.75 4.3125 C9.625 8 9.625 8 9.75 11.3125 C8.01043342 13.05206658 5.5563378 12.68440386 3.1875 12.875 C2.17558594 12.95878906 1.16367188 13.04257813 0.12109375 13.12890625 C-0.66136719 13.18949219 -1.44382812 13.25007813 -2.25 13.3125 C0.06 13.9725 2.37 14.6325 4.75 15.3125 C4.42 16.6325 4.09 17.9525 3.75 19.3125 C0.5625 19.625 0.5625 19.625 -3.25 19.3125 C-6.8586524 16.33143932 -9.00217316 14.17120127 -9.625 9.5 C-9.12954982 5.2886735 -7.40647263 4.00704981 -4.25 1.3125 C-3.25 0.3125 -3.25 0.3125 0 0 Z " fill="#8FC093" transform="translate(110.25,70.6875)"/>
<path d="M0 0 C1.43655854 -0.08131463 2.8744483 -0.13933559 4.3125 -0.1875 C5.51326172 -0.23970703 5.51326172 -0.23970703 6.73828125 -0.29296875 C9 0 9 0 10.75 1.34375 C12.36320877 3.48125162 12.64535 5.37559 13 8 C12.34 8 11.68 8 11 8 C11.01047363 8.62567871 11.02094727 9.25135742 11.03173828 9.89599609 C11.07323191 12.7222901 11.09930473 15.54852011 11.125 18.375 C11.14175781 19.35984375 11.15851563 20.3446875 11.17578125 21.359375 C11.18222656 22.30039063 11.18867187 23.24140625 11.1953125 24.2109375 C11.20578613 25.08024902 11.21625977 25.94956055 11.22705078 26.84521484 C11 29 11 29 9 31 C7.68 30.67 6.36 30.34 5 30 C4.67 23.4 4.34 16.8 4 10 C2.35 10.33 0.7 10.66 -1 11 C-1.6875 9.1875 -1.6875 9.1875 -2 7 C-1 6 0 5 1 4 C0.636076 1.91896357 0.636076 1.91896357 0 0 Z " fill="#2E90A3" transform="translate(89,59)"/>
<path d="M0 0 C12.33355526 -0.49334221 12.33355526 -0.49334221 15.40625 1.78125 C17.63347988 4.88190337 17.28605245 7.2813182 17 11 C15.35 10.67 13.7 10.34 12 10 C11.67 8.68 11.34 7.36 11 6 C8.03 5.505 8.03 5.505 5 5 C5 6.98 5 8.96 5 11 C5.5775 11.144375 6.155 11.28875 6.75 11.4375 C9.875 12.21875 9.875 12.21875 13 13 C13 13.66 13 14.32 13 15 C10.36 15 7.72 15 5 15 C5 16.98 5 18.96 5 21 C3.35 21 1.7 21 0 21 C0 14.07 0 7.14 0 0 Z " fill="#DBE7EB" transform="translate(14,39)"/>
<path d="M0 0 C0.99 0.33 1.98 0.66 3 1 C3 3.31 3 5.62 3 8 C3.66 7.67 4.32 7.34 5 7 C8.3422704 6.55007898 10.85624452 6.27985766 13.79296875 8.12890625 C16.59319911 10.67638423 17.86855905 12.28437706 18.5625 16.0625 C17.92240585 19.40521391 17.17592524 21.37388333 15 24 C12.3125 24.8125 12.3125 24.8125 10 25 C10 24.34 10 23.68 10 23 C8.68 22.67 7.36 22.34 6 22 C7.2065625 21.6596875 7.2065625 21.6596875 8.4375 21.3125 C11.22758446 20.24642852 11.22758446 20.24642852 11.9375 17.5 C11.958125 16.675 11.97875 15.85 12 15 C11.34 14.34 10.68 13.68 10 13 C7.39719432 13.32041397 7.39719432 13.32041397 5 14 C4.34 15.98 3.68 17.96 3 20 C1.68 19.34 0.36 18.68 -1 18 C-1.02684312 15.18743719 -1.04676188 12.37512759 -1.0625 9.5625 C-1.07087891 8.76005859 -1.07925781 7.95761719 -1.08789062 7.13085938 C-1.0965143 5.08704779 -1.0522815 3.04316098 -1 1 C-0.67 0.67 -0.34 0.34 0 0 Z " fill="#D2DF7F" transform="translate(68,64)"/>
<path d="M0 0 C1.65 0.33 3.3 0.66 5 1 C5.33 2.98 5.66 4.96 6 7 C6.66 7 7.32 7 8 7 C8 7.99 8 8.98 8 10 C9.32 9.01 10.64 8.02 12 7 C12 7.99 12 8.98 12 10 C12.66 10 13.32 10 14 10 C14.33 11.65 14.66 13.3 15 15 C13.02 15.99 11.04 16.98 9 18 C9.66 16.35 10.32 14.7 11 13 C3.97326485 13.50343987 -3.01940909 14.04187968 -10 15 C-9.47599609 14.18595703 -9.47599609 14.18595703 -8.94140625 13.35546875 C-8.25884766 12.28232422 -8.25884766 12.28232422 -7.5625 11.1875 C-7.11003906 10.47980469 -6.65757813 9.77210937 -6.19140625 9.04296875 C-4.85913661 6.91865448 -4.85913661 6.91865448 -4 4 C-3.34 4 -2.68 4 -2 4 C-1.34 2.68 -0.68 1.36 0 0 Z " fill="#3BADB1" transform="translate(102,10)"/>
<path d="M0 0 C0.33 0 0.66 0 1 0 C1.04898438 1.13179688 1.09796875 2.26359375 1.1484375 3.4296875 C1.22346514 4.91148339 1.29901297 6.393253 1.375 7.875 C1.4059375 8.62136719 1.436875 9.36773437 1.46875 10.13671875 C1.55643831 14.53473188 1.55643831 14.53473188 4 18 C4.28875 17.21625 4.5775 16.4325 4.875 15.625 C6 13 6 13 8 11 C11.29714793 11.32971479 12.6226839 11.6226839 15 14 C14.64700993 17.44165321 13.95418308 19.06872538 12 22 C13.32 22.66 14.64 23.32 16 24 C13.11584117 25.44207941 10.58278472 25.09394887 7.375 25.0625 C6.18648438 25.05347656 4.99796875 25.04445313 3.7734375 25.03515625 C2.85820313 25.02355469 1.94296875 25.01195313 1 25 C0.10250178 21.9317362 -0.11711768 19.20730024 -0.09765625 16.015625 C-0.09443359 15.08105469 -0.09121094 14.14648438 -0.08789062 13.18359375 C-0.07951172 12.21550781 -0.07113281 11.24742188 -0.0625 10.25 C-0.05798828 9.26644531 -0.05347656 8.28289062 -0.04882812 7.26953125 C-0.03706483 4.84629209 -0.02062684 2.42317727 0 0 Z " fill="#90C190" transform="translate(66,65)"/>
<path d="M0 0 C1.65 0 3.3 0 5 0 C5 5.61 5 11.22 5 17 C8.3 17 11.6 17 15 17 C15 18.32 15 19.64 15 21 C10.05 21 5.1 21 0 21 C0 14.07 0 7.14 0 0 Z " fill="#E9EEEF" transform="translate(34,39)"/>
<path d="M0 0 C6.09801453 0.82023982 12.2138836 0.65647726 18.35546875 0.63110352 C19.65371582 0.62968857 20.95196289 0.62827362 22.28955078 0.6268158 C25.71553527 0.62302552 29.14147634 0.61322566 32.56744385 0.60211182 C36.07360243 0.59182206 39.57976812 0.58730208 43.0859375 0.58227539 C49.94663225 0.57159973 56.80729841 0.55456601 63.66796875 0.53344727 C63.66796875 1.19344727 63.66796875 1.85344727 63.66796875 2.53344727 C54.87097041 2.5797915 46.07401411 2.61532707 37.27692032 2.63707161 C33.19205665 2.64750799 29.10727653 2.66166451 25.02246094 2.68432617 C21.08025033 2.70605978 17.13812008 2.71801699 13.19585419 2.72320175 C11.6919605 2.72689658 10.1880712 2.73411164 8.68421173 2.74490738 C6.57746382 2.75942933 4.47104774 2.76142494 2.36425781 2.76049805 C0.56556244 2.76715988 0.56556244 2.76715988 -1.26947021 2.7739563 C-4.20495473 2.54342684 -5.86172792 2.07329923 -8.33203125 0.53344727 C-5.28503747 -0.32351974 -3.16127902 -0.44264392 0 0 Z " fill="#05669A" transform="translate(32.33203125,123.466552734375)"/>
<path d="M0 0 C6.6 0 13.2 0 20 0 C20 5.61 20 11.22 20 17 C19.01 15.68 18.02 14.36 17 13 C13.15190265 7.95766554 9.69179221 4.84589611 4 2 C2.68 1.34 1.36 0.68 0 0 Z " fill="#FBFDF9" transform="translate(109,0)"/>
<path d="M0 0 C2.875 1.5625 2.875 1.5625 5 4 C5.8125 7.75 5.8125 7.75 6 11 C2.37 11 -1.26 11 -5 11 C-5 10.34 -5 9.68 -5 9 C-5.66 8.67 -6.32 8.34 -7 8 C-4.36 8 -1.72 8 1 8 C1 7.01 1 6.02 1 5 C-0.4800841 5.11362262 -1.95910074 5.24122908 -3.4375 5.375 C-4.26121094 5.44460937 -5.08492188 5.51421875 -5.93359375 5.5859375 C-6.61550781 5.72257812 -7.29742187 5.85921875 -8 6 C-8.33 6.66 -8.66 7.32 -9 8 C-9.66 7.67 -10.32 7.34 -11 7 C-10.6875 4.625 -10.6875 4.625 -10 2 C-6.2626144 -0.4915904 -4.42668417 -0.45793285 0 0 Z " fill="#DCE57F" transform="translate(114,71)"/>
<path d="M0 0 C2.5625 2.125 2.5625 2.125 4 5 C4.25 8.8125 4.25 8.8125 4 12 C2.125 11.8125 2.125 11.8125 0 11 C-1.1875 8.5 -1.1875 8.5 -2 6 C-3.04142874 4.75655686 -3.04142874 4.75655686 -5.3125 4.6875 C-8.77967665 5.09066008 -9.71075661 6.47393833 -12 9 C-12.66 9 -13.32 9 -14 9 C-14.42838802 5.23018539 -14.46603029 3.58629618 -12.0625 0.5625 C-7.80634286 -1.60900874 -4.5196953 -1.44191772 0 0 Z " fill="#E5E67B" transform="translate(60,72)"/>
<path d="M0 0 C0 0.33 0 0.66 0 1 C-0.59167969 1.01417969 -1.18335937 1.02835937 -1.79296875 1.04296875 C-5.98947972 1.2962655 -8.52327509 1.69489606 -12.125 4 C-14.42083063 7.67332901 -14.49635118 9.70939293 -13.796875 13.90625 C-12.50976531 17.28806762 -10.13850009 18.46413825 -7 20 C-7.33 20.66 -7.66 21.32 -8 22 C-8.99 22 -9.98 22 -11 22 C-11 21.34 -11 20.68 -11 20 C-12.98 20.33 -14.96 20.66 -17 21 C-17.33 14.73 -17.66 8.46 -18 2 C-11.77668341 -1.11165829 -6.78751817 -1.24668701 0 0 Z " fill="#106F9F" transform="translate(60,70)"/>
<path d="M0 0 C1.32 0 2.64 0 4 0 C4 6.6 4 13.2 4 20 C2.02 20 0.04 20 -2 20 C-2.625 18.25 -2.625 18.25 -3 16 C-2.690625 15.4225 -2.38125 14.845 -2.0625 14.25 C-0.70711446 11.3797718 -0.58097345 8.90825959 -0.375 5.75 C-0.30023438 4.67234375 -0.22546875 3.5946875 -0.1484375 2.484375 C-0.09945312 1.66453125 -0.05046875 0.8446875 0 0 Z " fill="#F4F5F5" transform="translate(67,40)"/>
<path d="M0 0 C4.95 0 9.9 0 15 0 C12.75 5.625 12.75 5.625 10 8 C9.67 7.01 9.34 6.02 9 5 C8.34 5 7.68 5 7 5 C7 4.34 7 3.68 7 3 C4.93106785 4.99758966 3.06170898 6.9145568 1.375 9.25 C0.92125 9.8275 0.4675 10.405 0 11 C-0.66 11 -1.32 11 -2 11 C-1.49547781 7.25212088 -0.91840767 3.67363066 0 0 Z " fill="#29A2B0" transform="translate(93,0)"/>
<path d="M0 0 C1.65 0.33 3.3 0.66 5 1 C5 5.62 5 10.24 5 15 C0 16 0 16 -2 15 C-1.85973717 12.68715544 -1.71264442 10.37472409 -1.5625 8.0625 C-1.48128906 6.77472656 -1.40007813 5.48695312 -1.31640625 4.16015625 C-1 1 -1 1 0 0 Z " fill="#0A6C9D" transform="translate(21,76)"/>
<path d="M0 0 C1.98 0.495 1.98 0.495 4 1 C4 6.61 4 12.22 4 18 C2.68 18.33 1.36 18.66 0 19 C-1.8855253 17.1144747 -1.13246689 14.42231169 -1.13671875 11.91796875 C-1.13285156 11.12003906 -1.12898438 10.32210937 -1.125 9.5 C-1.12886719 8.70207031 -1.13273437 7.90414062 -1.13671875 7.08203125 C-1.12660767 1.12660767 -1.12660767 1.12660767 0 0 Z " fill="#B3CB7F" transform="translate(88,71)"/>
<path d="M0 0 C0.33 0 0.66 0 1 0 C1.16764279 4.10412741 1.3339474 8.20830797 1.5 12.3125 C1.54769531 13.47974609 1.59539062 14.64699219 1.64453125 15.84960938 C1.68964844 16.96787109 1.73476562 18.08613281 1.78125 19.23828125 C1.8440918 20.7857605 1.8440918 20.7857605 1.90820312 22.36450195 C1.97360204 24.24211189 2 26.12125145 2 28 C1.360625 27.814375 0.72125 27.62875 0.0625 27.4375 C-0.9584375 27.2209375 -0.9584375 27.2209375 -2 27 C-2.33 27.33 -2.66 27.66 -3 28 C-4.66617115 28.04063832 -6.33388095 28.042721 -8 28 C-8 27.34 -8 26.68 -8 26 C-6.34997172 24.64613064 -4.6825613 23.31321858 -3 22 C-1.71553081 19.43106162 -1.67022856 17.23423663 -1.4375 14.375 C-1.35371094 13.37210938 -1.26992188 12.36921875 -1.18359375 11.3359375 C-1.12300781 10.56507812 -1.06242187 9.79421875 -1 9 C-1.99 8.67 -2.98 8.34 -4 8 C-3.525625 7.608125 -3.05125 7.21625 -2.5625 6.8125 C-0.64820367 4.59191626 -0.38733012 2.86624291 0 0 Z " fill="#11729C" transform="translate(65,64)"/>
<path d="M0 0 C1.134375 0.4125 2.26875 0.825 3.4375 1.25 C3.7675 2.24 4.0975 3.23 4.4375 4.25 C3.798125 4.415 3.15875 4.58 2.5 4.75 C0.27630759 6.031786 0.27630759 6.031786 -0.05078125 8.1640625 C-0.2900978 10.18575155 -0.43143028 12.21841939 -0.5625 14.25 C-0.8925 13.59 -1.2225 12.93 -1.5625 12.25 C-2.5525 12.25 -3.5425 12.25 -4.5625 12.25 C-4.8925 8.29 -5.2225 4.33 -5.5625 0.25 C-3.5625 -0.75 -3.5625 -0.75 0 0 Z " fill="#C6DF80" transform="translate(19.5625,71.75)"/>
<path d="M0 0 C0.99 0.33 1.98 0.66 3 1 C3.33 7.93 3.66 14.86 4 22 C8.95 22.33 13.9 22.66 19 23 C14.51862317 26.36103262 13.33076793 26.19743585 8 26 C7.34 26.33 6.68 26.66 6 27 C5.01 26.67 4.02 26.34 3 26 C1.79970092 23.59940183 1.88540257 22.10639351 1.90234375 19.4296875 C1.90717773 18.08583984 1.90717773 18.08583984 1.91210938 16.71484375 C1.92048828 15.77769531 1.92886719 14.84054688 1.9375 13.875 C1.94201172 12.93011719 1.94652344 11.98523437 1.95117188 11.01171875 C1.96297643 8.67441613 1.97944241 6.33723939 2 4 C1.01 3.67 0.02 3.34 -1 3 C-0.67 2.01 -0.34 1.02 0 0 Z " fill="#066F9F" transform="translate(30,38)"/>
<path d="M0 0 C0.99 0.33 1.98 0.66 3 1 C3 6.94 3 12.88 3 19 C1.68 19 0.36 19 -1 19 C-1.02683987 16.02077407 -1.04676037 13.04178705 -1.0625 10.0625 C-1.07087891 9.21236328 -1.07925781 8.36222656 -1.08789062 7.48632812 C-1.09111328 6.67744141 -1.09433594 5.86855469 -1.09765625 5.03515625 C-1.10289307 4.2862915 -1.10812988 3.53742676 -1.11352539 2.76586914 C-1 1 -1 1 0 0 Z " fill="#D1DE7C" transform="translate(96,64)"/>
<path d="M0 0 C2.5 0.25 2.5 0.25 4.5 2.25 C4.75 4.75 4.75 4.75 4.5 7.25 C2.5 9.25 2.5 9.25 0 9.5 C-2.5 9.25 -2.5 9.25 -4.5 7.25 C-4.75 4.75 -4.75 4.75 -4.5 2.25 C-2.5 0.25 -2.5 0.25 0 0 Z " fill="#0C6D9F" transform="translate(54.5,75.75)"/>
<path d="M0 0 C3.29714793 0.32971479 4.6226839 0.6226839 7 3 C6.44444444 7.55555556 6.44444444 7.55555556 5 9 C2 9.125 2 9.125 -1 9 C-2 8 -2 8 -2.1875 5.0625 C-2 2 -2 2 0 0 Z " fill="#0F75A2" transform="translate(74,76)"/>
<path d="M0 0 C0.66 0 1.32 0 2 0 C3.03854395 3.02385353 3.39737447 5.12508081 2.05126953 8.08886719 C0.62723257 10.40925488 -0.87499623 12.64555085 -2.4375 14.875 C-3.23124023 16.050625 -3.23124023 16.050625 -4.04101562 17.25 C-5.34570837 19.17765414 -6.66527798 21.0930727 -8 23 C-9.36068665 18.91794004 -8.11170025 17.56205289 -6.25 13.75 C-5.69570312 12.59628906 -5.14140625 11.44257812 -4.5703125 10.25390625 C-4.05210938 9.18011719 -3.53390625 8.10632813 -3 7 C-1.9688038 4.6779268 -0.98109845 2.3437352 0 0 Z " fill="#08719D" transform="translate(101,33)"/>
<path d="M0 0 C1.65 0 3.3 0 5 0 C6.12029814 5.48946087 5.79217969 8.83430559 4 14 C4.66 14.33 5.32 14.66 6 15 C4.35 15 2.7 15 1 15 C1 15.66 1 16.32 1 17 C0.34 17 -0.32 17 -1 17 C-1 16.34 -1 15.68 -1 15 C-3.64 15 -6.28 15 -9 15 C-9.33 14.34 -9.66 13.68 -10 13 C-4.06 12.505 -4.06 12.505 2 12 C1.855625 10.576875 1.71125 9.15375 1.5625 7.6875 C1.48128906 6.88699219 1.40007812 6.08648437 1.31640625 5.26171875 C1.04734307 2.83912821 1.04734307 2.83912821 0 0 Z " fill="#1985A7" transform="translate(117,70)"/>
<path d="M0 0 C0.33 1.32 0.66 2.64 1 4 C2.32 4.33 3.64 4.66 5 5 C5 5.66 5 6.32 5 7 C5.66 7 6.32 7 7 7 C7.4125 7.45375 7.825 7.9075 8.25 8.375 C10.58139465 10.53986646 12.97828036 11.12705877 16 12 C16 12.33 16 12.66 16 13 C12.6875 13.1875 12.6875 13.1875 9 13 C8.525625 12.5153125 8.05125 12.030625 7.5625 11.53125 C5.51047352 9.52026405 4.13871827 9.51729843 1.3125 9.3125 C0.50425781 9.24675781 -0.30398437 9.18101563 -1.13671875 9.11328125 C-1.75160156 9.07589844 -2.36648437 9.03851563 -3 9 C-3 4.72290301 -2.29379749 3.44069624 0 0 Z " fill="#69BEA2" transform="translate(107,2)"/>
<path d="M0 0 C4.92715996 -0.46192125 8.50732625 1.1724717 13 3 C12.67 4.32 12.34 5.64 12 7 C7.50003317 7.44117322 5.65388883 7.52867608 2.0625 4.625 C0 2 0 2 0 0 Z " fill="#69BAA0" transform="translate(102,83)"/>
<path d="M0 0 C1.98 0 3.96 0 6 0 C6.66 1.65 7.32 3.3 8 5 C8.66 4.67 9.32 4.34 10 4 C10.33 4.99 10.66 5.98 11 7 C8 9 8 9 4.375 8.75 C3.26125 8.5025 2.1475 8.255 1 8 C-0.35439668 5.29120665 -0.06501451 2.99066732 0 0 Z " fill="#D9E3E6" transform="translate(19,44)"/>
<path d="M0 0 C6.27703141 1.28759619 10.81257859 5.32771926 15 10 C15.76171875 12.2578125 15.76171875 12.2578125 16 14 C13.2317604 12.87219868 11.77834465 11.76636328 9.6875 9.5625 C6.53859315 6.56005394 4.03807624 5.50438135 0 4 C0 2.68 0 1.36 0 0 Z " fill="#AED594" transform="translate(111,1)"/>
<path d="M0 0 C0.33 0 0.66 0 1 0 C1.33 5.28 1.66 10.56 2 16 C2.99 16.33 3.98 16.66 5 17 C5 18.98 5 20.96 5 23 C3.0625 23.5625 3.0625 23.5625 1 24 C0 23 0 23 -0.11352539 20.77514648 C-0.10828857 19.81680908 -0.10305176 18.85847168 -0.09765625 17.87109375 C-0.09443359 16.83662109 -0.09121094 15.80214844 -0.08789062 14.73632812 C-0.07951172 13.64771484 -0.07113281 12.55910156 -0.0625 11.4375 C-0.05798828 10.34501953 -0.05347656 9.25253906 -0.04882812 8.12695312 C-0.03699826 5.41791505 -0.02051543 2.70898401 0 0 Z " fill="#63AA9D" transform="translate(94,66)"/>
<path d="M0 0 C0.99 0.495 0.99 0.495 2 1 C2 3.97 2 6.94 2 10 C2.66 9.67 3.32 9.34 4 9 C4 12.63 4 16.26 4 20 C2.68 20 1.36 20 0 20 C0 13.4 0 6.8 0 0 Z " fill="#F8F9F6" transform="translate(53,40)"/>
<path d="M0 0 C2.475 0.99 2.475 0.99 5 2 C5 5.3 5 8.6 5 12 C3.35 11.67 1.7 11.34 0 11 C0 7.37 0 3.74 0 0 Z " fill="#B0D78F" transform="translate(26,78)"/>
<path d="M0 0 C1.32 0 2.64 0 4 0 C4.05382106 2.62527189 4.09358313 5.24944713 4.125 7.875 C4.14175781 8.62136719 4.15851562 9.36773437 4.17578125 10.13671875 C4.1933959 12.09194461 4.10320189 14.04742021 4 16 C3.34 16.66 2.68 17.32 2 18 C3.98 18 5.96 18 8 18 C8 18.33 8 18.66 8 19 C5.69 19 3.38 19 1 19 C0.67 12.73 0.34 6.46 0 0 Z " fill="#F9F9FA" transform="translate(34,40)"/>
<path d="M0 0 C0.33 0 0.66 0 1 0 C1 2.31 1 4.62 1 7 C1.99 7 2.98 7 4 7 C4.33 5.02 4.66 3.04 5 1 C5.33 1 5.66 1 6 1 C6 4.63 6 8.26 6 12 C4.35 12.33 2.7 12.66 1 13 C0 12 0 12 -0.09765625 9.27734375 C-0.08605469 8.17519531 -0.07445312 7.07304688 -0.0625 5.9375 C-0.05347656 4.83277344 -0.04445313 3.72804688 -0.03515625 2.58984375 C-0.02355469 1.73519531 -0.01195312 0.88054687 0 0 Z " fill="#349DAA" transform="translate(14,77)"/>
<path d="M0 0 C0.103125 0.639375 0.20625 1.27875 0.3125 1.9375 C0.539375 2.618125 0.76625 3.29875 1 4 C1.99 4.33 2.98 4.66 4 5 C2.125 8.875 2.125 8.875 1 10 C-1.33944736 9.71269945 -3.6739143 9.38063221 -6 9 C-6 8.34 -6 7.68 -6 7 C-5.195625 6.54625 -4.39125 6.0925 -3.5625 5.625 C-0.84763807 4.26579005 -0.84763807 4.26579005 -0.1875 1.8125 C-0.125625 1.214375 -0.06375 0.61625 0 0 Z " fill="#A5D190" transform="translate(59,79)"/>
<path d="M0 0 C0 0.66 0 1.32 0 2 C1.65 2.33 3.3 2.66 5 3 C4.4225 3.2475 3.845 3.495 3.25 3.75 C0.86550111 4.93990475 0.86550111 4.93990475 -1.125 7.125 C-1.74375 7.74375 -2.3625 8.3625 -3 9 C-3.66 9 -4.32 9 -5 9 C-5.36666667 3.5 -5.36666667 3.5 -3.625 1.125 C-2 0 -2 0 0 0 Z " fill="#CAD67C" transform="translate(51,72)"/>
<path d="M0 0 C0.33 0 0.66 0 1 0 C1 4.29 1 8.58 1 13 C-0.32 13.33 -1.64 13.66 -3 14 C-4 13 -4 13 -4.09765625 10.71484375 C-4.08605469 9.79832031 -4.07445312 8.88179687 -4.0625 7.9375 C-4.05347656 7.01839844 -4.04445312 6.09929687 -4.03515625 5.15234375 C-4.02355469 4.44207031 -4.01195312 3.73179688 -4 3 C-2.515 3.99 -2.515 3.99 -1 5 C-0.67 3.35 -0.34 1.7 0 0 Z " fill="#C0D485" transform="translate(42,76)"/>
<path d="M0 0 C0.33 0 0.66 0 1 0 C1 3.96 1 7.92 1 12 C2.32 11.67 3.64 11.34 5 11 C5 12.98 5 14.96 5 17 C3.0625 17.5625 3.0625 17.5625 1 18 C0 17 0 17 -0.09765625 13.18359375 C-0.09098089 11.60153318 -0.07901875 10.01948841 -0.0625 8.4375 C-0.05798828 7.63119141 -0.05347656 6.82488281 -0.04882812 5.99414062 C-0.03700518 3.99606244 -0.01906914 1.99802217 0 0 Z " fill="#74BA99" transform="translate(87,72)"/>
<path d="M0 0 C1.32 0.33 2.64 0.66 4 1 C3.98839844 2.27617188 3.97679687 3.55234375 3.96484375 4.8671875 C3.95546583 6.53645687 3.94636563 8.20572783 3.9375 9.875 C3.92912109 10.71675781 3.92074219 11.55851562 3.91210938 12.42578125 C3.90727539 13.63427734 3.90727539 13.63427734 3.90234375 14.8671875 C3.89710693 15.61081543 3.89187012 16.35444336 3.88647461 17.12060547 C3.88213364 19.09132568 3.88213364 19.09132568 5 21 C4.01 20.67 3.02 20.34 2 20 C1.01285957 15.92804571 1 12.17764759 1 8 C0.73662102 5.3191782 0.37454346 2.66862218 0 0 Z " fill="#04699B" transform="translate(11,70)"/>
<path d="M0 0 C0.66 0 1.32 0 2 0 C2.02699725 2.27076842 2.04639453 4.54162821 2.0625 6.8125 C2.07410156 8.07707031 2.08570312 9.34164062 2.09765625 10.64453125 C2 14 2 14 1 17 C-0.32 17 -1.64 17 -3 17 C-2.7834375 16.443125 -2.566875 15.88625 -2.34375 15.3125 C-0.38647405 9.94811407 0.31098961 5.70147617 0 0 Z " fill="#0D75A1" transform="translate(85,75)"/>
<path d="M0 0 C2.64 0 5.28 0 8 0 C8 0.33 8 0.66 8 1 C6.02 1.33 4.04 1.66 2 2 C2 4.64 2 7.28 2 10 C-0.3125 10.625 -0.3125 10.625 -3 11 C-3.99 10.34 -4.98 9.68 -6 9 C-6 8.34 -6 7.68 -6 7 C-4.02 7 -2.04 7 0 7 C0 4.69 0 2.38 0 0 Z " fill="#05699B" transform="translate(20,54)"/>
<path d="M0 0 C0.33 0 0.66 0 1 0 C1 6.6 1 13.2 1 20 C0.67 20 0.34 20 0 20 C-0.33 16.37 -0.66 12.74 -1 9 C-1.99 8.67 -2.98 8.34 -4 8 C-3.525625 7.608125 -3.05125 7.21625 -2.5625 6.8125 C-0.64820367 4.59191626 -0.38733012 2.86624291 0 0 Z " fill="#0670A3" transform="translate(65,64)"/>
<path d="M0 0 C1.32 0.33 2.64 0.66 4 1 C4.33 2.98 4.66 4.96 5 7 C5.66 7 6.32 7 7 7 C6.34 8.32 5.68 9.64 5 11 C1.7089159 7.39042389 0.45336079 4.87362847 0 0 Z " fill="#0D6C9C" transform="translate(6,106)"/>
<path d="M0 0 C0.33 0 0.66 0 1 0 C1 1.65 1 3.3 1 5 C-2.63 5 -6.26 5 -10 5 C-10 4.34 -10 3.68 -10 3 C-10.66 2.67 -11.32 2.34 -12 2 C-8.04 2 -4.08 2 0 2 C0 1.34 0 0.68 0 0 Z " fill="#D8E47F" transform="translate(119,77)"/>
<path d="M0 0 C0.33 0 0.66 0 1 0 C1.66 1.98 2.32 3.96 3 6 C9.93 6.495 9.93 6.495 17 7 C17 7.33 17 7.66 17 8 C11.06 8 5.12 8 -1 8 C-1 2 -1 2 0 0 Z " fill="#9CCC8F" transform="translate(102,75)"/>
<path d="M0 0 C1.98 0.99 1.98 0.99 4 2 C3.34 3.65 2.68 5.3 2 7 C2.99 7 3.98 7 5 7 C5 9.31 5 11.62 5 14 C4.67 13.34 4.34 12.68 4 12 C3.01 12 2.02 12 1 12 C0.67 8.04 0.34 4.08 0 0 Z " fill="#7FC298" transform="translate(14,72)"/>
<path d="M0 0 C1.65 0 3.3 0 5 0 C5.92470553 4.71599818 6.22923777 7.67265609 4 12 C3.67 12 3.34 12 3 12 C2.86722656 11.38511719 2.73445313 10.77023438 2.59765625 10.13671875 C2.42105469 9.32847656 2.24445313 8.52023438 2.0625 7.6875 C1.88847656 6.88699219 1.71445313 6.08648437 1.53515625 5.26171875 C1.00113841 2.854599 1.00113841 2.854599 0 0 Z " fill="#2090AA" transform="translate(117,70)"/>
<path d="M0 0 C0.99 0.33 1.98 0.66 3 1 C3 3.31 3 5.62 3 8 C1.68 8.33 0.36 8.66 -1 9 C-1.09765625 2.84765625 -1.09765625 2.84765625 -1 1 C-0.67 0.67 -0.34 0.34 0 0 Z " fill="#EEEC79" transform="translate(68,64)"/>
<path d="M0 0 C-0.33 1.32 -0.66 2.64 -1 4 C-0.01 4 0.98 4 2 4 C2 4.66 2 5.32 2 6 C-1.40312738 4.94124926 -4.01353231 3.99097846 -7 2 C-7 1.34 -7 0.68 -7 0 C-3.86650268 -1.04449911 -3.01031744 -0.93423645 0 0 Z " fill="#14719F" transform="translate(22,119)"/>
<path d="M0 0 C1.32 0 2.64 0 4 0 C3.46939601 4.51013391 1.69113883 7.38378219 -1 11 C-1.33 11 -1.66 11 -2 11 C-1 3.57142857 -1 3.57142857 0 0 Z " fill="#47B2AB" transform="translate(93,0)"/>
<path d="M0 0 C0.33 0.66 0.66 1.32 1 2 C2.32 1.67 3.64 1.34 5 1 C5.33 2.65 5.66 4.3 6 6 C4.02 6.33 2.04 6.66 0 7 C0.66 6.67 1.32 6.34 2 6 C2 5.01 2 4.02 2 3 C-0.97 2.505 -0.97 2.505 -4 2 C-2.68 1.34 -1.36 0.68 0 0 Z " fill="#F3ED77" transform="translate(113,73)"/>
<path d="M0 0 C6.92066116 0.65289256 6.92066116 0.65289256 10 4 C13.10007201 5.20049407 13.10007201 5.20049407 16 6 C16 6.33 16 6.66 16 7 C9.42304593 7.37228042 9.42304593 7.37228042 7.4375 5.625 C6.963125 5.08875 6.48875 4.5525 6 4 C2.89992799 2.79950593 2.89992799 2.79950593 0 2 C0 1.34 0 0.68 0 0 Z " fill="#75C2A0" transform="translate(107,8)"/>
<path d="M0 0 C1.67542976 0.28604898 3.34385343 0.61781233 5 1 C4.67 2.32 4.34 3.64 4 5 C2.68 5 1.36 5 0 5 C-0.33 5.66 -0.66 6.32 -1 7 C-1.04254356 5.00045254 -1.04080783 2.99958364 -1 1 C-0.67 0.67 -0.34 0.34 0 0 Z " fill="#18709A" transform="translate(33,76)"/>
<path d="M0 0 C0.66 0.33 1.32 0.66 2 1 C0.125 6.875 0.125 6.875 -1 8 C-0.01 8.66 0.98 9.32 2 10 C-0.64 10.33 -3.28 10.66 -6 11 C-5.47599609 10.18595703 -5.47599609 10.18595703 -4.94140625 9.35546875 C-4.25884766 8.28232422 -4.25884766 8.28232422 -3.5625 7.1875 C-3.11003906 6.47980469 -2.65757813 5.77210937 -2.19140625 5.04296875 C-0.85913661 2.91865448 -0.85913661 2.91865448 0 0 Z " fill="#2EA4B6" transform="translate(98,14)"/>
<path d="M0 0 C2.31 0 4.62 0 7 0 C7.33 1.32 7.66 2.64 8 4 C6.68 4.33 5.36 4.66 4 5 C2.68 3.35 1.36 1.7 0 0 Z " fill="#84C699" transform="translate(107,85)"/>
<path d="M0 0 C1.65 0 3.3 0 5 0 C5.5625 1.9375 5.5625 1.9375 6 4 C5 5 5 5 2.4375 5.0625 C1.2309375 5.0315625 1.2309375 5.0315625 0 5 C0 3.35 0 1.7 0 0 Z " fill="#0E709F" transform="translate(20,44)"/>
<path d="M0 0 C0.33 0.66 0.66 1.32 1 2 C2.32 1.67 3.64 1.34 5 1 C4.3125 2.9375 4.3125 2.9375 3 5 C0.375 5.75 0.375 5.75 -2 6 C-2 5.34 -2 4.68 -2 4 C-3.32 3.67 -4.64 3.34 -6 3 C-5.195625 2.690625 -4.39125 2.38125 -3.5625 2.0625 C-1.10919595 1.23664655 -1.10919595 1.23664655 0 0 Z " fill="#CFE185" transform="translate(80,83)"/>
<path d="M0 0 C2.95409701 1.37154504 5.44008376 2.98863724 8 5 C6.68 5.33 5.36 5.66 4 6 C4 5.34 4 4.68 4 4 C2.02 4.33 0.04 4.66 -2 5 C-1.34 3.35 -0.68 1.7 0 0 Z " fill="#066C9C" transform="translate(45,86)"/>
<path d="M0 0 C0.99 0.33 1.98 0.66 3 1 C3 2.98 3 4.96 3 7 C1.68 7.33 0.36 7.66 -1 8 C-1.04241723 5.66705225 -1.04092937 3.33297433 -1 1 C-0.67 0.67 -0.34 0.34 0 0 Z " fill="#F1ED7A" transform="translate(82,77)"/>
<path d="M0 0 C0.33 1.32 0.66 2.64 1 4 C1.66 4 2.32 4 3 4 C3 4.66 3 5.32 3 6 C2.34 6 1.68 6 1 6 C0.67 7.32 0.34 8.64 0 10 C-1.9375 9.625 -1.9375 9.625 -4 9 C-4.33 8.34 -4.66 7.68 -5 7 C-3.68 6.67 -2.36 6.34 -1 6 C-0.67 4.02 -0.34 2.04 0 0 Z " fill="#0A759F" transform="translate(58,54)"/>
<path d="M0 0 C0.66 0 1.32 0 2 0 C3.32 2.31 4.64 4.62 6 7 C5.01 7 4.02 7 3 7 C3 6.34 3 5.68 3 5 C2.34 5 1.68 5 1 5 C1 6.98 1 8.96 1 11 C0.67 11 0.34 11 0 11 C0 7.37 0 3.74 0 0 Z " fill="#4995B2" transform="translate(57,49)"/>
<path d="M0 0 C0.99 0.99 1.98 1.98 3 3 C3.66 2.67 4.32 2.34 5 2 C5.33 3.98 5.66 5.96 6 8 C4.02 7.34 2.04 6.68 0 6 C0 4.02 0 2.04 0 0 Z " fill="#98CA8F" transform="translate(45,77)"/>
<path d="M0 0 C4.75 0.75 4.75 0.75 7 3 C6.75 5.5625 6.75 5.5625 6 8 C5.01 8.495 5.01 8.495 4 9 C3.67 8.01 3.34 7.02 3 6 C3.66 6 4.32 6 5 6 C4.67 5.01 4.34 4.02 4 3 C1.98491642 2.26676204 1.98491642 2.26676204 0 2 C0 1.34 0 0.68 0 0 Z " fill="#217E9E" transform="translate(74,76)"/>
<path d="M0 0 C1 1 1 1 1.0625 4.0625 C1.041875 5.031875 1.02125 6.00125 1 7 C0.5875 6.360625 0.175 5.72125 -0.25 5.0625 C-2.22138812 2.73907828 -3.11753816 2.57649237 -6 2 C-6.33 1.34 -6.66 0.68 -7 0 C-4.31633121 -1.3418344 -2.84719317 -0.73004953 0 0 Z " fill="#CCD780" transform="translate(85,76)"/>
<path d="M0 0 C1.65 0 3.3 0 5 0 C4.41196203 3.02419525 3.77321882 6.01758453 3 9 C2.34 9 1.68 9 1 9 C1.020625 8.071875 1.04125 7.14375 1.0625 6.1875 C1.15769604 2.97713989 1.15769604 2.97713989 0 0 Z " fill="#259AB1" transform="translate(96,31)"/>
<path d="M0 0 C0.33 0 0.66 0 1 0 C1.16276042 2.01822917 1.32552083 4.03645833 1.48828125 6.0546875 C1.87393036 8.39519216 1.87393036 8.39519216 5 10 C5 10.66 5 11.32 5 12 C3.35 11.67 1.7 11.34 0 11 C0 7.37 0 3.74 0 0 Z " fill="#69B399" transform="translate(26,78)"/>
<path d="M0 0 C0.66 0 1.32 0 2 0 C2.33 2.64 2.66 5.28 3 8 C2.34 8 1.68 8 1 8 C0.67 8.66 0.34 9.32 0 10 C0 6.7 0 3.4 0 0 Z " fill="#DCE681" transform="translate(88,72)"/>
<path d="M0 0 C1.32 0 2.64 0 4 0 C4 1.65 4 3.3 4 5 C2.35 4.67 0.7 4.34 -1 4 C-0.67 2.68 -0.34 1.36 0 0 Z " fill="#E0E67C" transform="translate(88,65)"/>
<path d="M0 0 C0.33 0 0.66 0 1 0 C1 1.98 1 3.96 1 6 C1.5775 6.12375 2.155 6.2475 2.75 6.375 C5.02335767 7.00648824 6.9253529 7.88858191 9 9 C1.25 9.125 1.25 9.125 -1 8 C-0.67 5.36 -0.34 2.72 0 0 Z " fill="#FBFAF9" transform="translate(18,44)"/>
<path d="M0 0 C0.66 0 1.32 0 2 0 C2 2.31 2 4.62 2 7 C0.35 6.67 -1.3 6.34 -3 6 C-2.67 4.68 -2.34 3.36 -2 2 C-1.34 2 -0.68 2 0 2 C0 1.34 0 0.68 0 0 Z " fill="#ECF1F1" transform="translate(29,43)"/>
<path d="M0 0 C0.99 0.33 1.98 0.66 3 1 C3 2.65 3 4.3 3 6 C1.68 6 0.36 6 -1 6 C-1.042721 4.33388095 -1.04063832 2.66617115 -1 1 C-0.67 0.67 -0.34 0.34 0 0 Z " fill="#92CE95" transform="translate(96,82)"/>
<path d="M0 0 C0.66 0 1.32 0 2 0 C2.33 2.31 2.66 4.62 3 7 C2.01 7.66 1.02 8.32 0 9 C0 6.03 0 3.06 0 0 Z " fill="#F5EF78" transform="translate(95,65)"/>
<path d="M0 0 C2.475 0.495 2.475 0.495 5 1 C5 1.66 5 2.32 5 3 C5.66 3.33 6.32 3.66 7 4 C6.01 4.495 6.01 4.495 5 5 C4.01 6.485 4.01 6.485 3 8 C3 6.68 3 5.36 3 4 C2.01 3.67 1.02 3.34 0 3 C0 2.01 0 1.02 0 0 Z " fill="#3290A4" transform="translate(89,61)"/>
<path d="M0 0 C0.78375 0.04125 1.5675 0.0825 2.375 0.125 C1.055 0.455 -0.265 0.785 -1.625 1.125 C-1.955 3.105 -2.285 5.085 -2.625 7.125 C-3.285 7.125 -3.945 7.125 -4.625 7.125 C-4.75 4.75 -4.75 4.75 -4.625 2.125 C-2.625 0.125 -2.625 0.125 0 0 Z " fill="#23779C" transform="translate(54.625,75.875)"/>
<path d="M0 0 C1.98 0 3.96 0 6 0 C6 0.99 6 1.98 6 3 C6.66 3.33 7.32 3.66 8 4 C7.67 4.66 7.34 5.32 7 6 C4.5 4.625 4.5 4.625 2 3 C2 2.34 2 1.68 2 1 C1.34 0.67 0.68 0.34 0 0 Z " fill="#DAE57F" transform="translate(21,72)"/>
<path d="M0 0 C1.98 0.495 1.98 0.495 4 1 C3.34 2.32 2.68 3.64 2 5 C1.01 5 0.02 5 -1 5 C-0.67 3.35 -0.34 1.7 0 0 Z " fill="#AFD68D" transform="translate(17,74)"/>
<path d="M0 0 C1.5 1.375 1.5 1.375 3 3 C3 3.66 3 4.32 3 5 C3.99 5.33 4.98 5.66 6 6 C4.02 6 2.04 6 0 6 C-1.125 2.25 -1.125 2.25 0 0 Z " fill="#61A68F" transform="translate(67,84)"/>
<path d="M0 0 C3.3 0.33 6.6 0.66 10 1 C9.01 1.33 8.02 1.66 7 2 C7 2.66 7 3.32 7 4 C7.66 4.33 8.32 4.66 9 5 C7.68 4.67 6.36 4.34 5 4 C5 3.34 5 2.68 5 2 C3.35 1.67 1.7 1.34 0 1 C0 0.67 0 0.34 0 0 Z " fill="#7ABE9B" transform="translate(46,84)"/>
<path d="M0 0 C0.99 0.33 1.98 0.66 3 1 C3 2.32 3 3.64 3 5 C1.02 4.34 -0.96 3.68 -3 3 C-2.01 2.01 -1.02 1.02 0 0 Z " fill="#248FAC" transform="translate(19,2)"/>
<path d="M0 0 C3.63 0 7.26 0 11 0 C10.67 1.32 10.34 2.64 10 4 C9.01 3.34 8.02 2.68 7 2 C4.67612053 1.60612212 2.34206251 1.26513915 0 1 C0 0.67 0 0.34 0 0 Z " fill="#428794" transform="translate(32,71)"/>
<path d="M0 0 C0.66 0 1.32 0 2 0 C2 1.98 2 3.96 2 6 C0.68 5.67 -0.64 5.34 -2 5 C-1.34 3.35 -0.68 1.7 0 0 Z " fill="#F3F5F6" transform="translate(17,54)"/>
<path d="M0 0 C1.32 0.33 2.64 0.66 4 1 C4 3.97 4 6.94 4 10 C3.67 10 3.34 10 3 10 C2.87625 9.030625 2.7525 8.06125 2.625 7.0625 C2.41875 6.051875 2.2125 5.04125 2 4 C1.34 3.67 0.68 3.34 0 3 C0 2.01 0 1.02 0 0 Z " fill="#82C59D" transform="translate(125,16)"/>
</svg>
